<mxfile host="app.diagrams.net" agent="Mozilla/5.0 (Macintosh; Intel Mac OS X 10_15_7) AppleWebKit/605.1.15 (KHTML, like Gecko) Version/18.1 Safari/605.1.15" version="24.8.4">
  <diagram id="WI9T0HZ2pTsCkuznbFz-" name="Page-1">
    <mxGraphModel dx="927" dy="680" grid="1" gridSize="10" guides="1" tooltips="1" connect="1" arrows="1" fold="1" page="1" pageScale="1" pageWidth="1169" pageHeight="827" math="0" shadow="0">
      <root>
        <mxCell id="0" />
        <mxCell id="1" parent="0" />
        <mxCell id="RLjyjs_sm2IHfBNOWAbh-23" value="SQL Data&lt;br&gt;Warehouse" style="aspect=fixed;html=1;perimeter=none;align=center;shadow=0;dashed=0;image;fontSize=12;image=img/lib/mscae/SQL_Database_generic.svg;labelBackgroundColor=#ffffff;fillColor=#4D9900;spacingTop=6;" parent="1" vertex="1">
          <mxGeometry x="649.9999999999998" y="370" width="37.5" height="50" as="geometry" />
        </mxCell>
        <mxCell id="560cyLqUuOO_lIKh5aCF-15" value="" style="shape=image;verticalLabelPosition=bottom;labelBackgroundColor=default;verticalAlign=top;aspect=fixed;imageAspect=0;image=data:image/png,iVBORw0KGgoAAAANSUhEUgAAAVwAAAFcBAMAAAB2OBsfAAAAG1BMVEXu7u7///8qnhpMTEw8PDzEz8NtbW2WlpZ3wGwHDwXOAAAM1UlEQVR42u2d0VPbuBPHo0LgHuV2THjsZYYZHtuxCq+9sQivMQTaRxhCeCXTAK8HM53hz77dlWTLiZ04/dGL/Lv1QwefFPnj1Xq1+7U814nMITvmCP2UcRmXcRmXcRmXcRmXcYM47XSE/S+BnzIu4zIu4zIu4zIu4zLuxnE5PWdcxmVcxmVcxmVcxmVcViAZl3EZl3EZl3EZl3EZlxVIriYYl3EZl3EZl3EZl3FZgeRqgnEZl3EZl3EZl3EZlxVITs9/Oy4c7bKuwH9bgCsvXvt4HP4cRuHjfu8Xx6sIGzeKX/ql4++QcaM/+vPHQbi4JUdwx2GouJW0xBsirvijX30chIgr4n7d8XeAuPKlFrefydBwxVk9LbhvaLhxf9nxUYalQEYvS3H7Iqj0XOwvpzWrRTi4K4wLT1tAuCuNa80bCu5K4xrvDQQ3Xk3b/zMY3KUx1091wsCV/SbHcyi4+9WPllz4L0HgVvrCIm4/EFzZb4b7HAbufkPcgyBwq+NCBW4/DNx+U9wsBNy4Me6fISiQ7xvjHoSQnp81xu2HgOulN4dOFdu3uFHUfZnPIjeLKxcnGx3E4Ua+svO8edz9CtoSrsf7cfO4+ZN2KGpwC+8+2Dzuu7mZrsCN5561TeK+ePlsDW5xS+HgknHl99fX16zAff1JwUCWQ8MmcX3DGTH6ucB1gvRZyWE2iCu9h97KZGVcsui+V7BtFDf27HbWr8I99Lxh47j7RV3ukfu4dCcvfuDdPO5hVOQ687iHRWw42DTu+4LjpQYXLb/vR7sNKpDvcqeU/Trc5wJXbjg9fzdPVIH7sfh707h+NKjDRU8JCzdbhnsYIu67duGe1eL2i7DB1v0P+G5bIkOTuFusIaEsE21Z1dbMGTaNu2ZGFgguWlCuzneDwW1WTXzctAIZe8GqBbXaykr4OahKuKwzRBevLwXu6+vrT1GScbJgcA/zZc7hFkdAKs68RvayiBv3y7cUhAJpd4RUWPclIAVyv1+23aJ1v4ek73rqOSm8C9b9HpR6Xno3AYGgbF0Z2ruJxTc/z3Uvr4J48/O+MW4Q79Xixrgfg9il1xg3CwL3rCmuDAJ3vyHuwRvhvvFukTrc5zD34tThBrrTqQb3gPeR/Rd26bVsD2Tbdpi2bP9uy3ZHt23vect29i/7hKb4bC2k74TfrYi5geEuc4csQNx4lSuE9RV2u75Xa9vXgG371rJtX7K27Tvhtn2F3TEKeou+cc/jGv7bGlzxhnz/hnUZl3EZt+W4b5Pv/lunjMu4jMu4/5e4sj24AtuK7Qih43Yfb5Jk8vAW17CrZrPOwr7pWA93V+k0UVoPsnX45GRy7Z3uTOzxNIya4u5MjtbHvQRYOnR6vw6u1n95p9vaHelt1BB3pFO5Lu6ORlRF/6TTNWY/ST77uEl+6FvZDHc7WRs3RlCt0RmAd7DG65pU1eAmetoUN2mE62W+M3Tbu2Ekuz+Q90vjbFgmyafiFC9tnQF4T5ulsGDd9dJzsQN+a10WnBguma2D6w21najhxcVF5+LRjrIaF2dkPdxoDGPfOwtdgqVPmkobUinfuqNE2cACFlCfZDPcNa3bg6G/5AFTgmek2S9bN7Ots8IbVjnDetYVoyQZiOK0R4b5Rd/NcWGUwW+xrlQ0b4VvkGGa4qoa60qYo87vsC7YIRV+A5o3a+q7ybzvutNxosRvsC5cIzkpRS680vX/6rtr4K5lXYIri55baXLS3Bmqfbcp7tpxNzXjev3wMXkD66a/I+4CG0Ucrx94ZFIW7MuCuIhqfNfHTVZEBrcporBu5GXctbh7Kbmu30+M6VnrDjP3s4suIF50M2nysG83ydFdVooM8XB44Vs3Tl3cFfIRu+dZCmarE0yto3JkkLAeDqEVB3+I6nDhEp/nbACRWEFapvSJxe1pfY3nX6k1vtEakiHI3Ly4O9bQ28PdS+2qJmJoUkoPhrmxL+HHMMBt5FtXbEGqAbg/IOHQ+ljU4CLa/JRtJZhojZOvFjdOCT8hXFz26Eizwnd3cCn0rTu2OQPQpjaRzuxruHOd55ie70JWCLkVQJu2K1mNOzOXKOGCg3ytw6WEiHIudZrnDLTUGN81w5w7X8Bsz3U3VU4P/9ZYDuipzCMD/gLWVkxlqS2tfM1BfirmE80e+jO0nNgUG3E7QuE9IFmij54mmHNNbXqOoQ/GR0s9gAdePN1obKShMIueQPc00dc2ZCR6cPeoNN5Anu/iDUP7hxQHv0ld5J9PzxE3WgcXB7yn4g6mP0oJF68FsyfyfDfNq4mZzU2he3Jqx1bH+D7rR0pPyIiqCXFugifM9S20zVKcrGrcZAE3XoILt3eFnaFguoJwRdWEmchSNXEb0W9hJNt9F24hM0CnggQNuPKJs25sjAsOhy4jYn0q6nDTKtzTGtyYrEAaykQIY11r3BIuxClh5sK4LGZOaDHsOzXVDiYr1rrOuLBmUTwRP7KouXW79dbdo2minh1oJeta45acQUGcMrac2vCL61GxKuGFsNFYF4xLvg4XuqbeMorexHdNSC5KS7AuTaQ0uOqOdAZ41NCzcXLTPOLTPG6lpi9e6AMWplgJi1FqHDvHFUtw14kMM5qMonCHC56nLkZt27Ei+U3Rc48PQd6ZSiMXN2kfD7Zi3I1dIJGufy3uzMZKHxfi7qdONa4iM/jWhWuZhYZwM2oV+GTB3z20n+sMfnQNJh4UiQcOBr6LsfnU4CkMO3IJrpndMu4HzCkrcaXJLX3ckTOuh2uerM8REbrOPfQclacSFGUGYN0BNNgoTXHvVkSyFnfbRmQflxbmStyY1jsf94tyxi3hdujJAu/Mii198FtpEypzIfSs7eQICgRX2n7AxS69G0Z1Ks6OASjhkoPV4X4ui04qD1VlXEgnBmZVzgW1BVwwC/5G2wlG56UMwwl1Fbg96zc+rsLUuga3pDKBdY9h/KwCl57hedwTsnB+oW3qcjQurAurX2okqxpcLFnnRDETGxtZF05nRqVawMUpWoFrrDvYS03UM7w3mOGoVNRIemMzFR7uFuWqHm7Px/1rDpcuVoE7qsCtdIZUjhObIsBvIQgicE2KQ8OelHHH9PDU4X6dj7tjZ95F3A9oimWPWkpxd8fOsPktRW0b2RYVyL0KnSE11C7f3cvzXWnWUL9WE8XF/FqNnlcMZJ6gAZOmXISVZBB8GtPIKjNFgttzokq1inPlqTi4Ip5IwrXFj9hKHC6YeCDnKuF8LkuVMBo962HK4rwS1988o8KRJdqQqgmTL3t8ruyv0MhmZY3MrFIl3FGBaxbRks5gkvN5FYcEAUrtfI1H5CKlmcYTsq5n3nJNXYUL3qBu81qcVkQy9gzuXXpPI+GOSEQp6wy29Clbdw81PVFIAIiUCoEmdtNI5ja1mjOvWInbgcnM1WjSd/WUWnE1l6ZUy3GxjDu1ntNxOkNu3rIsgjnzrNCvTHh0Yd7oympqK+HYpszx1McVUY16rlzg2wVXODbyxLZLpLc8XETPzPzeCKczWPP61j0n2RWHHhQ1rJkJm3xRm3SV8Ihy5mh0mneG2m/3KavYi4PmVZhZRF1U6Y9FIZggOFanaCPCRXuZIXf0p1xnODfmzStheseB0RgfhKtcT8/oOUgGpmQZo0zvdAaqkuSuNstxTOpwfNt9qsClWjqhUhr/uHvCg36DRWR3lp56uHjZO0G1os46pljBhBXMC9ZNjoxMgMU5Blh8jvUDXOabtnK6Ky1Rf8Dwbq1rzAvZHU4ztkHnnd2n7rRip5PAFyjmtVpCIgActsQ+migIlzc5bscU7hNceQDXKZB0MQxKKq/WaKkjS1D3hB4JIzzodALDolBRqDh4G1f4jzZtkME+9eT0umpjVq6sFBez2ZyiWVUFLski5gXcl0LFwbm8ll5pqbSp0bBoTBSlATZxM1Op7Q3lKg5mkwO0kG0D133Ye8zuK/eRRZcwpJrDNdlcAkWiwjxMKSM6/TC3pgZQf2un785SOLe4CkWaezuyHQS627zNviJ1wlKuQMJt6Oue1yYeervRdfW2tyh+TLR30Bg9heLdsRBKfy4kPeDVKb3slh2lLW4PfnM1ci8B6c29zQ2sAjjISpKeeW2MuDp170RSPRA7mnpjm7jsxcNp/S69Yi+cC55wD0cPwmYkSGoM9m1SALnI5f20rA2LyHT3LtR9vDm6G9o03r56ob+6Hb+tdx9dihWbCucEaPd1RK06LX9xn2BUJVaL0qn49nTfpj2QkvdAMi7jMi7jMi7jMi7jMi7/v7AZl3EZl3EZl3EZl3EZl7/C5mqCcRmXcRmXcRmXcRmXFUiuJhiXcRmXcRmXcRmXcVmB5PSccRmXcRmXcRmXcRmXFUhOzxmXcRmXcRmXcRmXcRmXFUjGXXH6D60njfI0+R3XAAAAAElFTkSuQmCC;" parent="1" vertex="1">
          <mxGeometry x="200" y="445" width="95.64" height="95.64" as="geometry" />
        </mxCell>
        <mxCell id="560cyLqUuOO_lIKh5aCF-19" value="" style="group" parent="1" vertex="1" connectable="0">
          <mxGeometry x="200" y="240" width="95.63999999999999" height="103.5" as="geometry" />
        </mxCell>
        <mxCell id="560cyLqUuOO_lIKh5aCF-2" value="" style="shape=image;verticalLabelPosition=bottom;labelBackgroundColor=default;verticalAlign=top;aspect=fixed;imageAspect=0;image=data:image/png,iVBORw0KGgoAAAANSUhEUgAAAgoAAAHICAYAAAAvCcJ3AAAMTmlDQ1BJQ0MgUHJvZmlsZQAASImVVwdYU8kWnltSIQQIREBK6E0QkRJASggt9I4gKiEJEEqMCUHFji6u4FoRESwrugqi2AERG+qqK4tidy2LBYWVdXFd7MqbEECXfeV7831z57//nPnnnHNn7r0DAL2TL5XmopoA5EnyZbHB/qzJySksUjegAhxgwAA48QVyKSc6OhzAMtz+vby+CRBle81BqfXP/v9atIQiuQAAJBridKFckAfxYQDwFoFUlg8AUQp581n5UiUug1hHBh2EuEaJM1W4RYnTVfjKoE18LBfiJwCQ1fl8WSYAGn2QZxUIMqEOHUYLnCRCsQRiP4h98vJmCCFeBLENtIFz0pX67PSvdDL/ppk+osnnZ45gVSyDhRwglktz+XP+z3T875KXqxiewxpW9SxZSKwyZpi3JzkzwpRYHeK3kvTIKIi1AUBxsXDQXomZWYqQBJU9aiOQc2HOABPiSfLcON4QHyvkB4RBbAhxhiQ3MnzIpihDHKS0gflDK8T5vHiI9SCuEckD44ZsTslmxA7PezNDxuUM8d182aAPSv3PipwEjkof084S8Yb0McfCrPgkiKkQBxSIEyMh1oA4Up4TFzZkk1qYxY0ctpEpYpWxWEAsE0mC/VX6WHmGLCh2yH53nnw4duxUlpgXOYSv5mfFh6hyhT0R8Af9h7FgfSIJJ2FYRySfHD4ci1AUEKiKHSeLJAlxKh7Xk+b7x6rG4nbS3Oghe9xflBus5M0gjpcXxA2PLciHi1OljxdL86PjVX7ildn80GiVP/h+EA64IACwgALWdDADZANxe29jL7xT9QQBPpCBTCACDkPM8IikwR4JvMaBQvA7RCIgHxnnP9grAgWQ/zSKVXLiEU51dQAZQ31KlRzwFOI8EAZy4b1iUEky4kEieAIZ8T884sMqgDHkwqrs//f8MPuF4UAmfIhRDM/Iog9bEgOJAcQQYhDRFjfAfXAvPBxe/WB1xtm4x3AcX+wJTwkdhEeEG4ROwp3p4iLZKC8jQCfUDxrKT/rX+cGtoKYr7o97Q3WojDNxA+CAu8B5OLgvnNkVstwhv5VZYY3S/lsEXz2hITuKEwWljKH4UWxGj9Sw03AdUVHm+uv8qHxNH8k3d6Rn9Pzcr7IvhG3YaEvsW+wQdh47jV3EWrBGwMJOYk1YG3ZciUdW3JPBFTc8W+ygPzlQZ/Sa+fJklZmUO9U59Th9VPXli2bnKzcjd4Z0jkycmZXP4sAvhojFkwgcx7GcnZxdAFB+f1Svt1cxg98VhNn2hVvyKwDeJwcGBo594UJPAnDAHb4Sjn7hbNjw06IGwIWjAoWsQMXhygsBvjnocPfpA2NgDmxgPM7ADXgBPxAIQkEUiAfJYBr0PguucxmYBeaBxaAYlILVYD2oBFvBdlAD9oKDoBG0gNPgR3AJXAE3wF24errAc9AHXoMPCIKQEBrCQPQRE8QSsUecETbigwQi4UgskoykIZmIBFEg85AlSCmyFqlEtiG1yAHkKHIauYh0IHeQh0gP8ifyHsVQdVQHNUKt0PEoG+WgYWg8OhXNRGeihehSdCVagVaje9AG9DR6Cb2BdqLP0X4MYGoYEzPFHDA2xsWisBQsA5NhC7ASrByrxuqxZvicr2GdWC/2DifiDJyFO8AVHIIn4AJ8Jr4AX4FX4jV4A34Wv4Y/xPvwzwQawZBgT/Ak8AiTCZmEWYRiQjlhJ+EI4RzcS12E10QikUm0JrrDvZhMzCbOJa4gbibuI54idhAfE/tJJJI+yZ7kTYoi8Un5pGLSRtIe0knSVVIX6S1ZjWxCdiYHkVPIEnIRuZy8m3yCfJX8jPyBokmxpHhSoihCyhzKKsoOSjPlMqWL8oGqRbWmelPjqdnUxdQKaj31HPUe9ZWampqZmodajJpYbZFahdp+tQtqD9XeqWur26lz1VPVFeor1Xepn1K/o/6KRqNZ0fxoKbR82kpaLe0M7QHtrQZDw1GDpyHUWKhRpdGgcVXjBZ1Ct6Rz6NPohfRy+iH6ZXqvJkXTSpOryddcoFmleVTzlma/FkNrglaUVp7WCq3dWhe1urVJ2lbagdpC7aXa27XPaD9mYAxzBpchYCxh7GCcY3TpEHWsdXg62TqlOnt12nX6dLV1XXQTdWfrVuke1+1kYkwrJo+Zy1zFPMi8yXw/xmgMZ4xozPIx9WOujnmjN1bPT0+kV6K3T++G3nt9ln6gfo7+Gv1G/fsGuIGdQYzBLIMtBucMesfqjPUaKxhbMvbg2F8MUUM7w1jDuYbbDdsM+42MjYKNpEYbjc4Y9Rozjf2Ms43LjE8Y95gwTHxMxCZlJidNfmPpsjisXFYF6yyrz9TQNMRUYbrNtN30g5m1WYJZkdk+s/vmVHO2eYZ5mXmreZ+FiUWExTyLOotfLCmWbMssyw2W5y3fWFlbJVkts2q06rbWs+ZZF1rXWd+zodn42sy0qba5bku0Zdvm2G62vWKH2rnaZdlV2V22R+3d7MX2m+07xhHGeYyTjKsed8tB3YHjUOBQ5/DQkekY7ljk2Oj4YrzF+JTxa8afH//ZydUp12mH090J2hNCJxRNaJ7wp7Ods8C5yvn6RNrEoIkLJzZNfOli7yJy2eJy25XhGuG6zLXV9ZObu5vMrd6tx93CPc19k/sttg47mr2CfcGD4OHvsdCjxeOdp5tnvudBzz+8HLxyvHZ7dU+yniSatGPSY28zb773Nu9OH5ZPms/3Pp2+pr5832rfR37mfkK/nX7POLacbM4ezgt/J3+Z/xH/N1xP7nzuqQAsIDigJKA9UDswIbAy8EGQWVBmUF1QX7Br8NzgUyGEkLCQNSG3eEY8Aa+W1xfqHjo/9GyYelhcWGXYo3C7cFl4cwQaERqxLuJepGWkJLIxCkTxotZF3Y+2jp4ZfSyGGBMdUxXzNHZC7LzY83GMuOlxu+Nex/vHr4q/m2CToEhoTaQnpibWJr5JCkham9Q5efzk+ZMvJRski5ObUkgpiSk7U/qnBE5ZP6Ur1TW1OPXmVOups6denGYwLXfa8en06fzph9IIaUlpu9M+8qP41fz+dF76pvQ+AVewQfBc6CcsE/aIvEVrRc8yvDPWZnRnemeuy+zJ8s0qz+oVc8WV4pfZIdlbs9/kROXsyhnITcrdl0fOS8s7KtGW5EjOzjCeMXtGh9ReWiztnOk5c/3MPlmYbKcckU+VN+XrwB/9NoWN4hvFwwKfgqqCt7MSZx2arTVbMrttjt2c5XOeFQYV/jAXnyuY2zrPdN7ieQ/nc+ZvW4AsSF/QutB84dKFXYuCF9Uspi7OWfxzkVPR2qK/liQtaV5qtHTR0sffBH9TV6xRLCu+tcxr2dZv8W/F37Yvn7h84/LPJcKSn0qdSstLP64QrPjpuwnfVXw3sDJjZfsqt1VbVhNXS1bfXOO7pmat1trCtY/XRaxrKGOVlZT9tX76+ovlLuVbN1A3KDZ0VoRXNG202Lh648fKrMobVf5V+zYZblq+6c1m4earW/y21G812lq69f334u9vbwve1lBtVV2+nbi9YPvTHYk7zv/A/qF2p8HO0p2fdkl2ddbE1pytda+t3W24e1UdWqeo69mTuufK3oC9TfUO9dv2MfeV7gf7Fft/O5B24ObBsIOth9iH6g9bHt50hHGkpAFpmNPQ15jV2NmU3NRxNPRoa7NX85Fjjsd2tZi2VB3XPb7qBPXE0hMDJwtP9p+Snuo9nXn6cev01rtnJp+5fjbmbPu5sHMXfgz68cx5zvmTF7wvtFz0vHj0J/ZPjZfcLjW0ubYd+dn15yPtbu0Nl90vN13xuNLcManjxFXfq6evBVz78Trv+qUbkTc6bibcvH0r9VbnbeHt7ju5d17+UvDLh7uL7hHuldzXvF/+wPBB9a+2v+7rdOs8/jDgYdujuEd3HwseP38if/Kxa+lT2tPyZybParudu1t6gnqu/Dblt67n0ucfeot/1/p90wubF4f/8PujrW9yX9dL2cuBP1e80n+16y+Xv1r7o/sfvM57/eFNyVv9tzXv2O/Ov096/+zDrI+kjxWfbD81fw77fG8gb2BAypfxB38FMKA82mQA8OcuAGjJADDguZE6RXU+HCyI6kw7iMB/wqoz5GBxA6Ae/tPH9MK/m1sA7N8BgBXUp6cCEE0DIN4DoBMnjtThs9zguVNZiPBs8H3gp/S8dPBviupM+pXfo1ugVHUBo9t/ASeZgwKScIzUAAAAimVYSWZNTQAqAAAACAAEARoABQAAAAEAAAA+ARsABQAAAAEAAABGASgAAwAAAAEAAgAAh2kABAAAAAEAAABOAAAAAAAAAJAAAAABAAAAkAAAAAEAA5KGAAcAAAASAAAAeKACAAQAAAABAAACCqADAAQAAAABAAAByAAAAABBU0NJSQAAAFNjcmVlbnNob3QtNPJcAAAACXBIWXMAABYlAAAWJQFJUiTwAAAB1mlUWHRYTUw6Y29tLmFkb2JlLnhtcAAAAAAAPHg6eG1wbWV0YSB4bWxuczp4PSJhZG9iZTpuczptZXRhLyIgeDp4bXB0az0iWE1QIENvcmUgNi4wLjAiPgogICA8cmRmOlJERiB4bWxuczpyZGY9Imh0dHA6Ly93d3cudzMub3JnLzE5OTkvMDIvMjItcmRmLXN5bnRheC1ucyMiPgogICAgICA8cmRmOkRlc2NyaXB0aW9uIHJkZjphYm91dD0iIgogICAgICAgICAgICB4bWxuczpleGlmPSJodHRwOi8vbnMuYWRvYmUuY29tL2V4aWYvMS4wLyI+CiAgICAgICAgIDxleGlmOlBpeGVsWURpbWVuc2lvbj40NTY8L2V4aWY6UGl4ZWxZRGltZW5zaW9uPgogICAgICAgICA8ZXhpZjpQaXhlbFhEaW1lbnNpb24+NTIyPC9leGlmOlBpeGVsWERpbWVuc2lvbj4KICAgICAgICAgPGV4aWY6VXNlckNvbW1lbnQ+U2NyZWVuc2hvdDwvZXhpZjpVc2VyQ29tbWVudD4KICAgICAgPC9yZGY6RGVzY3JpcHRpb24+CiAgIDwvcmRmOlJERj4KPC94OnhtcG1ldGE+ClupDDoAAAAcaURPVAAAAAIAAAAAAAAA5AAAACgAAADkAAAA5AAA23gH8FgeAABAAElEQVR4AexdBWAc59EdMUu2ZGZmDDrM0KZ/27RNOdCGGmyaNg0zU0MOM1PDaCeOkyZ24sQxxhQzyyDbslh3kv73ZvVJJ/kEJ+mE8yXW3S18u/sWvrczb2YiRowYUSbWDAFDwBAwBAwBQ8AQCIJAhBGFIKjYJEPAEDAEDAFDwBBQBIwo2IVgCBgChoAhYAgYAjUiYEShRmhshiFgCBgChoAhYAgYUbBrwBAwBAwBQ8AQMARqRMCIQo3Q2AxDwBAwBAwBQ8AQMKJg14AhYAgYAoaAIWAI1IiAEYUaobEZhoAhYAgYAoaAIWBEwa4BQ8AQaJMIlJUxBUxE+b6XSUSE+94mD8d22hBotQgYUWi1p8Z2zBAwBAwBQ8AQaHkEjCi0/DmwPTAEDIEQESgpKROfr0RKSz1LQmRkhERHR0hUVGSIPdnihoAhUBcCRhTqQsjmGwKGQKtBgAQhP98nfn+JqOchYM9IFmJjoyQ+Plr43ZohYAg0DQJGFJoGR+vFEDAEwogASUFRkV8KC/1qRXCbcroET6/gTSVJSEiIlri4aLeYfRoChkAjEDCi0AjwbFVDwBAIPwKOINCaEEqLiaF1IUr4ac0QMAQajoARhYZjZ2saAoZAGBHwwb1QXFQKLUIZ3AzUI5RiaxEhRTfQ4hAbGwkLQ4y5I8J4rqzr9o2AEYX2fX7t6AyBNocA5InQIERISQloQUQkqYGAKkhJaYn4i4vF5/cJBQqcV99GdwS1C3FxUSERjfr2b8sZAu0ZASMK7fns2rEZAm0MgbKySPGXRIEHeJYDpz1QaWJ5ngQ/iEJRUYGU4DMigm4Fzq2fW4JREY4wtDFobHcNgRZDwIhCi0FvGzYEDIFABEpBDkr8MTrkkxNUj2pwy9KdQALh88G6UFwEy0NJuZWg/oTB0y9EQ79Qf6uE2759GgIdDQEjCh3tjNvxGgKtFAE/SALJQn2He48wlELHUCjFIAwkFi4Kor6HyMgIRkhYOGV9EbPlOiICRhQ64lm3YzYEWhkCpXQ5+IOHM0ZHRYFAlFaIGQN3XWkFmAWtCsXFBbAyUL8QGmEw/UIgovbdENgTASMKe2JiUwwBQ6CZESiBLqGklHoDag1oU/AaLQTbd+yWHt06IfNitBTkF5IFuNkVn86SUKlfcO6IikXq/BId7ekXmLTJmiFgCFQiYEShEgv7ZggYAi2EgL8kGhYD6gUqiQL5QHGxX4YNGyTTPn1f92zCxAOkoKAI0ylkDE4YymB9oH6hqAjuCIRUestxWfZdd6N+ge4IEgdrhoAhAG4+YsSI+t09hpYhYAgYAmFCoDpR4LCenJIo8+d9Ix9+OEX69e8nN990u7z88jOSnjFQ+vXrIbm5BVLqxVDusVckBwynpNjRV1xYrl+o/8DP9RlKaemg94DWJnRABIwodMCTbodsCLQ2BIIRhdS0ZJk7Z6Z8+ulnctRRR4AY5Mnnn/9Pbrr1Tpk1c7oMHz4Bg3mc5MEd4cIoA4/LsyQItA8+WCAKxU/9AtwabnrgsjV9ZzglCQNFj0EMGDWtZtMNgXaFgBGFdnU67WAMgbaJQFCikJokc+d+LVOmfiLHHnN0xYFt2bpN3nn7PTn77NN12rjx+2uRqMLC4oplAr8oMWA4JQkDIiRKSvwY9GldqL87goSB7gjTLwQia987CgJGFDrKmbbjNARaMQK1EYWpUz+VY445CgN8qYYxOovAsmXL5dlnn5dbb70RR5YoEyaOh9gRrga/P+iRcj3qFxhK6UOGx1K4JkLJ7shOXXVK0y8EhdgmtlMEjCi00xNrh2UItCUE6kMUWOshMjJS3QyeG4Cpnv0ya9ZseWDyI/LqK89Kr97DpGvXdMnLg36hdE/5lcofsTJJAt0RJAyh5l/gtumKMP1CW7rCbF8bg4ARhcagZ+saAoZAkyAQClFwG6QuwVkXcnJyVctwzXW3yQ8LvpZRo/aSyKhoyWc4ZZDm1nP6hRK1QiiNCLJ08EmWDjo4Lja1/SFgRKH9nVM7IkOgzSHQEKLgDpKWA5dZcfPmTHnjzbflgvPP0dkTGU4J7UJxEfQLnhnCraafnESLgsu/wCiKUN0RdEOwOqWlg64Crf1oRwgYUWhHJ9MOxRBoqwg0hijwmF3Ug7MULFmyVB599Am57767JSaut4wZ1V9ycvNrDaeka8PnY44G5l+otFbUF1PnjoiKCs0yUd/+bTlDoKUQMKLQUsjbdg0BQ6ACgcYSBdeR547gL0+/8OWXM+SWW++WTz95T4YMGSdJSYkIs8wPmnpJh3eYGBgVQbKg4ZSUOYQw7pOoxMd74ZTOyuH2zT4NgbaKgBGFtnrmbL8NgXaEQFMRBQdJoDti165see/9D+SUk/+N2RtlzNh91d3ACIlgJID1I8rwX0kJy1mjOiX0C56lgoxhT4Gk22bgp4VTBqJh39s6AkYU2voZtP03BNoBAk1NFBwkLlKCv9esWSsvv/KaXHE5CYMgnLKudNCefsHnh8ahkFEUTAdd/+yO3AZ1C/Hxpl8gFtbaLgJGFNruubM9NwTaDQLhIgoEqLp+Ye7c+fLwI4/L4489KN26DZbevbtBv8B00KXBLQxwJ5h+od1canYgDUDAiEIDQLNVDAFDoGkRCCdRcHsaGE5ZUFAon3/xhVx/w+0y6+vpMmLERCRTitX8C8GcC04kSf1CEbI7MkqCXgg33W2jtk9qFpzgkdEW1gyBtoKAEYW2cqZsPw2BdoxAcxAFB1+gO2Lbtu3yzjvvy5ln/kVnT5gwCUJGvxQynDJIU2IAguCFU+ZDx+DCKeuvX7By1kGAtUmtGgEjCq369NjOGQIdA4HmJApEtLo7YsWKlfL008/LLbdcj7lxMnHiXlpsyu8vCXoCSBhcOetiCB4r00HXnzBYOuig0NrEVoiAEYVWeFJslwyBjoZAcxMFh28gYaClYda3s2Xy5IflpRefkZ69hkn37hmSk4NwSmZlCtJIGLge00EzpDJUdwS7ZCpoSwcdBFyb1GoQMKLQak6F7Ygh0HERaCmi4BAP1C/kFxTItE8/k2uuvUXmzZ0pI0ftLdFRUapfgCjBrVLxqVMwvQS6haLyctahVqekfsERhoqO7Ysh0EoQMKLQSk6E7YYh0JERaGmi4LAP1C9s2bJV3nzrbTn3nLN1NsMpWcq6CPqFYCJGzx1RBv0ClynULJChEgYvHXQ0wiqj3C7ZpyHQ4ggYUWjxU2A7YAgYAq2FKPBMODeDIwNLly6TJ598Vu6661aJiOwhEyYM0uyO1C+4ZQLPIKeRcPjojkBKaFS2Ll8uNP0C60dYOuhAZO17SyFgRKGlkLftGgKGQAUCrYkouJ0KJAzFxT6ZMWOm3HX3/fLhB2/KoMFjJCUlxUsHDVJQ3SXh3BGlpV44JctZM0lDMGLhtlf9k+4ICh5JGIJ4PKovbr8NgbAhYEQhbNBax4aAIVBfBFojUXD7Hqhf2LFzF4jCx3LWuZdLQc4aGTNmH4z/kTWXs65IB436EUUFcEswHTSzO9bfuuDKWZM0GGFwZ8U+mxMBIwrNibZtyxAwBIIi0JqJAnfYC3qorCi5Zu06ee3V/8qll/5Tj4f6BWoXiqBhCDaa05JAwqHpoBlOicRNnnVBbQ9BMak+kboFFpwy/UJ1ZOx3uBEwohBuhK1/Q8AQqBOB1k4U3AEEuiNIHubNWyCPPf6UPPLwfZKQ1EdGDOsnuXleIibPauDW9D6dfoHhlD6Wsw4xuyN7iYsjYTD9QlVk7Vc4ETCiEE50rW9DwBCoFwJthSi4gwl0RxQWFsmXX34lt91xj3z26QcydNh46AoSJK+mctbl/gNmdVTC4CvXL7jO6/HpwimZEtrcEfUAzBZpFAJGFBoFn61sCBgCTYFAWyMK7pgDCUNW1g5559335fS/XojZ2TJu3H7iR6GpwgK6I9walZ/qjsDPElanhDvC0y9wwfrrFywddCWe9i18CBhRCB+21rMhYAjUE4G2ShR4eIHuCP5euXKVPP/CS3L9dVfjVwzSQe/jpYP2+WvXL8CyQAtDaQPqR1g6aCJvLVwIGFEIF7LWryFgCNQbgbZMFNxBBhKG0tIy+fa77+S++x6SV15+Vnr2HIp00F00nJI5FoL5Cyr1C0Wag8GzVjBCov6NroiEhGiha8KaIdBUCBhRaCokrR9DwBBoMALtgSi4gw90R+Tm5sm0adPl2utuk/nzZsiIkXshaiHGSwftVgj41OEdogOWs6Z1we/zhSx4NP1CAKD2tUkQMKLQJDBaJ4aAIdAYBNoTUXA4lCKkIbJcaZiZ6aWDPu9cLx30eJSz9sEVUVBQVB4m6dbyPr3QSZSzRmZHpoOuLGdddbnafpl+oTZ0bF4oCBhRCAUtW9YQMATCgkB7JAoEKtAdwd9LkA766aefkzvvuAW/kqFfGFsP/QLTQRdpdUq6LbyETeytfs30C/XDyZaqGQEjCjVjY3MMAUOgmRBor0TBwee5I/grQqMbvvnmW7n//ofk9ddflD59R0hGRie4IyBkpH6hWqt0R3jhlH6IHkPNv0ALhZd/wfQL1eC1n/VAwIhCPUCyRQwBQyC8CLR3ouDQIxGIjPQEirt358iUqZ/IlVfdLMuXzYF+YaJER8dIQX6hIA/THq2SMLB+BNJBa/6FyHILQ7A19uhCRY4sZ235F/bExqbUjIARhZqxsTmGgCHQTAh0FKLg4GRUhItM2Lhxk7zxxjvy97+fq7PHT9gfeRVABlCIKlij66EM//lRaKqouCAgnDLY0sGnmX4hOC42NTgCRhSC42JTDQFDoBkR6GhEgdBW1y8sXrxUnnrqWbn77tvgoeghEycMRDhlgZQEcUdwfU3YhHksZV3MdNAgH04Eyfn1aaZfqA9KtowRBbsGDAFDoMUR6IhEwYHu6Re8vAeMhJj59Tdy5133ygfvvSFDhoyTxKREzb/glg/8rHRHOP2CC6cMXKr276ZfqB0fmwtSOmLEiPo5twwtQ8AQMATChEBHJgoO0qr6hd3ywYcfyx//wOqUG5AOen+ESJYinLKQpgS3SsVnRHmOaH+JD24L5F/QctZ7LlexQpAvdIUwWRP1C9YMgUAEjCgEomHfDQFDoEUQMKJQCXsgYVi3br288MLLcuWVl+oCE1HOOh+5F4qhXwjmZlB3BEIi/Fo/gvkXGE4ZGmGIiYkEYYiBsDK0rJCVR2Df2hsCRhTa2xm14zEE2iACRhSqnrTq+oW5c+fJgw8+Jk8++bCkZwyUfv16qH6BdSGCWhhADkg4vPwLiKKwctZVAbZfISFgRCEkuGxhQ8AQCAcCDSEKZRgI/Xizjo6NkYjykMNw7FtL9hmoX2A5688//5/cdMudMuPLT2T48AlwE8RJbl5BjbtIawLTQReVp4Nm3KWXsKl+HmeuHx8fhX8sZx2aZaLGnbIZbQ4BIwpt7pTZDhsC7Q+BhhKFguwcHcBiEuIlOi62/QFTfkSB7oht27PknXfekzPPOAtzfTIB6aCLIYIshEuiJusCCYffD/0CCENJhX6BroX6EYaoKLojooVREtY6HgJGFDreObcjNgRaHQINJQqFu3MRFshshhESGR0lJAxRMe1TjFfdHfHjjyvk6Week9tuvRHH31km7jVSi035QRqqEwa1BcAiwD58DKcsKlLXRKhWAgunbHW3TrPskBGFZoHZNmIIGAK1IdAoouA54EWQR4BvyFGxsSAMcRIZ1T7ffgMJgx8aBaaDvueeB+TNN16W/gNGSedOaXBH5IMIBLcWkByofgGEgRoGLhcKYeCyJAxWzrq2K7p9zTOi0L7Opx2NIdAmEWgUUeCAiMEL/6tojxaGCIT6xcTHSTT+hTIItiXwSBjcseXk5MqUKZ/IP/91naxbu0BGjdpbokCU8pAOOljTcErgVVKKctYIp/Qhy6PXV/11CHRHsH4E/7n9CLYtm9b2ETCi0PbPoR2BIdDmEWgKouBAcIQBr8oSgcGsI+kXNm7cjHTQbyEd9HkKB8tZFxf5UBuieA93BBdwA7wP+oWiQlghYKEItTql6Rfcldd+P40otN9za0dmCLQZBJqKKHDg80zz3ts20xqzRcVESTT1C9EdQ7/ActbPPvO83H77zTj6bihnPUTdESX+msMpiRvTQfuq6BdoYQjuwiCugY35FxITY2DJsPwLgbi0h+9GFNrDWbRjMATaOAJNRRRK8WYcExuHoa0Mb8cQOTqXRDlhYGQEXRK0NLTHVkW/gOiGmV/PQu2I++Tdd16XAQNHS1pqiqaDrmnoJ9EqgVXBh+iIYrgj2JzVob54MZSS/1zRq/quZ8u1XgSMKLTec2N7Zgh0GAQaSxSoSeCAtmnVKogYo6Vr794gDDE66KlVAfO00a+PZUkYOop+ITt7t3yIdNDnX3SN7Ni6TMaM3RdGggjJz0f+BYdLwJXmbAjMv8BiU145a+Jb/3BKLx10jOoXArq2r20UASMKbfTE2W4bAu0JgcYSBQ54kbASbFyxQnZu2SoJKanSpWcPScvIUOuBmtxhZaCIT9+my0o1KoJkoT3nXwgUPK5du15efuVVufyyS/TSmYB00EWFxVII/UIwqwGncX2frxgWBlSxrEgHXX/CEAOXD60LdEtYa7sIGFFou+fO9twQaDcINA1RiJCNK1dJzo6dmqmxFP74pDQQhl699JMhETSr4zVaX6Qr9QsYyEAYIjtA/gUO/HPnzpfHHn9SHn1kssQl9JKRI/oj/0LNhaRIGEpL6Y4o1oRNHvmo/8DP9b38C1GmX2ijd6wRhTZ64my3DYH2hECTEYUVq2T3jh0SHROjb8MuCyEtCxk9e0p8YoLmEHD6BcUQ1gVwB6SC9twR7Tn/grMcFBYWypdfzkQ56/vkk6nvypCh4yRJy1kXlItBq15d6riB66GE1SmhXyBp8AhXuUun6uJBf3HbtC4wnNL0C0EharUTjSi02lNjO2YIdBwEwkUUODjRcsD0xdHRMdK5ezdJ79ZNYqBRoHWBb8fKEuiQwHKsGREd3771C0yw5AbqrKwd8t57H8pf/kJ3RKaMHbcvRKAiBagrEawp0QBmxJP1I0rwKRIZkn4hKoqEIUatDDg91toAAkYU2sBJsl00BNo7AuEiCg43DnDMRliC9MZxCJOkdSEtIx1pn6Mx2NEdUZUwUO8QjeyO0Si61B6bR5BAkcpH6pUrV8tLL70q11xzOQ43AuGUk7SctY/poIM0JWAkDNAvkDCUQvgYEcFMmBz5VQUSZK2qk6hfYHZHK2ddFZfW+MuIQms8K7ZPhkAHQyDcRMHByQGOlgSSg6SUFOnSu6ckd+qkYxv98BzoOHbSClEGlwTrRsQkJHSI+hG0NMz+7nu574GH5KUXn5YePYdI9+5doV+oOx20uiNAGoibIx8O87o+4+KiLR10XSC18HwjCi18AmzzhoAhINJcRIFYM/KBjeZzttT0DI2QiE9O0gJTXu0DkAW+GFO/gNYR6ke4AT43N0+mTZsu191wh8yb86WMHLkX3vqja0kHDYDKCVhRUQGsDB6urj8FsI4/dIVQu0CXRLmRo441bHZzImBEoTnRtm0ZAoZAUASakyi4HeBARhN8CQY2Zmzs3L27dO7WVb8rScCCal0AYego9SMC9QuZmVvlzTfflvPOO1sh89JBo5w1MjcGIwGKJ5akO6KynDWjI+rvjqAbwtMv1D+qQnfO/oQVASMKYYXXOjcEDIH6INASRMHtlw5wMJmzOFK3Pn2ke7++FWGUlcvQwgDGQNM6y1m34/wL1fULTAf99FPPyZ133gI4uqCc9TBkd4TlAJkfayQMwMpLBw39AmtuaLImh2bdn1bOum6MmnMJIwrNibZtyxAwBIIi0JJEgTvEAY9CR0ZFdO/fT4sjeW/CQXZXzQ0oZw39QnQ86ke04/wLnhvA03XMnPkNwinvlffe/a9oOmjkqMjNzfcIVDWY1LmDlan7KEZCp2IfskAiG2QwYlFt1So/LR10FTha7IcRhRaD3jZsCBgCDoEWJwowj1OzkN6jh1oUWEWxRqLgdrpcv+DSQXeE/AtMB/3RR1Pkgr9fLduRDnr0mH3UWpBfUzlrj2l4+RfgsvA1QL9QWc46Gtty4NtncyJgRKE50bZtGQKGQFAEWg9R6A6iUIdFofwIOGipcYGmddaPoDsC/0J9aw4KSCucSBdCJPJMsK1bt0FeefV1ufTfF+vvCShnXVTs98pZ65SqfxwmTAddDMEjI09CdUd4+oVozb9QtXf7FW4EjCiEG2Hr3xAwBOpEoC0ShSoHBcZA3z7zL8QkxmuWxyrz28mP6vqF+fMXypNPPiMPPPAf5KToKePGDpB8poNWi8yeB01ywLBTH8pZF2s569AJg+kX9sQ13FOMKIQbYevfEDAE6kSgzRMFd4Q0MZAwMP9CYhwiKGLcnHb1ScLgrARF0CDMmDFT7r33QWR5/K8MGjRGklOSkX+hhnTQ6j9w+gWWs/ayQIZSnZLb9sIprZx1c1xYRhSaA2XbhiFgCNSKQLshCu4onX6B9SOQ4bG96hcC3RG7dmbLRx9PkXP+ca1kb1mKdND7QRRaVns6aOBFbQjDKf0Qk2qOCyUSTGJRd2P+BVc/whGXuteyJUJFwIhCqIjZ8oaAIdDkCLQ3ohCoXxAMZjFIBc0aEqwl0d5adXcE9QsvvfxKRTnriXsdqO4IH8IpgzUO8OxD8y/AJcGsmaEO+tQvMB0000Jba3oEjCg0PabWoyFgCISIQHsjCu7wAwlDBPULHah+xLz5C+ShBx+Txx9/ULp0HSx9+3STHIRTMqlTsOYRhlJ1RdAd0ZB00NQvkDAwUsJa0yFgRKHpsLSeDAFDoIEItFei4OBQwqADJPQLyAIZg8JU7Tv/ghfHSP3C559/IdffeId8PeNTGTZsPFwF8ZIL/UJNjYShRPMvIJyygfoF545wVTJr2pZNrx8CRhTqh5MtZQgYAmFEoL0ThSrQUfCIFhUXoxkeO4J+geWs3333ffnrXy/Cke+U8eP3R+RDieoXgrkZqFUoi/DSaxchY6YXTknywX/BLRKYUaXRquAIQ5UZ9iNkBIwohAyZrWAIGAJNjUCHIgoOPAgeqVnQhE3QMDAXQ3tr1B7wn8u/sGrVann+hZfkumuvwqEmIR30eI2OYDnroIQhQL/glbMOPZySugUShpgYc0c09PoyotBQ5Gw9Q8AQaDIEOiJR8N6N8XaM/0kYPP1CbJNh2po6IllgIxlgpMS3382We+6ZLK+9+rz06z9K0junaTpozsNCe+y6W0/LWRejnDX6C0Ys9lixfAK7jI21ctY14VPXdCMKdSFk8w0BQyDsCHREouBA5SBG4R4ZQ0fSL+Tk5MrUqZ/Kv/59naxZNR/poPdFgEgkylkH1y94oZNwR5T4NVkTwyqJmk53YNbxWRlOaemg64CqymwjClXgsB+GgCHQEgh0ZKJQBe/yN++oWOgX2nH+hUCLwIYNm+RVpIP+17+oXxCZMOEApIMuRjpoXxVo3A9aEri+vwT5F6BfKC2BFSLERndEUlIMXCJ7Wi9C7KpDLG5EoUOcZjtIQ6B1I2BEwTs/al1Q4wJLM7fv+hGB7gge/YIFP8gTTz0rD9x3F351h35hsJazppAxWHOEwedn/QgShtD0C1FREZKcjOyZ+LRWOwJGFGrHx+YaAoZAMyBgRKEqyB5hAGPAmzOjIrTgVFz71S84vUExLAksZ3333Q/I++//VwYOGi2pKSleOeuqEFX84rpazhrZHX2qX6DMgcJFMq7gzZEMRkakpiIRFgG3ViMCRhRqhMZmGAKGQHMhYEQhONIcvhA3oISBeReikYOgI+RfcOWsz7/oGsliOuixSAcNHUdBQWFwsWM5fBX5F5Dh0SMLHoLB0HVkISEhRpM0BVvGpnkIGFGwK8EQMARaHAEjCvU4BeX6hWjkXyBhYKXK9tgC60dUTwc9YeIBIAuoPFnsC2oF8AZ/1o8okqLCAiUXdVkLqFNISYm1bI61XExGFGoBx2YZAoZA8yBgRCEEnEEYmHNB8y/EI/9COzSbB+oX+P37OXPl4Ycfl6eefATpoAdJnz7dJS+3QBMxAYA9wCMmjI4oyM+VUuIltbsiEhNjNNfCHh3ZBEXAiIJdCIaAIdDiCBhRCOEUqDUd7giY4iOjO45+IR9hk9OnfyE333KnfD3zMxk6dJwkJCbWWs6aZCE/Pw+uG0ZG7EkoHOqMgqBVwVpwBIwoBMfFphoChkAzImBEoYFgl7sjVL+AcMoo1JFoj41WBWc52bp1G4SOH8rpp1+OQ93s6Rcwny6J6o3rUOBYUJCD9WuuLMnIh9TU9mmdqY5JQ34bUWgIaraOIWAINCkCRhQaCWc5YfD0C3EaKdHIHlvd6oHuCO7cypWr5aWXXpFrrrlC95X6hTwUm2KZ6kB3BD0TtCqwjLUncNzz0Bj9QIuC5VXYExtOMaIQHBebaggYAs2IgBGFJgK7Sv0IhP0hNXR7a4GEgcLH2bPnyoMPPSrPPfu49Oo9HImUEkEW/BVkQa0KIAnUK9REFDxBo+VUqOlaMaJQEzI23RAwBJoNASMKTQO1yhcYTgn9QgTekrV+RGxcbe75ptlwC/QS6I7Iy8uXqZ9Mk+uvv0127Nwp8TjmEtaNQNNKlFIKa8NuLwoiiFbBiELtJ9CIQu342FxDwBBoBgSMKIQBZLgjOJhSv0DCEBUTE4aNtHyXgeGU9977gPzjHxfKuPGTNEmT2ztaFQoKcqFXYFjlnhEQRhQcUsE/jSgEx8WmGgKGQDMiYEQhTGDTxMCCUyQMyOzYXutHOOvCffc9KBdddH5QolBUmI/6EYVB3Q9GFGq//owo1I6PzTUEDIFmQMCIQvhAppiPWscymOKZfyEGuRei46Dwb4cFke655wG5+OLgFoWiIhCFQiMKDbnSjCg0BDVbxxAwBJoUASMKTQpn0M48wuBZFyhyjEmI16RNQRduoxPrIgqFIAosZV29mUWhOiJVfxtRqIqH/TIEDIEWQMCIQvOBroSh3B0RqfqF9lM/wohCeK4jIwrhwdV6NQQMgRAQMKIQAlhNuSh9EoiSiIqNUQsDK1W25WZEITxnz4hCeHC1Xg0BQyAEBIwohABWUy7qxVNW6BeoXaCGoa3qF4woNOXFUdmXEYVKLOybIWAItBACRhRaCPjyzTr9QpnWj4B+AdUpo2FlQIhAy+5YiFs3ohAiYPVc3IhCPYGyxQwBQyB8CBhRCB+2IfesIRIoONUG9QtGFEI+2/VawYhCvWCyhQwBQyCcCBhRCCe6Dey7DeoXjCg08FzXsZoRhToAstmGgCEQfgSMKIQf41C34LkjyvMv4IfmX0CGR1fFMdT+mmN5IwrhQdmIQnhwtV4NAUMgBASMKIQAVjMv6vQLVepHQPTYGpsRhfCcFSMK4cHVejUEDIEQEDCiEAJYLbRoBWGAS4L6hVgIHvnZmpoRhfCcDSMK4cHVejUEDIEQEDCiEAJYLb2oqx+BT0ZGMEKClSpbQzOiEJ6zYEQhPLhar4aAIRACAkYUQgCrNS0K6wI1C9Hxsa2ifoQRhfBcHEYUwoOr9WoIGAIhIGBEIQSwWtGi5fmaqHgUZnUkYWCVygj81xLNiEJ4UDeiEB5crVdDwBAIAQEjCiGA1QoX9QgD0kEzYVML5l8wohCei8OIQnhwtV4NAUMgBASMKIQAVmtfFNYFtqjYWNSPiFNLQ3PtshGF8CBtRCE8uFqvhoAhEAICRhRCAKu1L+r8ESAMnn4hrtn0C0YUwnNxGFEID67WqyFgCISAgBGFEMBqU4t67oiI6OapH2FEITwXhxGF8OBqvRoChkAICBhRCAGsNrMoS1hD1ggLA4tNieZfiNJy1lExKDgVhmZEIQygoksjCuHB1Xo1BAyBEBAwohACWG1k0cjICHCDMo8kgC2oRwK/wRjCpl8wohCei8OIQnhwtV4NAUMgBARKSqKlpJRJe8rfQvEtNTVJ5s79WqZO/VSOOeYoKS1FCF5kZWKfMvwu3J1bMRBFRkXIxhWrZPeOHRKNN1YOUvVtHMb8fp+k9+gu3fv1k9KSEqzKoc1aQxCgFcFf7MN5iJbIaJxbv1+7oWbB4wrh0S8YUWjI2ap7HSMKdWNkSxgChkATIcCBQodf/Cn/hoi6Min2kQBElQ/u3hwjCk0EerN3U6YEYfvGzUrauvfvJ4nJyUoQlIDx3CthKHdHRCL/AqIjopF/obHNiEJjEQy+vhGF4LjYVEPAEGgkAh4hwKDP10tYCkrpp66h+UujxOePlChd1nuXbxBRWAmLQpZZFGqAuZkmgyjAipCVuUU2rlyJNM+x0qlLF8mAtSYuIUEtQ6UlCKEkacSlofoFuiOYf6GR9SOMKITnFBtRCA+u1qsh0CERUIuBMgTk3glCDOIwGGSkJEvvjE6SgbfMLqnJ0q1zmixavk7ue2+OjBzYWYr8MEsDvdCJQqQOTDk7dkoUBipzPbTUJVhJFDLXrsO5iBK/j26IGHXtdO7WTWLwvQTuHSUJ5eQQP3SHG5N/wYhCeM65EYXw4Gq9GgIdBgGPHJQL16rpArqlpUj/rukyqEc3Gd6rh/RK7yQ9OqVKekqSxGIwJyGIxEDy4JufyGVPfihjR/aWvOKSBhGFKBQmWvfjctm1bbvEJyao3AFSunqdBzo7TKNQL6jqsVAlUdi8dq3ERCPCASeabgc/tArxiYnSpVdPSUtPRzGpKOgXqAfheapgmBIBIWQ0SlkzJXREgC6lro0bUagLoYbNN6LQMNxsLUOgQyPARzof5ny+U2PgWhoG6AHdusj4AX1kRJ+eMqRnN+kJi0EsBgS2yiW9NfjWT6LwwBtT5KqnP5ExI3pKvq9hRIH7U5iXJ9s2bJTc7GwVPtbXsmBEwTsfTfO3KlGgG8I1kkqSBZKG5E6dpGuvXpKUmqLXRYWAlBcXrymmgwb5i06Ir7d+wYiCQ7ppP40oNC2e1psh0K4RcK6FQLdCCvzK4wf2kb0HD5B9hvSXvl3SJb5anLyGyekA4L03sh/XaJq+/79T5MqnpzaKKLC/KBASqCGgU9gp2zduksKCfHVDMFqiNleEEQV3Npris2aiwN6JNS09fp9fNQqdunaVLj16SCxIJiNZGN2iS5GHgizwvKl+AYLHuvIvGFFoivO3Zx9GFPbExKYYAoZANQSce8F7iHszR/XtJYeMHCqHjBoK10JXFSI6i4ESAyxGOhBICqp1q0tEIWtfUxEFvonSskBLgr+4WHZs2aqiulKEPnKQcYNU9f0wolAdkcb8rp0ouJ55XZAIqH4hlvqFHtIZpCEa32ldUGJHQsmLiuQBX+NhfaAFqqZmRKEmZBo33YhC4/CztQ2Bdo0AB3q+jZfoW55IEvzGB4wYJD/Za6xMHIiwt4CQNrog6iYG1eHioN6ERMF1z32B2ToK+16YXyBZmzdLdlaWDjrqjtDlHK3R91fTKDjsGv1ZP6LgNkPCQAJaAgtDHPULiI5I7ZKh2gSNjsCCvK5ohYiDtoXnr6ZmRKEmZBo33YhC4/CztQ2BdosACYKzICTFx8lxE0bLL/efKMN6dddj5sO7pEHkIBCyJiAK2AdvKAnsl98xHf/zDZT7mpe9W7aDMOTt3q2DkLopdF0jCtWRa9zvSqKQCTFjbQN74HZIGChsLCstkaS0VAgee0lCef4FbzkjCoF4Ned3IwrNibZtyxBoAwhE0iSM/aTpNwY+/+P3GiO/P3g/GQL3AhvnUaPAFL2Nb40kCtk5up9UxpeP+UF2iXtM/QJCJjEIZSNz4/ZNmVKUD/0CMwdiXTaawC0zo0LRyD8kCjEgZZtk0+o1EgcNi7oR6tErXUD831dcpDkXBo4aBVLHRFxe6KRZFOoBYhgWMaIQBlCtS0OgLSLANzpnBub+7zd0oPz1qIPhYuhbQRw45JJINF1rOFHgPlCH4CsokjL4tFUZx33zeEGQXYQ7AvMjQX643s6t26Bh2KIEIQZJgZhmuHP3bpbCOQhyoU1itEKUFOTkyKZVa6SIglLoQ+oSlAZug6LGWFix+o8YYUQhEJgW+m5EoYWAt80aAq0FAR08MYA6HcJAhDf++fAD5KewJHCeEyY2LUFwR984osBeuH/+wiLxF4EwwNKBkUU5Q20Whggsw9A7WhW2b/JSDVOF37VPLyMK7tQ06pMWJ2hbQL52bt2qolKXdMldU7V1b0ShNnSaf54RhebH3LZoCLQaBAJ1CJ2SEuXXB+wlvzlwH+mM77QblDSZi6GmQ248UXA9c3ChdcFfVOxNonWh1sbBjPqFMsnD22/muvVak6DngP6aNVBt4LWubzNrR8AjC7zGCkHIsjIzJXv7DnUj0DXBVlNCLCUKEM72H2kWhdoxbp65RhSaB2fbiiHQqhBw1gFGKjAy4PiJY+RkWBEGdstQyz1FjHzAh781HVFw+1qKt1hfQaGq6DnYM1yyNusCl2EuB6ru6RuPVZ+6680+G4eA5weiK4K0jYSMFpyKhFiYHky/YEShcag39dpGFJoaUevPEGjFCFR3MzDE8dQjD5QDhg3SvYbmXCJova/zbbypDrLpiYLbM1oW6JLQjH88Hv6rSb8AJkFBJBcJTCbl+rLPxiJA4HGulRgwIRYFpUyIVaBRESSlgYTBiEJj8W7a9Y0oNC2e1psh0GoRoOXA6RCYVvmUIw6U/9tnPCIbEAaJ5zjNwM7S0JwHwciDB5CZ8YqnpgTNzDhlyidy7LFHa6hmqFYODj4+6hfwT80K0CZYa0EElJB5hEETYpULSqllYBglox54HRpRaMFzFGTTRhSCgGKTDIH2hIB7W+OgyUJMJ06aKCcfdoB0ReVGtvDrEGpHMyYuRp549zP5+0NvoyhUXxSFQmpfrJKWlixz5syU6Z//Tw4/7BDVDfBYGmLtKENZY19hIfQLPm9nms1iUvuxt/+5niVhj+MkYQBB5flU/QLyW9DKwEbCQCtQrGkU9oCtpSYYUWgp5G27hkCYEeCAyn8uadLBSLd8xtEHy0gUa+Lju/l0CDUfKMlLAnL4fzRjjpx4w+MybuRAyQVRYItH5cDFi2bLVVddJ+ed9zfpgYx9bI3Z71LoEIpBGPhJU3jt+gXdnP1pIAJ6/UEf4mVXrIEw0IoFQSntWUyERf1Cfk6u/maVyf4jhuMcWR6FBp6CJlvNiEKTQWkdGQKtAwE+oOlCcG6GocikeBrcDEePG6k72Pw6hOC40GpAMWU84uWXrNkge/3tfhkxrLP4kVuH05VEYN7ixbOl/4Bxcvfd18txxx4jyclJ2iHn81gb0qhfoOCRg5jTJqA7a02EAEt+5+zcpb2ldO6s57IUya5IzvZsHolguCotCbt37JRtGzeq+2HIuLFaipquCDZLuLQnes0xxYhCc6Bs2zAEmgmBQB1CF7gWfn/QvnIiQh6TYcZVKwLf4II+rJtpB4NshuZnHwaIKx59VR79eqmM7pEmBeWlpukWSU5OkNzcPFmzepGc+Ks/yD//eaFM2n8/COMqBXANIQwkGn6EU/rK8y8YYQhycho0ycvMuA1ixcw1ayWjZw/NeBmXkKDWILqBVDW6R98eYWAECq0+OSAMaaj5EMmMmpaZcQ+0mnOCEYXmRNu2ZQiECQGmU+bAx7fiGDxoKVL802GTpE96J48ghD0fQsMOzFkVEhLi5X9zF8uxl90iE0ePk+zCci1BebckBcnJiTJ3zo+Ysl0uu/xq+ctpp8iwYUN0CR47W0MIA99iNZyy2OkX6krYpJuyPzUiEFDrAUTBVfPs3L27VofULJgl/vLkWMEtDEyIxfVcUShvU1broUbIwzzDiEKYAbbu2w4CHGQCBxpv4PUGoKY6CvbvBrWm6FOjFNCn0yEcOGIIhIqTZK9B/bR7z83A42qKrYWvj0gMDKWRZXLXC+/JTa9Mk33GDpSsvOI99jsOwsdYlCGeP+8b3ZlHHnlCfnniz6V7N68ORWP0C5pHge4I6hcIWGsHLXyno5E9BxAFFIWKRvpmnhcWfIqHVYEWhrQMVIcE+eM0ZbdBsfYsDJU7Y0ShEovm/WZEoXnxtq21QgRo+mZzg23gLnJesOmBy9T3uyMJ3ts/n48NJyHsK1CHMKRHN6RdniTHjB8l0dznRrxh1/d4mmo5Z1UgAdixO08umfyivPLVEtlnTF/ZjSgFP2M3AxrHlMTEBClGcqRlS+fJfpOOlKuv/KccccThkoSMkmzENpD0Baxex1e4I7hN5l/gIIa3Wv5XdQ/q6KLDz64kCptJFBDFwMbzQWJArUJSWpp0RXXI5NQUofpAc114S+nf4H+MKATHJfxTjSiEH2PbQjgQ4OjSyKc3H1z854gAH2jdunXDIJQoRfBbr1+/Xve8NiJR30Pjdjh4xSPrXyH8r2xMPsNth0oYAnUI6RD2/WoS0y7vLUzBzEaS0BL5EHTjDfwDeIAFBoK4WNmyY5fc9vx78ujHn8igISMlGXkW8vCWX859KrZAHJKSEmTjxi2ybdsqOfmUMxAdcZbsu8/eGnbncCX2oTau69WPKEbBKQxl2Ba7qb4PofbbMZYPThR47B7pKtMaEHQvpHVJly49e0kciB/Jgncv1nS+jCi01PVjRKGlkLfttigCgZaC/v37ywknnCATJkyQAQMGSEpKivhQcnjWrFny5JNPytKlS3VfGzqwO5KQAXPrzTfdJPPmzZPnX3hB8vLytN/AfakNFA7+5EYcxKJBMk7Ye6z88dD9ZUDXDF2tpfMh1Lbv9ZnH4YEkh2QhD2Tq/a/myMVPTJGdKCU9anh3HWQK+JYf2LA8LRHxCLGcN/drnXP1NTfIqaf8SQYP9rJNkoBwkG8QYWD+BZBGrR9BlmAJmwLRr+F7zUTBreDuCT90IVE4fxnUL6Byp7opQBg8kledMBhRcPg196cRheZG3LbXOATw7IjEG2ZUjJcjvgSiN60YGEKvHPBL8DDi5xlnnCF//vOfpUuXLhU9BL6JZmdny0svvSQvvviiZGVl6TJu/YoV6vjiiMB5550nZ515hj4Ely5dJk8/84xMmTJF1+YybM66oT/K//ChGuhm2HfIADkV4Y78ZCvBAMZHakMGQu2gFf3hcZAs0LoTDVHm6s1b5I3Pv5Orn/1MELoh4/p2liKQBV81dwQZFPMxREdHyvz5s9BLgjz99GPy85+fIOnpnfUISRjo9mlIY+ZARkiUUPCI82H5F2pDsW6i4NbmNUtLgh/4JiQlqX4hNT1dK3uWME62SjOiUAWOZvxhRKEZwbZNNQ0CcZ2TJLFnmuRv2iVFu/JD6tQN8ul4GN18881y+OGH6/okDsuW/Yi32TgZNGigTuOgzeXZ1sLX+tRTT8lbb72l1gY+4PQhVx7frQsF+eNIwoABA+SZp5+Szogp5zRuj9aBr778Sh5/4nFZsGChrs3tOXcEhzRdtnwb/WCmZeGmn8KSoDoErkGSgH1pT42Ho9Fw+IyFeLEEb/WLVm+QZz/6Sh7+4EtJ7dtLBqbEI4MjTNV8y6/WGB3BGgI//jhfjjjyeLni8kvk0EMPhuUhVpckEWwoZiXMvxBQP4L9BNmFanvU0X7Wnyg4ZIgjyRjJXHJaqhKGpNRUJdWV+BpRcHg196cRheZG3LbXJAjoG131t8o6enaDNknC5MmTZeLEiTpg8yG1CRnh+vbtoz28/PKr8tOfHi+p5Q8qDupOkDV79mx58MEH5ZtvPNU9++TA46wQ1XfBbfOCC86XM2G94MC2C4lounTtyhdTKYZZu7i4WN5440157rnnJHPLFu3CERr+SAJ5+TU0CH84eD9JxyDIoZH9tDUdgh5YPf+Q+vA4iSsxpDsiHxEJMxcuk7tenyafL/hRhg7rJ/GYl4ecC1Ua1wHhSgFWy5avl/zc9XLe+f+Qs886XcaOHa2LuvPVEMLAdVW/UAj9AhkN3RFuh6vsSEf9UU4UNmeidPc6dSc4vGtDhPoFnnW/upfKJB3uiG59cE9iMiDXeZZwqTYEwzfPiEL4sLWeWxEC3psf/d9xcv/99+MN81BYBvxq3nbzNm7cJK+99l8k9LlIJk06TG6//SY54ID9JaY8vIsPOzeAv/POO/LEE0/I6tWr9SgDLQHusF2/1CY88/TTMmToYPniiy/lcFgxXnzxZTn+uGOlU+dOICt+fZsiSSBZePvtd6QAb8Rc/0hkUzwVVoThyK7IxmyLHDg7SnPjL91LTMQTGxstW3dmy0cz58nZD38sOImoD9FV61UUVjdV43zRihCfEFuhX7j7P/fJSb/5NUhhb4WQ55Q4N6RV1o8o9lY3/UI5jM6ikCkbVqzUst2OUNcHZ54PWheoVxg0ZrRlZqwPaGFexohCmAG27lsHAu7N/pJLLpG//vWvat53A271wWLRosWwODwkjzzyoJx77t/lnHPOkjFjRumB0LrA9fgwo2aBA/srr7wiu5Gnns0RicDvJ554olx7zdWaYe7zz79AJcTfYHa2HHP0T+Xfl/5TDjroACUwfl+x7tc8uCHefPUVmZQcIUeBKETEJUKHgFTDjRjUuD9tuXEsx+GrhYHiRZ6DFes3y8ufzpRbXp0mkpEu47unSqEP4sMg7qBE6Bfo0lm8+Hvph3TQt992lRx/PIgawvTYql8DoWBVikHNl18ozMOgZiLqIPQNOJRe2teyPF/UHuxkdcjMLbAS+EDKY8q1HXWDo9Ujkb67/4gRWMdqPbT01WFEoaXPgG0/7Ai4wfuoo46SBx54QAd5vrEvWbJMRowYrjH53AmSAC7LxqiHL7+cAevCZYhSmCV33XWP/O53J0mfPr11UHHLkjAsWbJEHn/8cZk6dWqFK4MDmVvmvvvulUMOPljdBXzD3bZtu7z77vty1lln6LYuvPAikJe/yOjRo7D9SA3N5KhYtmOb+JcvFN/mtRIFshARizTMNHVzxOyAzb330+1C3Fk0qhiD9Jylq+Xx9z6XFz//RjL69Zc+yfGSD/0CRZ6Bja6aJKSD3rUrW9auWSK//NXv5OKLLoD1iFYjL9a/MYRB60cgWqOMlg2SBWyvIxMGniPWbyjKz5ftcENkb6cYmJahynLSgecn8LuVmQ5Eo+W/G1Fo+XNgexBGBPiw4sOf5n++/Q8cOFB/T506TX7yk2Plggv+gUH6NBmH4jMuDXKgiJGDykcfTZE//vF3upcvvfQK3kSPgyixk76hclmnX/j888/VHfH9999XHNEYmE5JIpibgXHjHJD4EOT3FStXycvo75prr9LlSUZ+85tfqVaC+1wEEV8kktOUgij4l8yV0t07JSIhCaZYDGroA1SiYjsd6QsJA4+cGHEgiod+ITs3X76cv1TuhnVh5tJV0C/0lXiQvnxUoqyCEn5EI2ImKTFe5s5dhl52yCWXXCGnnXayjBo1QmFkv2y8dkJtXNfTLxTp/ql+IdRO2s3yHo7Ui1B/kJ/jVYfMQSQRSVsUazhUPTsVR25EoQKKVvHFiEKrOA22E+FCgG/2HMz/9a9/yemnn17xlp+VtUOmTZsOKwHdACK33HI7vv8WEQ8D9DfXYeP6bBs2bJJXX30N/fxD9tprEiwMt8mBB9JlEIv+KabD2xOWZTKlt99+W0kJ9QsMv/znxRfLYlgdXnnldWF9ggEDB2AQ8bQGFG7NmTMXAslHsc6T6CdFXnrxMTnuuGMkHeTGT/0C+pbCfPGvWir+FT/A3AGfOAkD/nPFcrBih2sVhAH6hWgQsBhESGRm7ZIPvvpezpsM/QJy/o0d2QUYeqSrOkC0SJC4uXTQkyc/jKJTv5BePXvqohz0G0IWuDJrFPhxLWj+BU7o0PoFEgYQA2hMSABYHXL75s1SiEJfnMYy09UJgxEFXjStpxlRaD3nwvakiRFwJGEE/JzPP/88igolK2ngw98NACQAFA9ecMG5uvWnn35OfvaznyKvgpfEiIQhcPkfflgiDz/8iDz00P3yt7+dj0yA56h+gYMKl+U2uXxmZqaShcMPP0z2228/+eSTadAmHKPbeOrJZ+QnPz1OukPVTZLBN6vc3FyhfuGKy6+VhT98Lz85/mfyj39cCP3CgZKI+HKa2MvQb1n2DvEvWyAlG1eCxeBNLSYefeIxi+13xObe+Xn8RICunQjkUli+PlNemPKl3PnaRyI9+siE9CQNp6zujuD6zO5YDFfT0iVzZPyEA+Tqqy+Vo486QtIQpsfWGMJA3QItDCXon4MlLg7ts0P+IfGCS4bXux947Ny2VfULPuSmoFXOy03hXcdGFFrXFWJEoXWdD9ubJkSAAzYf8rfccotQUOgGcm6iOgGgXoEk4c47b4HF4AC59dYb5JBDDkYSHw7E1C8wp4JnXSjGg23GjJkYyP+N5D7fyn+gpP/tb0+S3r176vbYt9M68I2fWgWuM3fOfLnnnvvljTdfkQnj95MbbrxGDjvsEElNSdZoBj5AMyH8eued90BCztTtnnvO+XL6GX+R8XCNsE+6I3BUUrJlk/iWzoeOYTPKRcZhcIzhiKbb1xU74B8OwapfwGcczlsxcP9u8QqZ/Nan8vaM2dJv8GDpBCFk3h7uCC+cMhmEIXPLdsncvFx+9es/yN//fp4cUKFfILYc5xs20JcgBFbzLzD0T/toWD/t4rSSMOBe0us5v0CyYF3YBd1OGSDhNGJMIWQsIpT6jzQxY2s450YUWsNZsH1ocgScNWHkyJHyAtIlUyOQnb1bZs/+Xvbdd2/NkcCNBhIAZoebNes7kIQ75YMP3oLY8BxEPPxNxo8fqw8vfWvFQ459s1G/8P77H8jJJ/9Jf7/++htyzDFH65solw0kDLoA/uzGPkyH5eCyy65Faui5cuqppyOy4mykjx6voZpcjvqFH39cLi++9LLceMN1nCR33nG3nPTbX0v//v2UePj54gUlecmGVSp4LMtF1EVcAt7KsG8gKt57ma7aof5w+OWx842UvnGmdt6ZkyfTZi+Ua56fKivXb5NRI3oigiRCqqeD5jmjK8LTLzBt90659LKr5LRTT4bodZjiyGXYGkIYuK4fuRf8yJ2h2UQbSDp0B9rAHx6eBxcxq06MMA3/q34BC+btzpbtyGWSh+ghTuNMJQoW9dAqzrQRhVZxGsK7E4EPNfegC+8WW753RxSuvPJK+dOf/qRv2lOmfIpESsfJmWeeAxJwpuy994QKAsCMcM5ikAvf6SeffCq/+tUv9UBuv/0u+f3vfyf9+nkJmUgA2BxhWLduA9wMz8NkfYUcfPARsGDciPwLk3Tgd3jrWxIHr3KSsQWuiXcQ+XD22Z7l4MYbb4Zg8vcQWw5QIsA3K1ba+x76hQceeAh5F57FFjOgc3hY9QudOnUSH4hCKZ/G+XmefmH1YjIfREckYNkObl0ALsSeA3IMci8wJn8DrAVv/e87ueTxT6DxiJHxA5EOGuGURTgvgcMY14tHaB5zNjj9wqOPPqHXQ6BLyp1LgB1S8/IvoH4ErAzKangO21njITEXgkY44JqnhWBPssCD9kiE6hewTDb0CztwbxTAFRePImcDRo5S8uu0OJZwqWUuFCMKLYN7s2zVEQQ3WHGjnMZbs5zq81u7a44k9IQojXUaevTooW/3TKjEqIXLLrtEj/nmm2+XP/zhtzo4c0J1ArAZIV1MwHQRQujYmCTppz/9iXTq5MXe0xrBSAmH87x5C+CGuBd6iKc1moKWAoZfslWeA+APXYL31iSwHPyIZEzPy6233aTLPf/Ci9AnHIcojXTNf0/fLYnLtGnT5cIL/y3r1i2FG+W3cHtcIPvvty/euhAiCD84zbZlu7LEB/1C6abVlPZDvxCn57ly27qJDvWHA5ZGlOKqj4PbgTqPJavXyzMffyWT350usb17y6i0xKD6BQJF/QJDZalfOOTQY+WqKy9RdxETd7ERW3f+dUIIf0px3nwQPGr+BVIV7my7aF7CJQoWc2FB69GvL4xdiXp/eQN+kOMkjriXKGykfmHH9mC22gAAQABJREFUlkzJhcWu3/BhSjbcvWlEoWUuECMKLYN7eLeqzxwOSEoJJKlHmqT0z5BdK7ZKYVaubrshKZDDu9NN17sjCqeccopcfvnl+obOh7l7A5w3b77wDfGRRybrRp944mkIGE+AuLCr/iYB4DPbLb9kyVKEOD4FfcGdcFscBNfEjbAcHKQRD1zB5Uvgd6Zj/t//ZiDC4nwM6ovlvvsmy0kn/Vp69uzB2WjeGxQHGOea8CGK4btvv9dcDW+9/TqyRh4tV111mSZiSkT5Xe/NLEY248H75ptvy/nne8LLf//7cnV7jBo5XAerYuw3R8XSzA3QL8yTsp3b4Y6I9zLbYXsdtblhqSL/AshVITQj3yz6Ue594zP5ePZiGTS0rySDlO2hXwBoJIOsH7Fq9WbZvWsNrEDnQUNyFtxF4xRSR8QaShiq14/Qi69Nny6XmXELMjOuAElIkM4o3965W1dYdxgl5EqruzMTcGWSMEC/wPDJYpAoZ5HwLl+r9RCAVLN+NaLQrHCHf2OBBCAmKU4yxvaRziN7otoilMbwj2b9sFF2LNooJUXIIofGh5t70IV/78K/BXc8fON75plntHQ0H0xu0HffC6FE/9//vpTbbrtbpk//GDUA9pObbrpGjjzycAwKSbqjJABcj30yjHHWrG9RSOo25FV4VweLc8/9G/IvjNFlAwd+TtiJeg7vvvuenIZwSDaGRh511OFapZLLBhtU8mBu/XjKVPnDSeeKr2wLXCR/0wGJQkbN8aA94Y148RJUnnxO7r77Dp3yn7vv9fIv4M2NURQ8s2V8U137o/jX/ChlxUXl5ts2PfrosTbmD4clIkD86WZihETWrt0yZdY8ueiZqQjby5PRI5AqGwtV1y9gJSwfoxUq5879WnfjllvugEXqdzJgQD/9TfcVLpWg51YXqOUP90nzL6DoFF0TOOHaFya3wVZJFDLXrlOBIjMzxsUnaLGnNEQU0XLA+8s7I9UJg3fQvPeISyUGRhRa6mIwotBSyDfxdt0AyW4ZHtZ5eA/pMravxKZS4AYVMQY6JqfBXCnIypHt89dL9sqtanVwgxZvyrbe1LePB9CkSZPksccegzgtBvUY1si3385GgqXjIGJM0YePO2bmU2BCpZNPPg2HXgw9w2ka8kjBI8scExP35k9sdu/ORQbGT2Al+BV/IkriP5qx0RWU4rJsjphw208//azceON1KpTcb799dD7/FEBbkAMRF60QRUWFcGl0loyu3WXjxo0oEvUWVPeey4PkRF0kA6BfYDglHqCFEMR98/Usue/+hxDe+brExfSWZ5+/B2LKoyQZvl0daOB+KJo1XQWPEXhIU+BnjXdAJWGIweAfjfti1cZMefWzWXL9C9NFOifL+J6pKGddisiJPTFjOmjeUwsXfAuc+8lzz96qIbWdoRth4zXjri+dEMIfniMfyll7+RdwP7bJ/AuVRGEzqq7yHmSjToHkICklRbr07oUqkWlK3Dz9ApcIRhgCpxlRIEot0YwotATqTbhN90Byg3zqgC7SZXxfSUTee6rn+eApwCBEMReLDzFHWlx8vIaR5azLkm1z10l+ZrbukVojSBbaMF/gAM3B+rLLLhO6HojLCy+8guiCP2GwPQVm+3OQ12DfChLg8FuLNx/qEf79738qFldeeS3W/5MMGzZUf1cnABs2bISV4DVk9btY57/88mua6TGtvHZAoH6BxacYIdG1q5ebIScnWzauWyM7srbB/80Mfhxc0A3cBqPG7iXde/ZWy8DSpT/K0089K3fdfbtu4/nnoV/4yfGqXyjBGxrNsrRcfPrpZ3LR3y+VTZtXyp///Fd5+KF7JCE5RYo2rhHfrGlILoAQT92AdmN/gIAbfuiO4Kt7PAiDH9fN/OVr5EmUsn76k6+kU9++0j8lIWg6aF43yUgHnYuMkCtXLJBjj/+FXPbvi+GSOkAHRrwH633krq9QQWf9iOLy+hHaB4hJ27kvqxIFl7kUah6FgdYFtjQkFOvSq6fEIyKJxc48IuvOjC5S7Y8RhWqANNtPIwrNBnXTbyjQzRCfkSxdJ/aT1EEsX8xbMkJrBhSX+GRI/0EybvRYyUEI3fcL5knWjh2SBL8hB5oSxJTv+jFTtsHC4Msp1J0M7Lfp9zp8PfK4SQwYEfDiiy8iy+IgJQ07oKR+//0P5S9/OUU3ftVV18KCcLIMHTqoYme8dQVpfefBEvEkNAyefoHahP/7v59V6BccIdOHN9aeP38hsio+DA3Dw3At/ESuvPLSioyN7JwEw1kX+Hv92lWyZtWP+nYVHRNbMY/90bKQjAF+/F776bhOJTinMWTzzjv+I+9/8DYsBj+F7uISjaqgMl/1ETDjboAV4hnkgWAo589+/jOvfPXMT6V0RyaKSpk1gdgHaxyWlKPhuuF5ikN2xxwM0Cxnfe+bn8n0eUtl8ND+kogolHyUs+ayFQ3r8B4iYVi8eJ0UFW6Qiy++FPqU05okHTS3Q8sCMzwy0yMJTSXF4dzW2oITBbe37j6laJEvMCwnTf1CNPULsDh491gwwmBEwWHY3J9GFJob8SbYXuBAHp0YqzqEdOoQ8FZEXzZV2vnFhdKjS3eZOGac9OnVR8lDJCwMeUgFvHzFclmwdBEebIWIGYeZmqQiF4lPQBZ2Lt0MNwUfSvy/bekXnNvhmGOOgYjwPj1mPnTcoL5q1WqNXLjmmiv1LHz//RwkV5qoDya3HJctKCiEfuErhDnegc9PZJ99Doa48FLUeDhGqzxyZbc8vxfBDfDVVzMwgF8j3303A66LvyN181+hexit/lkuQ8KwYtli2bBuFWL74Q6itYfDTsDIw23TUhCb2EnGjR+PED0kDQJRiEUxqF27dslUhHf+7vcnsTuNqjgDiZhGjxqp5xwd6jb4VlaGwcu/frUUfzNNIhKTzOWgiNX8xw1JjjBEgxTQJbFN9Qvz5YzHpogg8mTsyO4gZmVSWM0dwWuB9SZIMubN+0Y39OCDj2g4ZY8e0DygVSeMOrGef9i/Vz8C+gWGcLR6d0TtRMEdNq934kKxLgWPGYhSSkO0DwkbLXLezeHODtcyouCwa+5PIwrNjXgjtucGPDdIdaIOYQJCj1SHAJM7dAgkCClI+Ttu5BgZPGAwWHqMFGBaBJ6CKC8kiTEJ8MlGyc7sXbJo6RJZtnKZuiM4eNEMSzfE1jlrJXf9Dt1Tzx2Br5jX2hvxITY33XST/PrXv9a37XxkfktB5kPXKDj79tvvYDF4Sq677kokMKIAMPCtn8fpPZyoX/jgg4/gtvgz0jTvLzPxhs6+HP7sM3DdHTt2yccfT4HO4fcwQR8L7cObFcLI5csWybo1KxBulwKc8RDcA06P0MTCynDHXfdLetee8vcLz5Xhw4fr8txODOatX7deXnn19QoXCS0NJ/32V9Kvbx8liHqcGEioTSjdsl5Mm6CI1PsPzzxPjcu/QPK5atMWlLP+Wm56aaqWs54Atx6tC/7yqKLAzpmsiYm7liCccuy4SUiYdaUcffSROO8k5FWvl8D16vPd0y+wfoRnuic5bJ2tfkTB7bsSZFoSqF9ITZUMuCOSNH02MzSSMLhmRMEh0dyfRhSaG/GGbA8PBD4TXLhjcu/O0nUvmEN7piGMiMpg1AwqKtDY/FFDh8vIoSMwoKVITmGexEZGy94ZIyQtLkUW7lghmwu2S0wEEtBA6MbxMBPxyvMXLZR1m9ZLIkLpOBhxUMpetVW2fr9Winbm6R4HWjEacgjhXsdpE1g/gXUd+sK/vH79BrzV/QnWgH9pnQWXjpn7woc5fadu0KfocM2atQhNPEQV8YEEYDGiDGgBGIkwRLd84PFwGpsjcsuXr9Q+Bg0aqNM3bVgjSxfNRx0nkIwgg4suhD/sh+6E775fIOec5wkZ77/vAZCeE6VX794gAsUqZOTF8MPCRXCRPCEPPvSArv7WW2/LTyHWZP6E0h1bpehL1DjQc8wLZw9W4jZpn0EQAGJ6b5BUsrHwlx8D1vzlq+XRdz+XF6Z/L70G9JauCbGSB/1J9VPK6yAF4ZRbtmXJ5o0/ym9/92fk4jgfeS/2U+tP9etFNxLCH+oXKHj08i9gV2FFbF2nuJIoZELMSPdMfRotmNRRsaWmZ8DC0B3ymviAYzOiUB8cw7GMEYVwoNqEfQYO0LFpCdJ1Qj/pNKyHPhx4Y6li3l8sg/sNkLGjxknXjC4I7cJbBx4mI9L6y+iMwZIc473NcLfmb/9RFuxcoQSCv2OikbAH5u7Va1fLvB/mSzZSqNIiwYHXV4jEJ4s3StbCjeIvQBY5tMD90Qmt5I9zOxx//PFIevQfHbQ3ISUs3QCMCjjppD+q8HCfffaqGNADB/0777wHb+kXw31wNSwIJ+NNvlLESCzq04INADkorTtv9gzgGV0+SNTWE0zMPG+jxkvm1ix54P7J8sSTj2GFNERBPKMRDSSAxQh3ZGhffn6+fPPNLGgj/oD9PktuuvFa8WOQKkZRqRKkh45IJDEJfCOrbdtta54O5uW7XJ0G1TavIUfJ88prgAmbciBenD53kdyIctYLV2yU4cN6SwwGaloYqjSsw4qWXjroHzArRy6/4hrVyQwdMlgXDXa9VOmjjh/UL/jgJuNbN+9Lz6JWx0rNMtsjCkzJzKiHWLyAuMyKdW2ezzSeTz+u8QSEKQ9ACnYcXMX6lnCpLgTDM9+IQnhwbXSv3k3vPQKj4qIlfXRvyRjTW6JRGlcHceoQCguUGEwcM1769emL+PlSuB4KpG9iNxmfMUy6JaZX7AdFjSuzN8jybEQ5lMIVId7g5x6CfLvenZsjS5ctlUU/LtFYbtZHwIJStCtfts1bC9HjFu+NGNP0hm5FrzEOr0C3A8lDTk4uogKmwbJwGrDYJddeeyOEjH+UwYM9IaOzHKxaRf3CK3LNNVcoZiz7/CuUHKaPOdQHuluenwvnfSe7dmZp3vrarAneiUKxJxCF0eP3Ronpbtj33dA+zJSboZWY8dV05Er4PTIy/l1rVTB0k1oUEgZmnCyGTqL/gAEYOPKlaMYUYe2HCFiH6vuA9rbf+v86EuDIgfvknnNe9d/BpnNaKM31y/NJ3GPwb+PWHfIeyllf9BjSQUdFyLhhXcSHAZv6BbePbhu0SMQhHbTTLzz22FPyy1/+H6JguugitFxQW9SQxn2ifoEWBn5nrQ+1PgYC0ZCOG7UO81RES86unUi4tFJdonSBunu07q5BFhAGHAPcSBQiINZ117ERhbrRC8cSRhTCgWoj+uTNxMabnnd8pyHdNNwxPj1ZHyZUuecXFKjQjTqE4UOG44aKkd2FudIlNlUJQt+UHuqS0H7w6NyQs1XdDluKdkhcZAyeayy6Eti8pCbULvDNZNv2bbJg8Q+yet1aiQOBYDgl9ydnI+rII5wyF59sVfY1sLtm/k7ixAGfqZqfeeYZ6A76V9EOcHdoXWBuggsvPE/37sknmY3xZ9Ktm/ew5kRiO3v2HI1iYBrmPn1GyuTJd8gJJxyvbgouow/j8nPE38GaW2Yz3DlLf5gH8WKidz6DLVw+jV1SwEUz7ZhxeyuxiMObGBtLVn8IrcTpEEiyXXklozb+iLfZoTjO8jdZnB8/hqiSrRuleOZUL9KB11A7arwzeET8h+FQtTXU3nA68eP0wGX4m+TZTec8Nv5uSKvoGx1w4Od5XrZukzw/Zabc8/Z0kZ49ZELnJFgXUFq6uj8CG/TSQRcjHfRcOeDAozQd9OGHH4qCZazNQf1CwwkDowXUHQHxqza8hSsmDT1Yr5dG/SX5KQaJ2b55k2Rvz9K+nMuT2NXWaAmLhRuuvxWFqg2mZptnRKHZoK5jQ3gKKeMuf8AwD0IXuBlSkXqZ/nE8laSA2fbw4Bs+eCgU2KMlLbWT5BTlSmwECtx0HipDOveTuChoD8rbjsLdsgi6hNV5m/FghekU83iDVr1F3S9PCMh9iMHbgA++wg2bNqh+IRN14xlOSaEdCxXtWp6pCZtoaWBTdwRvfNdV+fab68O5HY499liNduAxvvXWOxomedhhh6pegPvCXfzhh0UIZXwShZbugUBxX2RmvEFz97tsjFyOVojPP/9Cfo4ww+OP/znKPr+ub+7sN5Acue9cp3qje2De7JmIiCiu0EJUXybwN/tifHki3AVjYFEgYaClIBXirs6dO+uiS5FKmlaPm26+Xn8/8sjj8otf/B+yPaIuBKwLkYiOKJ4/S0pWLGxXboeKARpHzTwg0Shs4YMgNKfML6huIbsiQJ7xGzEBmI96TyDCncuipJvESCcQY2KL8lmKGf+4/iomhPDFravXAgbCOFh0CnGOv128XO5HOOUH3y2QAYMHSCreoEkYqvMFklqGU27YuFW2b10pfz39XGTfPF323muCWgrZL1tt11Ztu0vdgroj8IlOvH+1rRDWeSA+fPnANnLh0swCWc9F9A6nqW4Bx1rTI0OJArKrWpnpsJ6genduRKHeUIVvwUC/f0xyvGSM6yPpiGiIxFuLp0MokgII2fojzHE88iH06N7DG/ARqjUouZcM7dwfDyYv7TD3Ms9fIMt2rpVl2WvFV+qT+CgUsMFDgw8hvTX17uQfz6/pjixwPh9osYhxLkSyppWrV8n8xQskDyFiSeX6heK8IsmCfmHn4s2V+oXybbj+muuTD1Xu+4033gjz/G+0iNJJJ/0ZEQhvQ8h4Hd6+mThpSMXuFIJwfY2shrfddieyLH6AypAnI9zwXJj094GYs1J4RXEjNSBMusT+uR3mZEiDIpvkhNPYqjzUOQ3LrVu9Eol4FnvWhOqjRcWeVH5hHyQXXbv1lGGwFPHcnHvOhRhQNsgNN1xbXoY6Wl0M3333PUSMD8vLL7+A5SJlAXJjjB07VgrhOiqe8bGU5eW2G7eDG5iJFJxuUgALyvKyfFkYiesyyo9C0LCkkEdzgfIGKCUKvCC9NELGlsbKfmWJ0jsCScYw3Ycl2Sf/sQWu502p31+uz3V5DfBaiIVVL2tXjnzy7QK54qkpsmlHtoxGyDIXKqyefwHrxeI6i4cb0bkjrr/+Zk0HPXRo0+kX6JJgJBTMi3qNll+u9TvAJluKKMH6g+yXdL3t3gmr5KZNUpCXpwSapMHdR4GbNKIQiEbLfzei0ILnwA1w3IVIpl0e0UtzIsSmxKubwY+3glzkPejSOV0mjB0v/fv0g38UGeQwvaikWNJik+WwXntXkIRiWAFWQYewaNdKyfHlK0Fgul+GPbqbkQ+1KPj8aBb0VN3l8/B0ZSEW7hPN+DTD+/HP88nGQOSYLYuXLZFFy5cwzrLcXBohhTtyZfuCDZK9YktFKFPgcYUbXretrl27otTzc+p24LFu3rwFVoW3lQBwH1gE6he/+HlF4iROY1bDqVM/1RLSMPzKpZdeKazNMGLEMM6uaOyP2+HyJ598uhx++EHIgPgn1S9wITffrcB0zHO/+xoWAkQp6IPQzan5k/1zvQGDhknf/gM18cxHH02VX/zy57rSDTfeJH/8wx8qtBXZ2dny2bTpEGBeh2RSr8hwmGjzN4IYwu0AdqLhsEoKa95kq5/jBmN+0oqwsjRfpkTlypJopCPH4JOIf9EYh8AT9mgcnnxYMSeiVFJBGo7wxcv+kiKdYH3zwV/B1Ensl//YuHyoLXBdXgNMVRyF+3jN5q3yX6SDvvo5nAtEuozr3wmC4bKg6aATmA4aHf2w8DtsPl2efPI/aslqknLW2CfWdyFhUFEr7vnKIw71aBu7vHcP8X6g9Wvn1m1wSWTie7HiRm0FMXTNiIJDonV8GlFogfPAQYHN3RiVaZfTPOaPgToPojT66CaMHCtDBw+BejoJ4jW/5vrn6rQ0lJR5WczGdBosneJTZWHWCtlSmKUEge4D9s9bj5/UH/AmLcJbKyMbdu3eJXl5EL4hxwJJAckDfeLJsBgwZ31qSqq6GnwQ13E+3Q7c7lbVLyyUVevWQL8Qq+F8JCK5G3bAHbFBP3lsOoDzS8DNz59N3Zw+ITDagcfrMF6yZJk8xTTId90qAweOkvvvvwsD/aEV+Q24Pxs2bEJkxDsVpOLhhx9VUuEqPqp2AG9EmZlbEeZ2ibz66nPSr98IuDluR8TBkRV5Gtx2N6xdLct/XARskBExhONn+OPI0RMgZOyqb2AUcTFV9Bv/fVMu+seFCh3rRpxwwk8ghPMqXW7DAzc1FfoVuh0WzRY//N/tLdohBiRhVulueSGWbjaY7llTG43qg8qhRSdV+cOlaPgmMaDloV9JpBxVkiBjI5IlEe6JYvRAhwSX47/a+sLsWhvX13TQ6CkOlgKmJF64Yq0889FX8thHM1DOuoeMTE2UfLzhl1SzMPFapX6BUSwrli+QQw87Tq64/J9wiR2q9xc37K6tWneihpmMimB2x+bPv0BEiUxg8yJIWHemCBkwWYp617ZtugDdEXyu8awaUQjErOW/G1Fo5nMQ6GZI6IriKNQhDOyiAxtvKZrF/SAAw/FmOQY6BFoTfHi4UDPgCELgLpdi2SJENPCWjMZDND46Th8q7qHHBwwHeboQVq9dJSvWrJIdUCMr6UCfmmMd/l0+rCLx8GT0A6vkdUnvIkMGDJL+ffurH7YIJnhaIWJBDliYaO2GdapfIHFw6aCZ0XEXLAvM8FjYTPkXlJDgGK+//nr57W9/q26HAog9naKcWBWjpDCTLN1++114+35L/vjHUzHgX4CsjBOUPDk8WU76qaeeU1IRFdUT4sdHlQgE6hdy4X6ZPv0LWB+u1qQ6v/nNHzT5EYtIsVFnQGtCISxBFG7VhyjwvPI88CFJfUIaikMtWrRYz9tQuD3YFiJvwpNPPIUiUP9Bmub9UOr6BuR8OAgDTLK6LLAhKZr5ieZQiEBtB6cS15Xb6B9ew3jflqWwJNwXs0vScX1GYSKtAaE03le0QBSCMOzGumP9UXJ0SbIMiUzANY8wYKULlUNaaL1X7gm3w3VpYudAyGiHPLzNf4100Pe/NV2mfr9YBg7pJykQB3N6lWsD549EnuWsV6zegIiBdXLW2RfA/XSmpuXmVtzyjgRzWiitMv8CEzZhb3nhhbG5SA5aKCvR5QY9hHm83Ic8vLhshx4nN3u36jSYupzizFjTKITx7ITWtRGF0PBq8NJuQGMHFeWfRzDtshdf78NgxqyKvaDcnzh6vPTu2QdLwlwJMx1bTQ8H3uoVfeOmcw8TrsPv1Bls37Fdvvp2JhLAbEVSJU9hTeKRjEEmFbUFOKBxgMuGjzsX/u1Yih7xH4tJ9ezWQw7ab5Kkd87QcDzuE0vEst8ChGeuWLUS6aB/gHUC+oWEJN0XX36RlrLOCnM5a3fcGRkZ6nZgbYd33nlfQ88+/XS6HHTQARVvZMRjNx5IU6dOq6j8eO21NyCL4h9R88HzC3MZkgqWk2Zehffee0NDEi+++CLVL9AN41pm5haUkX4f5abP0FTPrL/AtnXrZlk0//uQrAk8Dk1jiwFkzIR9UMo4SS6/7Cq57fab5XUUqjr6mCO1siSvka9mzKzQVpx6yunY9vXSo3dvKdq+RYq/QpIlDHzVzbhun9vaJ11hfPt+KmKbLI8ulWSIDEoY5tDARhcFyVgO+vDj3jjYHyuHliVLz0jUzMCNxGl6P2G5hm+F9yPvPfzDvnPQiwVh2I500FO/nS//uP9dyS5eCyHtPnDx8cWgyFuh/Jh4z5JgJMAq4cpZ33nXvfL73/0GUTi9danGREewgxJcRyp4LNcvEJWmbnwhKoLFksfP9My0Smp4MMGpaEQZ+gUsQwvC7ixYJWFhKALR5z3B9fqPGI7rmToGkg0Qx5QkLF+pI9KJAX/uuecB1Nu4ECnQJ2nBLjeL/RUV5euLGMlh9UZSk5ISB7IWuH/Vl+q4v40ohPncu8GMm+HN0xnkgNUdY1GVjhcnowjykVUxFYl0xsHNMHjgILzBx8El4OV114iHBuyjIwl0MXwwbYqGKdF9wfLEqUhDzG117dJF3Q0UGvFGZs0Ckon5ixZoCCb3g8QhEelnjz/iWHVH+GnZwP7wQajuDNzku+AvX7p8mSxesVQi4ItNwA3ORwDLWbM6JctZsxELtkAyoxMa+Me5HY444gi4FO5XawjrN5x22t8Q3fCdnHnmuXLOOWdBCDiuYtvcFF0Nr732uvzznxfplh9++DGQi59XaA44MRtvN1OmfIIS0r/RZS677EpNxDQCD67AtmDBDxp10KtXLz2uRQu+l6ztW2GV8Sw7gcvW9J24+HC+OyEb3XCcFz4IGZ1BsvLSS88h8uIEVMO8BMTnQCV1rPvwAYpcXXj+1TJn3jTNn5C3fJH4537VrtwOUcAlp9Qvk6OyJA+D+56P95oQrX06rQtsOyPLJAXjzzHQL+wjyZIG/UIxtkOXRmOHC10ffxxhIFmIhPVvHdwe/523Uq68glVKY3Ft7oXaIsX6QuDuD905rMiwSe7Noh9mS68+Y+Seu6+V444/FtFOqeWLVLrYdEIIf3gPegWnyvULJJjl+xtCNzUsynwTqJWxcaMO/D36w2qazhoOUfqcASpYLwBh7AufjRX6hW3bVfDI+3vw2DESAcuDaiywlhGFGiAP82QjCmEC2N30blBM7puuWRUr0i6DQReAIHBQGD1spAxH6mW+3TMzH0373voBN1PI+wlxFdwEM2EGZwKlTilpyqZZq+CoQ46QTmmd1P3g1R3wHjjcprNAfPrFdHVXULdAsjFmxGiZtPf+EDgyxap3o7tji8Ex8EbfsnWLLFiE/Asb1ko83B1cl/3nrM3S+hEFW3frUXA76l1mN41ojihcfvnlWlLapWWm6PCDDz7UaAd2f9ttd6hgsT8eWIGN5nymQZ48+V7kUxiGsMm75YgjDq/QHHBZagRYfrqSVDwKUuElYgrsi9/zYJGZi5BIkjt3/qsvE+w3ly2CdaYX3DzDRoxVsRffslin4osvvpQLUUKapYz/9a9LkdnvVFQmRLY6tC3Ir8Cy1lEI0Sua85WUrFkmEbBGuIdqsG21pWm0KLD08+MR22U1LAopsCj4G2FRqH7s1C/4cYvtwmA8EPqFY/yJMjIySeLK9QtuOONd2NBL1d3BmoYJFsOE3gMkcuyBMnfeAnnokUfl2RefkYzug6Vvz66wynl6IR2xy3eW1wbdESxTvnbNYjnxV79D0q0LZNL++5dH6OBOws6Fcr0F4sBrxQerBkWP2rC9xjcvM2MWrG6bVq1WN0yyq+GAT2JJ14LXAranhCEShAHRLbBG7M7KknQkPItUvZVZFBp/XhregxGFhmMXfE1c97xp1cyGJeLTk9SCkDakuw6mNH1S3a7ln/sNkjGjxiC7YlcdUDnQkWhzmcY0DsIUJ/JmnDL9Ey0AxXjvnYhcmDRxX9kbbzG5cBVwcA98wHDg534n4U1m1vffyRykdFaCgf3NgGbh2MOPVB+i86e7feR6fL5QC8FjWAuiMPeHBbI9a7ukIC8AyRCVzruWIf/CgvVSvLvx5awVY2yXA+UTTzwBU+4YjdbgPpFAsK1DAaVXX60soMQcBMfjjSw93ctLwGUY/shQyTvuuFs+/PAd6Bz+BP3ChagYOVHV2FyG7YcfFkOR/ozce++d0D8MwjbvlyOPPEzDRXn83Oa61Stk1cqlELPhTRA41rdxfdZ4+H7OAuneawDqUhwFq0y8uiOi+GaGN6z34OY4HdUi2SZPflgrE1Jsyf0vg9uoCG6HsrwciainLqK++9aSyxFBSGhlGTQKD0CjkAgClgghIzUK9Ue39iPgnUYLQwEISD563csfLYf7k2VAFCKPsD2nX2AvXLah23XXK89V7H7HSmKPXpKDUMEvvkSV0jvula9nfS5Dh42HywH6BYj8eE1UNHyndigpKR7uiB8xOUv+dckV8leUTWf9ETa3fOD9rDPq+YeuLz/rR8AtwZuZz4bAXahnN+WLVRIF1npgKWlGahFAVofsgiqR8cj6Su3CnvoFdoH7ifoFfHpFoYg8m9V68HBo/r9GFJoQc/cwYJeqQ0DK5U5wNUQjxppuBtUhwIrQvWs3mYC0y3179/EeRhhE+Vho6E2+5yFob2rK+2LGF8iwuAZFalLUndCja3c58tDD1b1B/YN7wLAPbj8Og31uQZ58+sVnCAfcqW6E3UglPGTgYDnkgIP0xvUe0+7mrdw6/YiqX8BgRf3CMrgj5i5ZqGprrZ6H/otzCyUL4ZQ7lmyS0vL8+IG4VfZW+zdnTdhnn30gQHyKew8NQo5kZHgkwEUqsJf58xfKQw89AuvBQ6jqeCSEj1fLgQdW1y/kaKjkSSf9GmuUafbDU075c5X8C9QvfP31N7BQ3IUcDe8iUc75cA/cije+ZB3U58+dBb9ojoawBuLKfait8WFJS88bb74vN95yq5xx+tlyzrlnIzfCGJyfUh0kiOvKFSvl2WdfkBtvuk67YwKm4XCF5G/ZhLBIlELGm5cytoY/4WvbzRabh5RJKmh8IypHNiFBQicM7QyLDFXUWNsBOP3CbhCGCJC8g0vi5KCyJOkRRL/AfgKG8dq6rToPxAOOe4kavo9E9BsG8TFM6SCImQjlfR8WsDPPuxLLb8d53xcDKBOslb/lB/RC/UIsdE3zy8tZ02124om/QNhvN12K111jniNe/Qi4I/jGj2eWdz0F7EC9vlYSBdZ6YEg3G58bfGHgi0MGird1xj7HwEXHQlDe/RL4TPGeYVU3Z0ShKh7N98uIQhNgHTjQMR8CizZ1GQcdgpZ/Rl4C6BDyoIJPhEZgwqixMmTQYEmAqLAYcfZ8IOx5Ywd7DAXeRHXvNG88WhEy4Q5479OPEA0Ro+SA+9EXQslxSNyUmpqGmxg5FfAAo4uAeglGRMxdOA/rZUoizNi0ftD8e8LRx0PT0FUFjXvub+X+0BrCbfsj/IiQiEFGtlxZiHTQS1YtR548RGVAv8CWvxXlrKFfyFmzXX+7Pr0Hhk6q9Q/9mdRVXHABlOHnnqtk4IgjfokkRI9UhJW5vtg3RWNf4u3t6qtvgFjxf3L++RfJ6af/RcaNG6skzm1s48bN8l+GI6LaHxvzL/zf//1MeqKSnWskJK+99gbcEutRjOnfcLHEaT2H+XO+gRUCya0a0Piw7NNvsMxfuEQf/OzilltuR1Grs/Utk8fKVND8/O672bCA3CO33nwdNA0jJPfHH6Rk/gyUlGYJbM9E24BdaHWr8Ip3dwKTLWUjdwiomEyPLZJczOykYZL04jddozuCiZl2olf2fxT1CyAMaVGxmqyJ5IT7xX9sbv+8X7X/pUuqzFcokRl4eRh/iN5z+KNkgdfzylWroUl5Va69+Vp0lAL9wmjVLzBEObBx2wynJNFfinLW++5/mKaDPgpus6RkL/Ear313TwWuW5/vev+qO4L6BRwhrGW4hXBt1WdtLlOVKNAa4hr3icSYhIHPgi69e8HKgOyz2AafPx6iDl23lvs0ouCQaO5PIwqNQRwXPS9pNyA5HUJSz056k9L/Vwi/JG+0UajJMHLYCE8bgBufD3zefHzk6Bt6wE1Y2w3utqW7jfW9PdBfe/xhv7QQrF2/Tr6Y9ZUUotIcQxl9MH9y413hTqAwKgZRDoyC2JW9S7YhQoK7FY1pFFkmwUR46P4HSd9efaUIcf417RvX4TwmgvJDYzEQGSMLSyCOLIZVIjpetm7ZIvMgklyfuRGkJRYDaizWKEM5620oOLVOCrfn7rH/boLru+I3tkP3B9sLL7wge++9tyxbthw6hTMRBvmFnHWWJ2IcP94TMfLB5NwRWVk7Ec3wAXz9J+v6zM540km/kUGDBuhv92fRoiWa6vm+++6W3r2HI+XzHXA1HK5ZGd0yJB90GbCtRCKqdWtWaMSCZ051S9XvkzkU9jvgEElITAEB2QDC86o8/tizqA75uXTqnKZiR557Dih8C2PMPa1UkSBjxXNnQp+AUtgJ7aNaJM83W8Atod9pWYD+UDahqNn/InNlZoxPGHnPvAp15VTweqz/Xy//AggDEjYNQupH6hdGRUC/AMsO8y9w39x+1rdX3h98JvAzep+jJCI5DW/ulW/TiYlwNyHnwZy582UyLGDPv/ys9OgzTLrDXE93RJXrCtcCzfPUL2zcuEW2IR30qaeeqeJdVkiln58IcnCv6Z6ta7/LsC+qX4B7y+vIc+nVtR63S3JAjQItCoFEwa3LfaK7g+7RJORt6QoxcGJqim7HO85g6BpRcPg196cRhQYirjd9OcWO65wIHQLKP6OAUwRuUF7i9B37MGAO6N0PdRnGSPdu3ZRQuHBHXaj8Jmb2RPYXeENzUNDuVbxVOY998yGl8/+fvfMA0LOq0v+Z3ntLMpmSmfQekpACSC+hqAhItaOIZVXEtstfF10VC4prWVeUstIUkCIdElIIqaT3ZJKZzGQymd57+f+e+847+TIkk4QMSMlN5ivv976333PPPec558Dty4+Cd58I15sXl+6LRLJQK8+KO7bZnuIiTtctHlffy7DIUYw2HW1CoYivRYDEUORljyDo1Ghn7eCYhMPkr+7zQGddMAbtlhKRYJOTR1pO3FDX/j31Jba1do+BFXNEYXfRbtu0bYs1A1by9JCIkNs6TKaUNdvKrAPX0F6DDhJitbd/CqfOn7rqcvu37//QiTL1e11dgwMx3nDDte72n/3sTjAHV1hubo77LuZMbVQqKNjtTm/f//6/u+/33vt/dvHFFwFq9BwZ6aLiNPiqhhdf/KddcYWiNwq/MN2ZsLkHeXG+E1YudeDPY/Wd4D+rd4273DcPzxlt+S4Esb63Y2pZ7vxBuHnhBrl33Pks4qt+6eZk5qJFNtT2um0+XG8Flvbu/uzP7/61DLwe1sPpE8nJDlw5zw9psm14aoxlbkYMMsOgMsUwNMOdNNLnMzpC7JzuOMvB/4J0+Io3cdypV/0QOmGOBQ8fiYTBY77dWEIvhC2KwspI8UYWLFho/3n7HTDYK2zceDZ/fmsGRxCYtL4V/joyKsLWrV3mfvrBf8qL59V9ajPdoxRIX9yFY3w5fv8LR2cUXH3oWx1mFJ9CpCURK6wUzMMjwEg5b7LuMKBR8NNJRsHviXf6/SSjcJw9rsXmL7zQyDDCPw+z5PGEf45S+GdQ1BDulo42y0gl1DNqhqzMLHeaFYMg8b42c+WhDUvv2rzkDEknxKbmJvenjbwNfbh+E1sg1YA2Bom4oxE/S4URCzGJ4rPnMZETFfe6Uzbrqj/DoPrKmkHlNTY2WgUgQ6kYmsAiyCRSVhbSgUdipRCHBEE+E1IRB8rPgk44kkDo2f5J15S3JAdRxJOYkJhnIxMPDUxV29Zgr5ett6rWOosKi6Tu0VZeXWHzF79qjQ0NjjERkVBqrWqyohc2OmaBrpRU1qXh6GTzIIbR9Fk9DqkiMzPt2rNn2syPXmsRI8e7OgTWr6iomOBJD4Mz+I57Xp/luTE5OdF99yUMUvusXbvOqRfuvvsPqCHkyOh2p7pwmAqveIc4f/nl+TAd13Clw1kfyLeC77mxuqrcNqxd6aw8emly75NHf5OqQKGi5Yfilm//CBvwr9q8iy60FIimxl7j8+aeF8PAXELq011X7YCMDCBjdKgb3KOX/u66Q+3UkOsvjLaIAVUSw60t2Tsje7+LHRfQsYnf1qOOmB/SbGVs6AncJVZwUPELVEjzqw6mHUM9O7Md/AKsSRr4BVlhHJf/BTEKhIIPzsix0MlzXDh3tfFg8gB8Ycz3CACt+0vL7B//eMq+counCpsyZRZzorPPv0rfc0w8AWCDQ4Js44aVXA63P/7xD86nyGDhF5z/Bdafix9Bf+hf7xLtq4b34dgYBf8hn474+IVksAtJ6RlIzsIc/fHv08ifNI882Bvv5KeTjMIx9ra/EWlj1GkiAelB2tQci0jkdCECDffbxCKS+HDq+Mk2Km+k29h9fwhu+2ZxyfeAJnwDG7ZwAPsRycshUhOMgjbkgxuNdKEQyl7qKc5bX/QeQvmy008iemQ6wMghLKpUbPCFmJaDmkC1ht88V2/yksRAYkmVI8bCifn0hd/ELDjpBg8Jl+CsMFRqL8H281KV9EB7N6chCPOo+OE2NmlEX8wJ/drU0ULkygLbgjQhDHOzyHCdErptf9l+24Zk4wAeHZWkElDd5GuhBqlCGyqITpgTpXTwEx9OjLVzcH2byH2qo+sGxO3hedmW/u8/stDkNLAHS12I6cDAT8pzLSLc3/72D3bffXfjYfEi+/73/8PmzJntzMrUbrVLfz5+4Qc/+DEShFfBLgAmvPmLNm3aFOrntVb1UahqWVHccsvXnBXEhAmemeLO7ZutZO/uXrWDmLuDz+i5gZLGUxui+v7Bvz1Nfe9ydb3ttu/aqTNngBj3XHG/KUeNGeqbzr27rGP1IvAJmEXSv+/F5A+rZrh8J4hJqMA5zrKa/TYqKsHGxMM0sSG3a8y455D7+SYXz1U97bYchmFhSKu1sVkmcE19O5g9IumC8qsO7rZ0PDSd1xll0wymnQiV7agoxNi+aZz6DwjtY4Ei/QlD/XAe40YIcpidwCd1i5hYjWcka1peHrdt22H33v+A/fKun3Nrhk2dMsIzp6RP+iepI9qgRdu3r7PZc84Bv/BtzH4PhrP2aMFRa9o/W/ddz3bCvMqc0uEXVNk3pYOMgqweBF48lqS1qHUpCwkxSWngF+R/QVPdSycZBb8n3un3k4zCMfS4MxUSFSDJD0L6KTkWk5nkbTQQpDYASlquY/Nxuzx2PHp/dMqI9eVzQJuAJrokAtooJU5es22DLS3abMMsypIjEzwdnhac1hx/kiCEiPngq/T93u7oL0ipG/jTgqIMMRfabFORAozIHmE52dlOEqDf/c2QDPqSFrqfnxamf2rTDU7c1+/3vgd7P6gWcjGteg2PTreJyfmWHp3cd5uuF9QV2/rqnS4wVTyBqyQ9qa6ttq3bt9q2gp0uYJFOP2psS0W9lb9RZA17vXj1yigRwjgvMc4uSYi1ZPgDEXwvsbGTVzfSkKBRE2zEb35vzbRhbO50Kynfao8++g9MC88DpImuszfJJfbChYvZ+G+1wsKN9q1vfdeBGMeM8QI/BaojPP8Lz+N/4Tr3tPAL11zzcQJNZfvZMZY9tmtXgbsmSYAcJcl3gkCfb1XtIHxCbGy8jYbBXLF8FRiLr9ruPVtcmOmhQ9KdGkJj9aYE09dBMKFOhZV+D/pP8FuktaPP0v+3sGZW1+63R4h+upooqJk4QboyFkud5CwbAgajkzXU/wSv2SGgrLR0+7pbbCH4heUhHRYFkzfY5pQaA+Ei2iislnk5tivEzu+KsTFB0W7N+uaUao8/a/XMIUljiVQhdMqZSBaGo37wMEOH3MMX3aY1rCRJnNRRq1a/YXf99o/2+JOPWG7eREsAvNjY1HJoWcxRMRex/ObjF278/M24g/4CzO9Ul59HB1SGanr86VD8As8fko/HKFTCWJcWFgLWZK1TpyP2R7/idfDqRBUXioVHPmbPJz0z9uugf8HXk4zCAJ0eyCDI3DENBiGJ8M9C6GqBdbDAW2ESZEUwdcLkvvDPPljQSQRYHjIPqsab3uatm2xdwVa7ZurFNjYr3x5b9by9UrLG4rHZjg+LsgiQ1VpOrVhDVLY3WCIgwKHROk3J8YyHfPaWNa/uv07EWoNy9UxESVQeCQRzGo8DJ0k0FM1OzMTAxMBbwH35DtQf/NbR02kxIVE2JXmU5cQPO4TRKG2ssPVVO6y0pdKiqbvcRcvUcseuneASNnFyb3c+GlRpYREEYqzeUtonfo2CmfpYeqp9JBlmjM/qZ+n/OxW4yklbkLJIarLuOUv48YOWdvV1jpDKi+FvYBruued/bd68D6Ny+K7NmnUqG7eHR1CTKiuriN3wBCaNn3ct/NOf/uK8MfoxIUSQfcCjp7p4yOWjmx966GHynYcb5QT3bOBLdVWFbVizwhFDhuG4k8ZGbRQCfPK0WU59ceBAmb2xeo2dSfAqWa5I/aNxPiTpAnVuW76A+A5lnFDfO/Ed/KaouzT7woM5cdJ5Oxqq7B/VhfZca40NJ2YJLKYDDu5j7ucGhdo1CVk2O2mYxdEn7ZzKBSmUCkLJ73pZR4iZ2AZ+4SUiTe7EnDIJZl7RJ0/E/bMrJOBFpUrCII+RLdR9TmeYnQ1+IdM3p6RGukd/ft38x50EEolJyIiJFoLvBPlW8O7073jzu+anJIHyeirnSy+98ord+p3/suJ9m/EhMlPdh4UEwOmAiSK6oLgt0TDlawG8Kt3xs186/EJW1nD33R0mRM/ct+N/6fO/0Isz0HxWXSSJa6M+B/butSY8twqPpD+fQTlaSZLQKiheztixJxmFo3XWO/D7SUbhMJ3sTXZveQucmDx+mPOq2IdDwIxHXhUTkRxMBoeQm53rsAI6Geopb2N2n9xpurCo0JazmTh9M6Lk7132ZZszeprVNTfYog3L3El0dGaexXNi0jqvbqizwnJO5Xs22xNbFlosjEZaTLJz0nT4BS2GwfuTFEORJ3PARsyeMcsBEcXQeHU6TGOP8ZLKbYdgj4wbbjMzJrjTk/+ocAhSMxQ07IPg4DMdMbhO6goctW7zeisHExGLiFXeBrXp1Wzbj2vnIutoPAjMygHA9B95I2xcNGGAElOtOyHZOQ8KhmD01Fdb5wHUEo111gkB6t6704Y98E+LHjfebZZQJXfakuTgK1+51XbuXI8nxe/YjTgo6u9yWdYRf/rT3farX/0C2/MxqCV+a+edd7aT6vhEzO+rNWvWoQr4Pff8GZXFWfajH8n/wlyItdwze+NcsGML1g4FzoHM8ThZ8vtOZWl8YvFzMX7SKW78xeDJG107UorDJhUOIyUHS62Lie/AuHinLs25d3fSPFItxSCEopJSILP9rY32clWRPdywHwucEEuHYZYaTxu7JF4hSPOCYA72ApY9PSzGrkrGURnqiFDGvc1J3A5us8pb257wC430y+qgRnsxtMXkHyEJEKQUEpLRDVYSbkJzvpb8ozj8n9dFOGviRyRIHUFZYmbUZr/dKldj3gNTH5yMmeTU091c0vVjSd20VxZDYgCKi0vsEVyRfwc1lUqYOnWWY8bl78NNJD9D5ksUKlFt3sIvxBJt9k//8xOY34uwwvLcQQcyyv5jx/PehbSjA6Cl87jImCqpPK2pwBgOkqweSywSxyicDAp1PEPwtt57klEI6F5/g/A3jLjsFCdFiE6P8yY3m5xMBiVynjhmPOGfRzkxv07tjjOHAAQmnQC2bN9mr8MkxKCj1yLREnqkDPetZ6IHv+iGwNsdZsARUESwSg7ZXQI6f/ET9krBcstJGOJE/oeWckgWjkBIdSGgoiILnv+hcywpIemIgMR+Tw/4VaqTuFDc3CblYtUwzEk5ttUU2ra6Qgg2m104AVsg3geIdbBhy0Yr2LsH08gIFxRHao3G4moX+6Fpf60rR5uArifTn78ZN9pyqW/3iDEWAu4gWARFBFWUX5sBbqS7iwuso7yEyJQVFnX1pyz58issDGyGbvH7RJIDBWv63Oc+zVWDIfgNIMSrMHEc6r7rRYR0+fIV+GC4xTZs2AGQtMwBwfwbNP7+XNApbdGixXbbbT+0N95Y6rwifvnLX3S3tjPuaxnb9sZ6R7zVluNNKkcMZhxM5/hJ09gYQfTDHCkFqoUOyVflsFl0HSix9tdfsiAkN/6cPeS+d9EXf6PU/Aam6NQMtWyWy2pK7WFUVSXgXbKRinRzMq3jtD0sjeBokxTdM9jWb9po+zCrjcFHRRN+Sqphhj8WmWKXpI5gziSwGQO4ZY5owz5YDrwUfStJQlk3PjSCG2xJCBFQuRbHNdXD6+XB6SRJF8SAyJxS4azP74q2ieAXfHNKsUZe3WBWqEMPEV+lLgo95SzGEhNbN3f8WXzkOukON8+4X86a9NyGjZvsj3ffY3ff+7+WnJZv2Zm4g8ac0vkloCw/6ZPwCw1EQN1dsNHOv+DD9p1vf8POOOM0x3jovsC57z93rO969iB+Qb3LeMAsSA3SyZqrISR6NZgsgRblrdFb34dfMycZhWPt9XfmvpOMgvqZFeQmbS8OITIFRLPCP+exYTHRdYPvdnnUiJHO3DGF8M8i6EcCDupUWEBI5/lLF1oCtvEegcTUCjF6Zny6feujN1v+kBwWPTpXidk4Qda1NNjfXn/GQruD7SOzLrCUeM/LoFQR9778N3tw9T8ti2c7dII87PzQVZWEWJSTWTNWFEnYKF949gWIsEFoC0QVQDgOm8UAF5V7B/iEDpiCTPAJbdSrvLUaUXCMk6jUs2FuBai4GZ8C3R3dTkyq7FprsLToDQ6lU7dfBzFNXRCXm7KH2w3DhljP2KkWlpphPZxO1I6DiZLpH+yorKeizLphnloJgNSZP87ib/ySJZ7xIQvGYiOQyO3cWWB//etDSAG+77KRg6QLLzz/EPzCgQPlpiiQU6ZMOlhUwKfAU5b8L9x//1+dy9x58y50d7Vi7bB99VKri8VXIGMYwlhqrgTWPCC7w35UX/RnFLQRHH58e7Pgd20uHTs2WOeGFRYEgyXC+m5M3oz0RlOfI1AzSAqwvrbc/l69x1Z0NlkObQmnSXXMVwUgmzp+ivMEqjWk/pQqb29Jka2DYajD10dsZJRVsCFH8cy1cZl2VkqWpcCIa26Kue7PMEgdoblRIHNK8AsbMackzinPa3P31stg9J3aJ4ZBiAG5g57SFWrngl/IDcZdcTCMHfWlNdwFS6ExhraEzrqE8SP+QXuzu8bicG0+lvo4yxcYS0m4FP58MQ7FfvaL/7Yly+bbyFGTUTlEOYZBbQ9MYr7EMOzYWWxNDcX2FRjmm77wOVQYSOhI/v3+Og189lg+ay5KuiAvj2on3Jk7aEm11wZou2p/mdVWeo7WhOtR6j8KJxmFY+npd+6eDzyjEIhDCI0Ot9RJwz23y5g+6vQht8tNSBGGYlkwDbfLmcMyuY6oG66YVc9/LeyDSRNe9s6Kuvg8URuF4JUkQYtPp+3d9fvtj9f/yE7Jm+AWkcj7n195BIxCtF1++jyX0TPLX7YVezfZbZd/2akjdLEe8ey///UOK6zhZOUsCLz89JvMG72kunhEQa+ysJD/hFM4mU2fOt3hFXpvfMtvXmuxFMAkMpR2xkREO/POgqLdtgEMRj2+DBQrQuLFDqLiVW0ssRpwCJ2tIpD0F32qPPQuRisZ8eL/jM6zzHx0kWz8QWISXCFeSe6h3jaRqTggOA9IceV+QHxbrWXFPyyIfkr6xGcsbvIUd7uIjMqXmkPRJIVfeOih++ySSy4nCuOt4BdmOvyGl/fAr4FEU5/F6OiEpNRKVL+2jSutIXWolcEsNcHMhLJRBeu+fvPiSKX4jEIsQbsmSKJAvY/KKChv7mtfvdi6SgrelUBGf/Q0D/UXxlxBOm8FTTX2VGWhPQODmca6SAB70ICqTGaGE0aNs0ljJ7j4GU2A/TSOEt07qRQSFJkP79y9i3m22TGT4WyEJTCtY4Mi7GrMcmckDbUYNp521oOe9Nemyld9xDC0wmRvYht/BXPKIuEXuDbY7qBVrmZIC8xMPdDH0zrC7GPUJ87KqVuV9QSP4o4hVCjSQnDTHYQ6MigKF8wwExy9oRXHx/SJoQ0jD0k6D8D4Pvv8i3bjl26nBiW4gz7VSTvf5A6aTgnHtbyYjLVrPPzCXb/5nQvBPoxYDEqBjLK7cJwvHn4ByYbwCxoB/su6R7xQE95NK/aV9uIXAG/30ki/iJOMgt8T7473DyyjIALtuFgWjHAISXK7rPDP8drkEImDQ2hiQ1KoV2fumI+5I6dyMQjaMPT84ZMQv2EAFzfbsjdWEBEy3m3kIh56pI1T8YysSXbFnIttfNYol8UBROkPLHrC9lQW280XfMIm4Ae+oq7KYtDrCxCoJIL507//1ubvWm7p4BXEqde2Nri6pMYQCVLE0Z2m3O3eCw6CAl8AAEAASURBVAUqqIo2tkvOm8cpAtT4UcGNAc8f5qPXdogMp0DpS4tLS5yaoRQAXjSnep0CtUHL3FFShLaaJpeL+lQ7hpgvX7Q+OS/Hbjx1ik3bs8+CJ8y04MQk54DGMQSHKdtngmiQMoLa0P79iN+3rLHWku0W8blvWNLlV+JnASQ5zwfRR+r0Jpw7LVggs8d/I8DSbvv2t7+HZ8ZPg18Y7UoJZAYOWywX+4+5AGiNi5617ppKC2VedFBOFS6UyyNirIP6hYpZcTPsSPPEK0nzSKLYaMZmwuTpjsl80zgGVkptglmSo562xS9YD1Kod1sgKLVY/a/1JRyCmITyVuKHVO0Fh1CCi+RgywCH0ApT2ISEbURWNj5HJhMDJcOaO3EZzhydiE+O3IRhtqN2r+0G+xIiPAPtFiCuBquXTayvHTANUXzvYoMsBb9wdli8XZGSa+PAL8hqqA0VBd2r/am3Pt6Jn20Zd9AdthL8withLVjOyB20tvbBUUeoPOVWHxRueT11dmHndhvaXW77DFNmmwl4ORPpAjKHkGL6YjvMAWC/1DMtJGOWhSSN4WEYBjELqryrPW8DJNc+5oX+iVmQNFHuoB9+5FH7wX99nydDwS/MAOzYhnTGP1QczFAm3aInCs0+ZtxM+9lPvw9u5xwYtmh3U/+5f/DJY/vUyTgr4JTvf0HtEl5JtEkRIitLS+H9sQKBdohR1hSXyWj4SYzCsXXwO3DXB49RYJJq/fnAszjCP6eiZojB7NGhkVmgLbjm1cbm3C6Duk3gtCex/eHUDIeOkc6RkAhOR4uWLra9+0qc+N3hF7hRxFMErLwJJzmU85mZH7XLZp3vTpD/XPmy/XXVk1aFCPLmmVfYly75lDuxa9OQBGPVjvV244P/zyZDCCVi3VN/wGZnTiScc4Q9tWuJjQMzEIWkQVEpRTh8AqONSJYHF5x5ruUMz8aRE20jv+NPkCEaIOmIJCMV+EHYiCVDQdEeC+dUGA6yWgRF+AMxCMIjKPkMVSCDMBSXxDd8aLZdNneGhRESumPBcmzKz0DXTh4Qd7/uLoPDvqgnuQuGzG3yMFXd+DFoXbvUOsBjxNyIhOG8Cyw0Tiqfg7lJzfDkk087N7d6/ve//yNxFT7aF8fhmE5Q6gT6tBO1Q9OrT+tY5r4HMU4hMAetuKcuj4q3Khg8nQs9hkFj742Kyg1MjlGA6VDEyUlTZ7r+9edL4H19n90g4GgJBqVtyXMUgOjWTWivT/ru+xd8cBsW5aomgg1GIGFphKFZWbsPc8di2wFWIAdrGAUcqmNOpqWkOmuh3OE5COPxQ8Lcz44ZwhwfZWlRByN8FjccsNfLN3hjTd5OJUEh+wmGJXVEKe9xzJ0GGOIm5v/lUWkOv5CFSF+qiCPhF5w7aCRjcge9NKzdASBPxB007KtrO0bR+HUIsXM699vFXZsBOibZy2F5tjg0zUYwvT/fVQ/LsNPae8qQPjFHYXJ6WubDKFxl4ZO/a8GxOS4nXedH15u8HFNy64E7JSno7Oy29Rs22P8Qr+Tev/7FUoeMtOFDUp05pfw0BCbNwzjUEZWV1bgQ327X3/AZMDxfspl4IfVBibrfX8+Bzx7LZ9VLqohOaKukBeTkpH5Sg8jEuBo1YI3wCzCJYhhOShSOpVffuXs+UIxCoJohIjHa0qZlO8dJElPrxC+rhHYW54jMXJs0YYI74WiCu6AsUEHdM3CSpEFgtC5bsHiBHaiocN4OD4oSvTNmKHpaccy768ssN3Eo4K0m/hptbHK2FSBVuGb6pfbFiz/hGAWVr8W5tXin3fnsn21V2Vb0sbH2jQs+Z/Omn+0Q86+uf93uee3v5FdqIzFZ9EiAXsUUBVkD1hVnzz3TgS+d5YU2luNIqoM4/TCYhAZUKtuICrkZnwg6IchcS0lRIWXuWLt9P9dFCDyiovK16FWbSAjAR06datefOdvS8XUQBHK7c3+5dS9ebSEzTuP7sTIKLnuIKLnC0AWxITlb9Moy69yz3VpWPm89p19qiZ++0eJnzoKhUH976gg9KcuHe++93372sx/zLZ4gUPfb+eef24dfGJBhUJm0qXXbemtdtxSinujAlo4RoFuDGVeJ2Bth2sqi4qwOkXkI34VfOByzoP4RcZQXuslTT+U93APG9jbxTW8qn3s69+zwHC3FsNE4wvumO9+xC/5somYuydxRG/TW+kp7vGqPvdJeZ1kyl2U+1jQ3OSdCCo42BjCw2luHWi0pLNampo6xbFx/i6lU0rwrbiyz7bVFMND1fevPXxPyNirfAnuKCm3dlg3WBEYmGilcGWxHEpW5ISHbzkhGlci8aoM58UdAuft15QzrJFy7QBa8AsOwOaTL4in/eNxBKz+x3nU9XrsTGPDpVmEX9my3dTbUngrKtZqeSJvYUW1n9eyxPCJEhgYx17vB3XQUW1Ac/TDi4xYyhDWAC/Tu+kI8bu620IwZZIzJdCfWQcfJ3IvmaM1qfcq526JFS+y/fvorW4FzrtGYZMrLqwCPgUn9KhWGJAzr1q7gp24XRO1Tn7re8vPz3K2OiaV/NG/fStJcdfgFxo0Tklu/qqfoZqvwC2VlzkqimwNDFH4gTppHvpVeHvxnPhCMQiCDEIJeLoXwz3K9HBqJ1pKNpgMdWgs60fSUNJuCP4SsYcOd+E4Mgk+Ujq3rtRWwgFhEi15fAgBrr1uohxLyXoE094RBUBU0SpgGeUzU4i5AUnD/Z+5wagmVrX/b9+22/KG57p5X1iy2Py580Ean5NgNZ15hE3MRVZLKaivspTWL7B9rX3R26T4h1HpuRAd8wYeQKCDilafIY13kftt9gly4t9DWQpBr8QkRGx3rVBqK06CQ0VWb9vWZOyp/R0Z48U8uZ00YY588ew7tGuZ+k3oiGIcqPeVV1rlw5WEYhb4WHKXruU+3Im51ZlecVHvKSgD6bbTWja9ayHVfs6Srr7eYseNcPj7D0AmTs3Llarvrrv/GUdNDAB0vdZEg586V50ZO6SS//e5LwItOxE1LnrcucBKeZz2pGXo3H3U49QnhJNjN59qIWBiGWGtx6ggh/jWirndcjrrd9QXEUhIFueVWJMkBx4i50r5umXUVbPaAcDAn/6rkt1utkoqBUbCi5jp7HjXDY03lFsu4pGIq2IgaT7ERxuWPdmBgOSVraG8CH0C7k0baqCS5/kbk3psqW2psY9UuK2wqcwxzOHkcmihR/Uy/Sb/dBAO7Y9cO2wgDG6RTKf42irCkmAGQ8OrkHJuaSAwB6tcGRkHTxZepiaXVZ+EXmvltvaEiCWnxwlkDdpSaYiB30HpW0OK67hCbFVFvM6KrbHhEM07DKIfymmEe4JqsCohOUnO9xTS3s+Yldm+04DCkUNnXWlj2eRYckwmz2wDj/Lp17H7EeuqWW0jOFyx8zA0wumIGtan7tebjUZI/LtrYxeC7cNZI1J4mINpNX/0mTzc5l+WSOjgJqiain+hYBTsLDQuxDevFMBgB0u5xfkdSU1Pc9wGZaXfHwC+KH9EudQQYMNFL/Ylh0OJpJs5FeQlrmINbvjAczCGfhp504Txwv75dv76vGQURWxEFURR9ThyNq2PUDBEJHthO3sWaIWDyEqjATSPzRnIi8aIraoMbkFgfYUQcwUQcvAlg3/I1qyyeE58kDAHLkCe9ZewIFpy0nlEdJWnYUr3X7rrye3b2pDl9YKJHlz5rz6yfb9+6+PMwBuOssqHG7n3pYUuOS7LPXnAtz7JRkU8hpoOfuec7lo63R2dCRTFuQbPQLj7vQuI4xDlvkUdrlzZIJREYpf0H9tv6zRttb+k+h0OQDbfy93EIrVWN7j4/30A1w9jMIfbZ8063D40f7Vrt6sXdYiUkUeg+UHkYRoEbRDRUD52Wj+k05dXZSRdUm7oa8AtF1rbpDWurLrXIm75pyR++3MIzsK5Q+cqbOaEYCwsWLCJU9TcRuW5D3PoNu+mmz5vvntnrC+rqhsx7pgsvk41SO1BHx5z09peK7Us8oDIkSehgXCtgFioAPMoPRKjmlhv1g7NCzMGEyTMsPiHROZfy+7IvP31QOSKaYBqkdpAfhSAkFv54HXLv2/zFm8GqkgeqlRShErPGhdXF9lBdiTUgVpHTJDHhDYCBs4YM85ySDRnqgod1opIYHZ9tE1JGvsn199aaPc7kVhYxiiFCZw3QRo9hkHMtAeWqqqscfkEWR9Gsw1bihJQBELwsIsk+ijllfiwqDbqxHUZObehrB5+d+2iYgxoYjBXgFxaEtgJI9NxBq+8VfjowaVtrhzUSg39twj6bGlcFMyIwKlIKYR64X8BWiZh0r7AZnWTSBaPdBaAxbPTnLCQ+j+VLvJWK9TAIj1t31QI2RpgGPD32tOy28LzzLGzsV/guyRXMwjGthYO1dO1T3fmLRIogvNKOHTvtgYcesR//XBK1RPAL4wg21erGqv+8i1U4aw4X27attZmnnmW33/49O+fsM51EQqVo/Ps/c7D0o3+S2WQHZUs6qXz0JxyK1kNTHRKiOB1IdIiiHxm4k4zC0fv07bjj/ckouAnHtJJoi6Swz+nTcyx6GGZsWmhcboV46aQwNm+0jee0mSQCLRwCGxOPk/pRBV06hqRNXxKChsYGe+4VwGbkF8JE9wBqbtkeNhfVVPgFBZSSP4LbP/5NGzU0x92rRbJqxzp7ceMSm5I7wS6bfg7VEyiQkxP4AGibFVeU2m+e+bNtLd/tOTyCOZGUopoN85SJU23GtOlu8Q3ULtVdZYXxnLAIVdXVtnkboDHCJ4dA+CJ9HMKBeqtEzVBf6Jk4+YQikEFIiYux686YZR+bMx3shHcaFLHSPa4XaPARGQUNgE7V0r+zAQm45w2HnjxaUk9yH8RGeRhA0S7hF5DEdA7LsbjPf8USzz7HQgisFUjkZCop/ILvufHXv/4tCPArDvG/wANkjYoK75otqxZxCuSkxyZxuOTaqB/UXrWb+1rYOA+gjqhFLaGyZSHhEuMu89uxE6ZYWjq+MmAE/D71buh9VfmI6rsE4Fz6AoroGFHqQ255u7/47dJckcJOZr3NYCzeqC2zR6qLbDObmXAIMhet5ZQfTxjzKRMmWV5OngtM1s5YZkQk2/iUPMuI9k6nqrNcf++GwdhYU+Bcf0eB9dBa9RhLzUstWzFY3hzQFFHym++Ppbygaq3tA2S7dtN6dO4VFoeUpsbt1N12ZfQQOy8l24b2uYMWw9A7J5Uff2FuzOQOWvgFgpqFgiHhHuEXRDM0asIjdLAmVKebknfbuNhGsBCojcjAr5tfOTdCypN/bj5gItkTkmyWejVrGCDynqdhmJ+EVsSScSKwBNyyR4ZYeGoip/oaCBjSsCFiFoRnaCEPlX78yfURj0laIFC2HIr97g9/socfe8Ays8YSdj6xF78g5ry3g7lfUlfhF/aVlhMuvsA+/4UvO3fQU6dOdpVQvkqHnbPul4Ff9LywCwpp7ZtPO3Uw5QrweDC9vYxCanK0M1U/WN7JT34PvO8YhUA1gywY5A9BkgRZNoiwSfTuu12eDAEbygmTKe70xG4d6+UEkya+xNcFewrs5SULLCmO0wBpQDQ75YroOCYDnW04zmduPus6mzOOU6Y2hN7UCqGN5BQZmMRc3PbwnfartQ/Z1TlnOv2wkM8Sx8Yj4r3onAtMAaMG8qMgyYOeiSDvRvTIOwoQ48IktANAkpRFhEM4hMr1e61mO74MOjxxt4iD/rRhil6Ew2BcMn0SapHZNjzFA6SJ+fLEigG1FkE9nESBTUen5G6cCfXgjTF45AQLwnJEm34P4kqPgB3LGKkARpw29cAU9pRjTrl7m7W88YIFnX+tJX4Sc8pTpnOLJ9YUYVLavn2H3XffX+2OO/6Lb8n297//yXmwk998JbWzGbfJHfhyCGZcfJGo+7Hfi1/LXjLqmAXd0oBJ6QEsJBq0GdJpsEIwrm2WPYLw3Ln5bi76zx6aJVeZx85t8/6id9Qs0q+PT7blD0En/u24XX6iUjiEWhsKIxRNn9czf9TvE0aPtbGjxlgcoFI5/xEzoHRaxhSwCFp33ua/v6nSNlbvsv24/paKQSo5MQj6p0klaZmYXt+niZtoqpA6lndv/rHZwOj7Vj1yfa04HztZg+s3b2ATanVqHWaBEevVrk4YbnOTMpFmRGKyiMM0xrV3K3fZqm4KTqW5u6Mbd9ChXjjrRJgFH79Qi7rh5qRCmxZfh0oDB0J6SIn8mKxUjA2dtjBJvGvKGcYenQPXJB3gsNIagsVOOQ/hql2/83MYYevD4pkbYVpX4HiQiHXaeAuf9HWyZM4J5Ejd3mrSHJb0RQxDPe6V57+6yG67/Q7buu0NJGkz3Frtj19Q1cKQzkTLnHLtMlf0HT+70665+sq+WCgnyjCIKehknAR6ZNhpok9b/Ja+PYyCxo0YX5YYR6Au6JcOMx6D6pd78v19wyj4xEJDGoxuTW6XU/CJEIZLYB+HIDVDMiZ4k8dPPOh2mY1JE1zPD15ilkM2pD/Vifz1N3CbyqlGZpMiSK68wxbmMQvyTyCOvxAd7+lZU+zs8XPBKORYWjwRIkHZi+DWIXYuKCuEiYizGThXaYOBWLxpOaDGR52YsxGRekxMjJ2PtUMyzqGO5MZZRENtF4MgQltYXOROYlU11a7OTgyI+LhmW5nzidBez4lGrdMi1gea6i+q2fhD+MRZc2xGfo4uO3yC8u7ftXrOEYKBGIXyfdZNwCPsBi1oKKG6AZg6D4T0C8cMKqBcjjZmqoXqCjMgwooL6J79e619+wZrLdpk4Td8xZKuuMqi8ka6+7y+AIVNe1esWGW/+MWdeHl8vC9SpGsTgDlZOwin4JgQNeQoybVX96jO3C91hMTQNZxqy8AwtLEJ9iBRSEpMtnH4UnAE95B8KYP/QVKLFe60jhXzLYh+8QnzUYo/oZ/9HlYr9RfGnNa/fQBkX6wqtMeZo+EwLylsfvJa2gozNxLpwQT8IaShz9YJUfNKQ+XNGMDBbKR5OErSXyFum3fUF7k5GImaQW1yZfGudasw6pL0KTx6Ld45BaZtYR13oVvX3BIIVGtLkgvhHqLoI92v9SPmQiqJGjbDLUT43AoIN4LNO5gNch/+F2aFROMOGuByYgYMimdOqbK1BfvtdVITai530GuITvky5pR1mEu0dYXZpVGVqDOKiS0hh9F6iKeQQgRFpoIdAYsTHk8ddfqnTZh99gDq7GkpZ6yREhDsSgxDEGqJrk7yQ0onfwrhyVEWEqEacHhpIehbFW1tJt/2YgseOs8iJhNuWnk6awh/dFT48SYkI4yN8EcClJaUlNhjxEK55bvCLxjqiNkwrx3uoEAlD8lcFhVq02b8iAwZNsF++fP/BzN9AWHcvYOBo2/9njkkg6N8kf8Fp45o9w4G7vCnAaHMwVY9SN1UTTvHpcTZ3FPG2qubtrs56OgWJfq07ShVft///J5nFDSgSv7kjB+Rain4Q4hOY5FCaIRDUOwDoXzlzMVzu4yumMl4omqGgWeHJyZ1Ns2Fe8ArLHfhjGM4hep0rU3J2wvcCgjIymMWJHaVH/xa7OT3twEexMd9RnSiRXIK1RPVrURdbKpyG+B1ky+yK+ZeYsWVpfbz5/7XgYRyAS7Onn6qi0choun3k1+Qv8lIVCsTpbKKA7jKXW97ivc6k8sIgIYiJFIvVG3Ag1tZnXvUX0B6V/8pjRyabtd9aJZdMGW889XvL67+ZbqbedGIqe0DShTEKGzfqGMMzic4fRE9Lzh7pAWlDYVOSh0Bw+AyOZSI+WUc+u71sTOnVJ1rK/HuuMda8XvfSdsjP3WTJc27xMJxqqU7NQJ6lTfGNWvW4uJ2rkPqK8+2wh1YVSxAmkCESo2hLh5jcu3WvfSdwy9Ql3baUh4dD34BJoD+njb5FOJzEH0Uxq+v/5gHQczfrvJSa8Nls+p2rEzKMVbtTbf5var2aeuWWkwn/WqYgdeqS+zv9SV2gM1qOOa50jPXt+J2GemcgqNlDiVYGMzZkcDAyq+djVqdp/wjQ7Rhak14val3Hx8jPx0Fe3bbAcxRJSFQntJfCwCqJEZADLgkeMIDyQR4VF4+/kvinJ8G3aPf1J79+PrYCHaoeF+xRVPvFg4UdeR1WWSyXYLZ8QjhF1Q3MYF+B7grlMOFUPAFFT1ttiioyTaFNtvXM3ZZCoDETlQQMo9lW8EPAuC72OE8L0mC/osOkFyGfAP/0NPK/KsrgGHAhDg4krFkxjH2ulE0qxvGoaOGttbBlLvrPNcTAWizxCLGfsmChn3MMR7K1j3kfXhLr67P6W+pFZU2bdpif/7Lffa7P/3WohKzLH9YBnFtqHO/3HXqjga/0NDQYHt2bwYM/BG75Zv/5taKpJdKyrtvDvd7/li+drKBSxLk4xfUhxFxihlD3x4hSWV4yy3/ZpOnzIa5xNtlb1I92sDQaA459XPvdTG55bRvDMzmEz/9uhWx5u9+cZGtKyx2d3i0Wv3fvwf8nD8Y7+9dRkGLin/+AEalx3tul3NTmE/emaCFSSEzrbF5o2ziuAmc2JLc5iYmwS1KvbytSZNLp6IwTjWguLdudqJQBU6JxO5bJx5XBW4TQQlcjfqu9kkq4XT/OiWhu/RFpNrgw/lT+0vqKqwewFYDZpbTh43Eec0k5wJXBPTNkgRNeggfomGJ2erq6zF13GKbd2xFDI5bW8yplJrK61AzFFvDnkqvj1lo6i1Xl14GIQ0TxyvnTrePzpqGm2rvOTEXnojYZXPYF+WjOhyVUcAEkcD0Ht5AY4ZlihEsSgxDcJJEtYw/EiEvHcNYqlD605lL4k+iB3PK7r0F+F9YbF354y320zdZ4plnWwiSmDcROVdhXHCvA5W+cxP1kjMabxMg12NOru19dwPcEqiOvFvIrxjRfdCQLBs/brID1mmsQXK5TaizpNDa17zGk5QJ8zSQyqMv+7f4wa+j2uVO1MwVh0OoKbNHa4psPaGcs6gre6RzuxyDWkZOyfJH5FmkRPkwcW6eMmeOlES4XR9rDPnnJ13TvBRBX7lmJfiYAsegCDcjtZsY/kQipGpNSV0mp2h1DfWuv4QFaoGplOvi02fOtRE5ua4u/ljqGTEaxfsIVrZpg1VXSWoWZZVICCKpwsdjh9rZhLNOh5mXW3VFoVQLAvtDsoPOzlCrj99lqek72MjlrEhMQqeFpOE0LBogIr4ZvGt+q/x36JKYPndQoI8aCgmZvo17KUHSBerR0QhQ9QCWO2JWdNDReooI7VVHAMLuLrWetG9ZT9ws7pEzM9G6E0+aTypP4axbcH60dOlyu+POu1BLPI855VRaTbup08GR8soUoyZzym3b9uI0aZ998eav4g76RiQSg4hfYCPvFOCRvogk9PxgMgqSkDXBLBJizJ7/5TctMy3F6nHQ9vyajfbQkhUcvpD+kESHNd/6t9/rhff/63uXUegdm/C4SKdiSCT8cwgnBC3rdjaBFrAI2ZmZzu3y0Iyh7m4RMKUT4XJdBsf14m3MIlIiiOWAq3RCUmTFxmZMpHRSg8CJOIrB6aubT2N7Z6ZorrdVQ1cgphKvttEeWVREIjqUSiU/N8+yhmfhQjlQYuJn5D0nDlk4AolvdyHpWI+5o/zEx/GMENFtDS2oGPZZ9fZSpKiBOATRPo+kRyAinXfKJAdWzEkDlEXqOgYGwe821cjtu0dTPWzbwIaMOLq60ondLR6sB/WW6iGIoEHBWXmc3oQGZwH3Mn/qpYETHcp/ncgFeOxhDHoAgsovQevaVy3owqst4fpPWtxUIjnqd/JWcsS9stzqn3wAVQihxunDbjYz/zc16HiIiOsD9zCfeFbOmpgMbFpsRbmjLTVrhNTV1lVXbV0Ew+reV+ikK0GaR7110uODnfrqRcbhMCkMq21rqLQn8YfwApKtoZgwxiH6bmAz6eEkLBzChDHjALvF9572/dP40cbhzTVXD0pyoQ3p1dcWWSHMUTLxTqRqkwRu4pgJbn5HOzUeY0O/CZFfS/wH+fUoxTpHfhTawXs04rxp3lkXmiRrvkmw7nfznz5spv47d+907qA7+Sx30PvAFYzEm+LHCWd9Ku6gE1DzSbogDwx9a49PYqgjhqyxnigkAmATDIBhcArMXfwo5qGnmmMh92ugxhlsgUs8o7UuLEZbpXVVrYMJZtOH+dI8bi1rtK4mwLxh0Ab8vYQloj4N1/P0DRFX22ubLXzKj/HhMRzJGnOQvAYnSR3R7WhRJMzf3l277Y4f/sQefHWZ1SNJGp0irBUMQ//5xxyJwOw8Arf369Yud1X52c9/BX7hKssmjouSz6y5L2/hRYcrAR5DkXQqYNyR0vFKFMQoNNDnQ5FqPfPzW2xoGgH0UHnoQFReT+yd11bZUyvWWUPvWtf8UR990NJ7llFQXIbEURkOiyBmQRNYk1HEOo4ToUBUeTkjnEtTEYoTnagnOjH88sUwKDWg6z5ANLUDiPwrwAPouxDhYgDELECO3H2O3tAotUwiff2mk1M04j1ZaqSnpTO56YfkFMcwiMjq1EQG/PeIlSubzxLBylKiuLiY8M8biPJYYTEQSF3vBJyo8M/Vm4qtra53A3T1oBq8+4tjzph8h0OYnpft6idAm8px9XRXjv6iWvHYsUkUOD2HokLpLj9gXcsWW1BmjmTJHsPAxhqEJUMw15w/A7Wb9h8b4dRM4Vb6Uht0D6G9e/YXg1/A/0LRFgu//ovgFz4OfiHf3aeXgldftapzzrGsb33JIqdOIoBVCqBOMC5gGpSHa1ff3cf24eAzet5jGKTD7wHMGqINEnGpTo1BbI5KGsu3I/n1UO4C8WnD3ofa6wVwCI/g9CgSpkHhn1vFhCPFyc9Gtw/WJw3fI9rE29UHZOL1wlurodomF8TbwRLMX7rIUsFsaD2IGT5r7ofwA4IHR05/motuLVCMCLfWQycStddWvG579hY5iUIz6sZ4JA8Xn3uRN7/FXLoepoX89/ELteAXhCPaig+GCNrczYZXQl6n4QDqiqQcm5yQYRGcmuUO2j0o/42hRAsdupxpBrNJXwRFJVto+mzXD97EVm/6SZ/56+G+0GR+hlnoQo0HQ6J7g4TLIDBWV9UbqCRquIxHT07Q7dVtMAjgFaIpg/p2gVdoRx3R1cScaK3AOdMZFjntFvKWykYMfWCZftnH/65cfNWhaNXSF162NavesHUFBFl7cQleaiNsaILMrL0x6F+CpAuaD8IvpA4Za7+760d20UUXWEJvOGufDvZ/brC+v1VGYQiMwrMwCpIotNL/Ir/yCaK0dV8ZLvaX24KNOJnTgaiX2Pn9NFh1fzfn895jFDRILDCBFYedPsr1bR/t5Cdxu2fMmmvjRo12mAARNhGTEyFggzeAbPciDhAkESphA6TnlwSkGa9kTe6vyZnKibkRkdT9qr82c4ldBdbSiUpSA/l/kApCycdc6LMvlXBsE0RG+l5dc+GfN2+CmBY6L4kRMBvKvx53yxVriqw5AIegfALVDCPSUx2DcOG0iYjhxJTpDrXFW0z6dqxJT+j5AVUPODPqWrbAQk8/2xK/9g13im5evNhaH8MZDb7+g3DVTMcQeacRM0HwC1moI9KHsbp78QuirsdCPF1FmB1ISdxJvQZ30OAX2iB07UgUoj/7RUuYd4lFAAi98Qc/ttof3ma/vPBMJ42InDPToicSzIryuxkvqIjrD9c1x9oZ/e+jP8G3kZcnzVF7XDPI+4Ty7V9O73c3FnxW3hpvOSWqxQnYUnAI8odQyik7h81MJ7p6VD9iSiePm2RZSOuEQ9A8VXor88A92PeiGoADYFNevmqFbdm5DYYfR1VIBzJS04iAer6b4z6z3De0PCZGIpb1ULyvxJ5d8ILFA/R0CHquX3L+PCdtE9g3UDetea+kzVB1l6+QdfgK2bd/H3gghbMGowIT8GGAiR9OzbG8mCQO9IAOmzE7jt9v4cO2Ivpns8ccNCQNSwGncqAv+q8HGAS362A5ERx3GtiWfPwozIc5qOJeMQuSJLGGua+rYhVgR65LBaWB4c/hFeowHaxFUoHlCI1g7eBPMggs0bQfW1Dq6TyKNAKaMqiJ/glF4rdt3QZb8+oSi01IsN0lxfbSshU2/7X1Njwn1ZKgPy3U6ZANk+ckfVN0ytraOisq3GIf+cjV9o1bvmJz58xydEz19OigGjm4aTAYBc1prQW/XT5jsGTrTrtvweu2ae8+V2mnjqC9/lwa3Ja8u3J77zEKfv8xkIrPkDYtx2IzJRLT5HOvLLJgy88dYeMlEsU0Syh2nUJOnJi5YgblxZtcHtMgRsD90SbVUb/5k09t4pK77tdfXK24djEZapcYAv2mf17S7+xl5Ct9nly4bgODsAksQg9e4qSHVGoh/LP8IdTuPEDnccHl4ZXlSxCEPbiKmAxXnTbD4RBUAuyLzrjK4i0lPenaNZDqQYzCoucsDCITd8211viPxy3uuuut6Zl/WsemTdaNQx1JAYJS06kQpz1000HgFoJzADwmYJ+vPuyVrNCio9dTFZJUQLgPzE0Nc8quvTj2Xf2qdcw610Iu+Yg9d8+9NrZyn+VnpDkAXw/4jtCsTIuZe6pFjMjRKPAsJ8c+Ruroxfa/w/WNLvaOhWtH/5sG4bvfIxKi6nM4TFE7RH9DHeGfawrtdTafEWyY4YjZ6zidK0CQ3C7n5+Y7hlUifw+HMHgblOa8nHkp4NPSVcstCVWTGGCpxM4942wnPZOPCY+Auwnr6i7AsPp81ZrVzqRXTIPUDxHM3UvPw1IA3EQnc8RfP4HdpzK1vpx1BWVJJbgWaVs9TpEU5KwiCMaA9XYdFhrnoI7I4JTcnbCD+bWAeYdFDn0UMmQOndi76QdmrhkRAuhVTpnaS/C7QXTQuBm4aF5p3S3gXILxmyCvDKzlILlqBujYVbEMKRLML/Owuw01xP4m3plTqHncGqWdYUmxmE+qSHwuZH4PiIOAtWJI/FE9pBJv7Qv9opgLNUgdn3v4McYgxOE5dPDatKvAnlzyum3bssfyRw23aManGYmkRsRP6lcdUGIAPK5dCw7DqmEWvm2f++yn+zkzo9YagEFKg8UoBNZJ803MgmrZwvx7auU6exAJQzmRcpVEu3166S68D1/eu4yCPxgMYBL4BEV+lMdFLRaJJ3USkbnUtImTHahJJ29hFDzCMHgT06/Gibxro/dWmb/UvPoFTlbVW0n39jEE3Nb3ubcCfvt0UpIqYzc4BKkZGtC3yVxSQMN23MhWbSqx6s2lJhfMSipLpaoU5aH7LkJ6ILfLuWmpuoXF4F13X07gxZVDQQNKFED4d29dC40Fzf7926115QqLOv0M9x42cpSF4uGv4f57rHP1ChdMykC5Gxuawy8ACAzOyuWkLwc1nML057rUvQxQcyqlfuYU7/AJqIPkDrpz91ZrLdhgocPzXe+3w5y53QUC0SMnMbKqmTLJ4s48DbNFPOqxiao/1ZdvJQXW8q3mcaRy/byVr/6EQ9CH3YR//idqhqc40abS54nozxvAgwD0t/Gjxtr40eNYTz4Owd90/dyOVNrxXdfclmlwMxYUz89/ySHq44iqKR8TkqCdMnmqZaSnY8rLiVt9z1gpgqkkcXLfvGXXNiRlnui7EmzHOXPPcvgJnRAD11L/WqkVGnahEZw5MDrqXUSmXE/Qs27GV/iFYjbx0R099tkzP20z0gospO5ZnomzkDjcvYNPUOyWg4kcpQ7A8iEk8XyYiQTmRK9zsvB0NA+vMW92scOIYRerRpJkAcmNyY1z2WveNSZta2mddQqvEIoUMhYJYhIqqUiYM8wrO+uIPhl/rYXmyApC2IjBY9pUAaawmxuvPv2MlRYVExWbsqELwcyP0I5mq923y77wp5dRA7YCFk939KG1N86LnneJjpX76Ah8MKxb5+EX/vu3/2NXXXm5DRmS4W7RJqvNdjDSYDEKYgy0PgJTIP0rq623vy5cZk/DNHRAX3z66UshAp97P3x+TzMKjhhrhZNCAdKkTBzuYjiE8FliRon0hZTOHpppvnOlHk5IHYgUlQYiHu6G99CLxyDQD1JF0CelZftd+OeS/aUWhcoiDF2/xMc1SA8kRWgDEKWkk5hE3eoL39xxGviDz5xzmp06aoTbX3VW8O8ZjC7xCfPAjALmkXhA7OGEF/PDOyx69mxHtOofesDaHrrfYm673SImTLT6P9+N5UIRTMUG8AvZEFs2PplT0t7g4blYEQyHprJ5SLrgb/BHbQQdoj7hRKTZ1YM5pQm/ANPQRiyJLjm86e0zSSHoROuurrGwvFxL+OgllIdUQsRDzx61rHfuBr8+bkMGkBgKcT5Ae+YTl+GRRlwRccNQzG/b0NE2KvwzUR3lVTEddYMkWG7dME/07yBze2j93ebS2/LepdnvBrrL/X7oZf+b5rFOovLjsXjZEvA7hFuXhQl1E/4mGZVTclKSkxJ0sxk34gG1oroKcG6rw+iIqZB10KwpM1jzk53Uw7cU8ssIfNeGILBkC5YKQyPB+YDD2IuvA0Vlba5vdBKKHbt3WhQMTCsM5F7UL4/MNYB9WHcA8AtNmYKUIJfxhqZ4jSd7KovKRiqFkMR5zCNJFQ6m7oY3rLtpNXNVQOAABkOShRAwCs0lSBZW8hxxPxiLtkrAloAaQ2M9NVQ3DEtHHZYA1YSqDu6wqDm/hikeSpHMe+bioCWNBeDBTWAUVryy0OKI+ioa0oFUMp7r54xKtPKqKnvgpdftxw+/SjCLOJuClLe1g7mitdYvxYBfkJpoy+Y3bNKUOfaj2/99UMNZq7i3k1FQ/o4e0DZJa5XW7im2v7yyxFbtKnTfxfBoDuvv/ZTe04yCPxBO1MtpVykCr2ZSRyTkp7tTsa7J1Ar+wMbkjbRxnIzkgEh22BJHak0PRLj0/Ls5+QTb9yhWBWHdsm2rMyvjXIx1oecuuKmU8M/gEBr3eeY+6jPNehFKn0HIxJPip3CYdMkMENz+hKfxumcwk3LTOhqQUcB0sWvZfAs94xxLuvXb1rRooUWMn2DNr7zsNuJg9NYRE8Zb84JXLeaCC7BYWGMt9//FMQhQN3YVCDcnU0kanDll6hAaIhEwm7zSsbRJlRQjxQYhM8yeCswpS3ZzkqvilIu5FkyoPH6qH4Vx6CqvtOizT7fY04jTIUDU4HabV++38Or6m+eoplMZye1yI+qVFTWl9kjtXtuJk6BcF/6525k7aiOehjvp3Owch4CXZMrRvd6M1HXBMBqSOjnCGFAnRyDd4NJvrv3uxXWFfutTl7kMNQze7wFZOCIrCaDcrG/ftdN2Fe22ekwghSHxwI2o23qf19yU6kF4CQUxygSnMg5LjGFDh7l7j8Qk6Dn91szmGhVCrJekfBeYSr4i9jVU2BZcSdcLV8DGu6+s1DaAX6iqriVwldlPZrZaVoJMj9uJ8DgbVwgAOt/EKPRKFJIuZMNPCGweAwEeoW4pKoY9dKQ8fh66qUoN0VWzwflasFBJSaXCgDnjts4GnCDBIHS34uYZZrinrcRCR95oEWOuYz6K+R88RkF9LFVQxf4ye+Fvj4NZgPnuHa7m9m6cwcXZmKHx1owfjY27iuwvzy2xe2AaUrB0GI70o7kdGU3vOPkdoH4XfqG8vMpKS3fYJz55o33lKzfZjOmneHNpgHnh5zHQ+9vNKPhlB84/SRGew5zy/5AwFNEuJQ+/oHnqP/Hefn9fMAoaAkdwmMTOcQnf47JTLJUw0jEZCe43ERnZXEciPpsEdmH0yNGAAmPcKUmir8MRrHf30Ipr9SakpAgNeGrcvnMH/hC2oD/vBIfgqWHa6pqtEodJcrss51M01BFt3pyoUG2MQTSo8M+KzZAWH+uaLYI+WOLA/v0oWqO6D8goyOHS5jUWjE48/PQPWesjD1rir//bWhaCGdiwwRK+eSv25RFW8+MfYSIZa/E3f5mgOrut4dtfd200Tp5BmIw66YIYwuQ0j2HAD4MkC8eOX6CiWuwwBI5hYA71AHbs2ldoLU31uJtt8ZgFNRJmVVKIxOuuQv2MLwZJMd4FSdVXn0vN0Ekdt/SGf17QUWfZSFuiHA6hCf4Kp2RjxtsYrQ1E/fLBIdG+ntb6kHtxH4Ar6YLs7RVUqwmXzTK3lbtvnfp10tcGK2sEbTQC4MagkokBZBjFvIzA7FC/63TpA3b7rz8RYvn6kCpAQF8xwIo9IusgMWmK/qln5JkxBpPIRMY7NSUFXymJrlzVXUy0N9sPDoK+a+63KHQzv4+Ky3pTYCpZnayp2IbHyL0WjvpA4OF2LCEWvv66lRfvtl+dGWQZUUgmOVmHgU9wWIE3MQqHShR6OrF0EJvmSxdgzrpqXmRN1tO9SAHdJNMbo0U/8wMqiCWoIlAp0I9drfhRqcZLYxOeH8W86kTLrd0y5YuLsqhTfw6TLE+YYoQ12oORpGpknJjHr/zjn1ZJCOgIAIyqYwsqhrHJkTZ1GB5CKS8SCUMj82HJ+m32i0dfsaWbimzU6GFYy7wZv6DnNW6ykFi75nVX0R/+6Cd23XXXWH7eCPfd34j7z4ujteqdYhT8evjqCPV4NQ6eHn19tT2+/A0850oVxFAyVrrnvZ7eN4yCPxCaWP4pOxgEtfwrpE7OMplQatA6ATY2YXKWjOmVHBPlZuci6pQjlncnfsFvV+C7FpEjkqo3p5o9e/fgdnmD1WHqFQsOQSesjpZ2q3bmjvusA+Ki5KsZ9NnXpZ0zaax9EinCuOGILrkuBsEXq+m+tyNpUYkeHpFRYCPpLiu2rtdeAqxIvXDbC9rMYr/1Pess2ovPg93WjWg68ZvfsoaHHnJRFMNnzSbSXr41/N/9Fnvdddb81FPWsXA+Pg+GeRgFqSMo2LmDHj4CUW3vRu6YJ7VStRooUWHVWeoIiJ/UIpIuNDcQCZC54yQ0mnuEyI3/+OWAG3OdnwVvPg6U7+D/5rdE46k/hX8W+HRvU509Bw7h8eaKvvDPTUjbFElxbP4o53ZZG62TtvUyOdpUQ9FJa+3I5LACcNv+8jL8gVRaPWL/NkT9OpmrIG9jpo94RuOrP8+EA4LJxXDGNQGTRZlUDkGdkZaW5rAH6gGBFv15re9K/mYhaZnmpPpSjIWYEXe8pk3ayDyJgkeQHaPCHNa9gUnfdE1qCTECw6PTbRKRKwMDU+l6AZYe66t2WisbbkwY5okwiHKWtgMmvGBvieEg2n4yu9WGROPquxtrJAEZQ2GuedY13BWqDpBEAeYqEYlCGBLMWjZ9YRYSuN+NCnOlDcBs7Yt0jic16Ksv/RmElKO7GQxRORgc6tGO1UMb/hWCw2EilIOwALQ9LDnOwmKqLSjjJutJPI9iB1eqoEEMhwlY+/pye2PRUotLBG9B/3ZwPYm6nJVHoD14li4xTUjVxBiWIXl57vU1dvN/v0BNu4nMm8qYdWNiSp0DE/MjChf7wj1swEsqii+755477NJLL2ZueLio/nMi8PHDfX6nGQW/DjpsOiksFwrKKhx+4eX1Wxw91dxX8mmu+/Iee3nfMQp+/4tw+9KFMMRgKZPBL8A0BAOq0cBJD6vgUNnDspwuc2gGwBombn8fBH5+b9e7I2gsOtHUoyWfARJjo89lMumCQSjGpCsaD4ZapCLy9XsqwCEUW0ulh8p1mxgFqCwfnSvGQHEZzoVRUPL8IXj3HK0eJ/q7lo02kcMyCtoEUA9Enj4Lr3Xonu/9CwSVU3sSlgycXI3TY/z3/gOTtDSIKaZ8d95p0ZdfbpGTJlnb1q3W8IffWtyX/81CUlOt/o9/sK6Vy3D/HGNBbFAuSR0Bmt05a8rIhHYjvpUPACf+9Ra0d+MRXkXE1f8wB90bMaGsOWDNxJBw0hcoZjcuYOOvpj6jRv5LGAXXt1Rd80kuwOV6uJL+W+TcLuNIi3bKq6JO3A3gELJhpKagZlBwNJ22ZUboJ53odXKtZaPchKRqCRFMg1o6bFhMMk67EEOzxpDNuNs9aYO3iYnZ9Ge0xtlPToIAQ9Auppx/Cbiqlsvl/NwRloIfEN0rhqH/Ju8zDMpHvznCy7uKVj7auPxidJm79NKX9E0eWttwG50UHouageBb8cOcrwjdpGf3NR6wdZU7wGxU496ZEzpMTRNzpWAPQaW2bEJy1AaDGIYH1Fq790MRlhVPH/aEwCjMZcMGQ+EYA+XmJ9WPtoTEW3D8XKwcdomt4fNM5hsOxPCpQOciVViAOqy4l1k4dCOVQ6ZOmUw2lyFVCLeWffVIFDymNCQW3BHRDkOjwC1gotnVw/hlfYt88MuguvTrA79Wx/uuvhejsL9wr7302JNYkuBymky058sQ45wRCcSbQeKhU7P+u/thLJk7O4r320MvvWY/+/tLZrhHn5Iah9UAjF6/E7bGVNYRzXhE3LVrA26gz7fv/futdtaZH3Im4KrzsTIM/ypGwa+j5rAYH6UlW3dhTrn0fWFO+b5lFNxIMV6ahD7DEJUeh3VEtsXnYkYnNpgk8Wk3SL2x+YSbRiWRiBMj2WCLqB2O6LiHBuFFRFkrS8RLYthwiMKROU6IoZuAnui3Gj8Ccru8vWCn2wzkdlm/N+6vsYq1eHzEL4KST3D17jMIGYnxdu0ZpzpVQxQ6RyWV63O97sLb/OJaTn0PyyhA0HtkofGxyywifwRRGkus+cUXrP2fTxBoB30uYmy4IYu6/pMWMXWaNdx9t3U8+ZDF//lh/OwnWu2Xv4DeCeL1g9thNIjqt3qVBcNUtD14v/O3EIRtvp43mUBifheclW9ByelOInBQVaAaDpDELCCm7yL8dvfuLdYkZ00izhDHfxWj4M0mR6udllpqhkY2/VWEf34MdPxGUPE5YDfCIPC1bIA62U8D7DcCp2RiPMUg+MTYEXsAmfJeuHX7Vlu1ZZ3NJjjZuVNOt+U719jDW14m7DKYACQNyQS1knOmekTkNZj1xXBqzohKdIyEQIJejXr7kzfNe60rzVcxBcIhyF5f4d4n4GY9HjVSGzpvf+6+eRTEGhxMXs69+R+83PdJv3QyNqFgKsYl5tqohBwXL8W/obq1zjZW7rSCxlLnKjoW4KSki4oxsR5cQjVAydjIGCsnOmYIJ/8vzLjELsrAIVcbpsZgD0LTZ8GRMS/V1jdVgwts4pxOaDCqvOiJqKSmWFf96wgRxiApwGFXyx5cOS/k2X5YBTooCOagu63KuspedwxtRz3SnxqsMFJjKNJz+eyAjbUADKu2WsT0X8FAT4fxgBlmTAYlUQ+ZWLei/nnhb4/BFEtFJVNOAJVIEU7PjrPheI5s57NfouiJxlnWDu2o/dZs22P/8/QC+/ui1ZY5IttSI1FToDIJHEdNiBAkwGIY9hSWWh2uwr9AOOubbrrRpk2b4uaD5qXSkefGWwcz+p4Z5XDJ96NwSP2OozN9eqrpIHPKJ1estYeXrLQDWEooSfIgZvq9lN7fjELvSPgTy59ocTAKCj8dDeOgE5OQvBKrRqGLVOCo/Lx8p5eUbs5Neo9jGLRxdRINRKAieTkxQ6wJQNV+zNKidErrW25ecaqz0/eyiFTHXQW7cDu7CdU7JmNsnJIWCIdQgQShbgdgu17xntqsiarJ7gg/i/2ymVOcmkHMgpKvX3Nf3sEXVy8qdlhGAYLbw8ki+tILLXLMqL5atW7ebM2PP4aEYCnYAzzcobMOHjUOIsyiW7rAom//uYWPGmVta9da3JVXuuea0Sn3oDsPA5RXxwkldM6HrGsj7nJFRNkInTtoCFlQagYWEnlIHbBLFzESI6FKei99dTj4AUIIkKwbE86ubWtBx/eqHxgjxyigeogc/c5JFPrGmQo6t8sQoa3gEP5RXWgvE7EwEwlCLBtlAwyCzOwmjhqPueNY1FRsyhAyMcWaY0purtC2iqoKW7J8qdsoW0O6CHl+vX1szsVsEN22dMsqq0LlMiYzD8+eqLpgSlqRTpRjHbKhaKvN37bMShrLLScWkznNcvr04Gx0xfBCrfmvcoWDaADrkIg58+mz59qwIcNwo4tk4wTXnfqlAyYhmSiOpw+ZanHhnPx7kzAK22r22Oaa3U4VEQ/DQ2WsDLWK/Djs3afAUTgUIobDgfYG+/jIM+zyGfMsb2gOzOu9MKEvMH8zADPOpE8xwz1E9eCXonf1KzXBG2Nw7Kn8TebjIhjNbECQIxA6ICWoebb3Ad176PbkpAqVuItu2kdWbND8LHfO4kv7gI1t9G9XuYXmfszCx3+ePCUVUusHI5E34yCatei5F61o+y4CuqK2g/FpIXjVzKHRNjoNvxXQHb9EvasVYibkA0PhrGtZ0wvXbLGfPPKSrd9ZbOPGYMJMnpIwBCY3/2AcDw1n/Uu79tqrLTtruLt1ILr1ViQKjdCADHAiz/7C88x4ooyC3x4dznQgVX+U1tQ5745Pr8Kcshdfo+vaX94L6QPBKPgDoQnvNgIuiGAmjxvm8AthMQpFrfDCALQwf0pNTME97SRcxma5U5MzC9MzPH8iSQtDnGQrQKbUiCSbkjzKsuIy0N21W2F9qW2pxSMgDITu8yeQPDK6E07xXkSgG60SQFcMDI30toraV72l1IV/DsQhaJX6Zam+crv82XNPs8k5w90C9ifwibTlRJ51hIQ6HpFR4NQS82Ec5bDZsovQmN5NDPFv83KicD76iHVz4nPqBHlFxHwt+uvfglCOYKOusvBxY61lyRJrf3WBRV1xFb4N0PFu3WYJn/iE1dz5C+tcssjlGYQ+XkAxUHgaXNxBQ7zYCBx+QQBICN3hNyuIZx+jsA5GoQacAhYQjMk7ySi4fmQgRGqkZlDIXLldfr6y0B5tOoAjnFB8IiCylpkw8yoPbMak8YR/Tkl1EiapADyG0pvXHpMQhmltqb28GJE47VeAJZkM7a4psbm5p9iPrrnV4lD/BCbN6UBcy/6aCntxzUK7b9WTloqoX2vLMdyOZKq2B5O+iYnQhiInSTqBnnfG2TYCd82tMAsnuubUJlkyjIwfbqMTs3EsFW6FdftsXfUOPFA2WBxRWWU6XEO8CDkl27ZrOy6ssRfCgqKwpdJOTx9n1536YZuaO961sZXNMbjqSQuqeZROT4NRmME8hnGlfw8/V+hbmUp21cAkzAV4eAq4hFdgFPKQKuTxG4xazQvcUsvzkvAF9I8YLEkVWsut68AK5izMLdl1t+HNFWCj4j4w5Mw7rHk0lhExFjnr52QjHIHUad64Huztt/iJeoTj2nr1ktdt3dIVCOw4aMAoNGMGOTk9yiYNxald7wElsASVrtZoHoWCXwhD7bu/qtaefm21fe33YDPwfjllNCd48mljDgXWVuMmsKPGf9PGlZaZM8Hu/PntuIM+3/nzUDmHo2PHzSgw72qh+yOQED7501tsWGryCUsUVDc/ee0/CAzfWFRi98xfasu2F7hbtG60Nvx9yX/u3fb+gWIU/M4/FL8QgXQhx5LGouNj0ohoyetcO5t3Dnb5YhgyiKegk5RnTqk7Aqe0n+uR37VpayLIVjsKpyoTMcUaKaIFAfNTbVuDLT2w3uoQ3+qUJUZAi6ScWBAbcJhUWFLsbLvDmdACjzUUVVn56j3gEAD6kXwcQiCDkMWkF4NwMQGc3ISlDu5eUZd/YXIEhKoMyChcdhEmX0gUVGfV13+n3l01tZhFvoI757+7TT4Ic1enlkD0H6KT8uUfs8bHH7WOp560mO/dZiHgT4IRaYfB+NXe9Svr2rPHIi6aZ63/fBLcA2JaqTPEkOBTwOEXslFHpGcyHzyzSNd5h/TZv5ZRcP1HP0gipbni3C4D1lwst8uEfybMkMMhyDKgEdH+ELxXTho30YZn4hwIwnS44GhuQ2XO1dYDeJz/gpOyhaOqcCor5psCDX/v4i/arDHT3MzRTPLn2pOrXraSin324Rnn2Ygh2e53vSzatMJ+9OzvOdHjhMofQ67rWW8N6ZOX9El1kzqinU3u0nPnOdCjTDPEWH1uAAAbIElEQVRPlFlwZpCsvbSIBPwkRFhJczlmjuEWE45eHInTbrx8bti6ER8Z7RbF6bcYnMLw6BT7xCmX2hnjTnUuoeWfwVlz4NsgqGahWeUf6IBURP2Y9UUNgVE4ggQERiAofBgNZtOLGI4UIQd1QwHXRG9QN9C3XbUvwy8c4B7Mel3veH3ivTLaqEa7DqwEq1NDPxLQbW+dZ+1A0Cj1pGfNRGC5+EaY5P9E9YYDKAJVUUEvixN81dxQ2PmNvf4UYgE0Kqy2GIUJqbJ8gFEQU32YpLkqcqnlq3yEo5IUd0fRPrvvhSV21xOYPWcOtXE4y2s6jDmlnvfcQddbETFYLvvwlXbrrV+zuXPnOKsY5amSNReVjpdRiITJ2lvTbJeNGWZ//C7u2uNi3YHR0WyX4+C8BNZTNX0JoOM9r7xmezCpVnIMAzTo8L3obvmXvnwgGQXX44yWCJC4XaWYIQmWPiPXooeht3ZEDbEYxBeJrU1AxC3bbC9Cni+q1XB7k9NlcJgXx1JwixgErRSZYk0EaR0XLn2kl5rQ7W5BBLq9rsjlphOP0MMNDQr/vM0279xKaNkeF/5Zk621usnK8YdQV1DuMvCJqE+0dTEWYieXy9cCCIyHK1caSFznbngHX9RrNOX4GAXVTw8p9RKF9iLiUzz9pHU8/0+HN5CZZA/WEFGf/5LFXnSRNS9dal1gHKSK6ASlL7OzxocegKmItoQbv2ANjz1qrffdDXaB8dCJTFFGOV04d9AKZy130LiF1up14azdcLva/0skCl7JrjpurkTAaCpY0XrcLv+tptBWOrfLhC+nvnUwPfJmKFVa3gjCPwPgPJxlgdeh6ldO9RDwJctes91Fe9yzUknoNL6nfr99/exP2zWnX+bdzuvCjctsTcFG++z511hiTLyt3r7O7n7tMbt13o02aliu2xQ0N//3xYfsgVVP2HAkZ7IqEGPjIkRKxcS/QIZBtZAaQ6aWQ9KH2HlnnuPKk5j7aGvN3TjAi9ZHB30lUKNwCGIeFNdBYGDFQBEOoaK93p3uPjHhIrtgyhmWmTzEPaPnVG9WEXOIUM9N6y2o7Od8x0dH8gS8M444PKNAAKjgGEJPx4w7cs2ohyQMPR0AFg/HKDDnJVXoasDSp2oDKrMorB/w3tgo9QKJKoXEQjOS48F6VGD5cL11J13CdWiOmyXurhN6Ed0Ro7Bh5Ru2cv5CC2QUJqZF4mTpyIyCX7BbOnzxJaUypxQWZfmmHfbrJ+fbi6t2WP5I3KFD+5qOgF+IZd2uXbuHXPbbLd/8jt34uc/YuHFjXBGqo+bbr3/9O7vllq/a5CmzccbFIaA36bc2rN3kU8cbS++HOCQlBcW77DtXfMRu+/RVrn7K6+1KvhRE/dGA+ljRKf8GfqGeeimJYXg34hc+uIyCGxaWEhNIyZ9o8SPTLR38ghw3OfwCp7Jm1BFxMXE2FfBXXm6e8wvvOaFBXOYISG9mAW8igCKM7ZhZZUal25SUUZYRA3K/N+m33ZhibUJHWg+Bj8bhTQTgQud2ec9u52++kRgNsuFWHTua25zb5aot+Bfwwz+jU3WbB/Na9dcku2DqBKwZZrt4BCpKQbJ0/d2U/Dofl0QhsAH+QtbY0b6WdeusBXVE1wZQ+aD4e2pqLHTWHPS6TRbOe+zFF1v9ww9Z1BkfsqannrBwXAFHzpxpbRsIsf2Ln1j4RZc6N8wdAkyKWRDgkc2KnZXvmfhfAL/A+CuOg8+svJOqB2+GUjR9oM3Vl0TtbKi2p6sK7dnWaksH3xLPaVM4BIFzx48cSwTVsRaP22WZFIpA+XM9sCv1WXNHLr9l+vjcqy8hnkfE7ZKILxIITst5KVl25exLbeaoKS4suiwCnlk1357asMC+cMbH7azJczA7xoQPNUcyWA+fID698hX74Qu/A0SY6erfBoi0DrBdhoIsMXs7WQde+9ysoFTmNB+bYNIvOvNcGz5suBMFH6nuvRUd8E195toIaFOMiHwybCJipBw5RSDO70EEXoFE75Lc2faR6edbfronFWnX+FMXrTJv6xCjEGFB7fstqPSnMJWEl04cDYh2PAcOifr9xEM9qAXC0jGPvIAMtP6Ug9qo5OXmvgM26Kp5vlf1oH73f3M38pXvkjx2NlrnAUCNXO5sareWknp4FjEIRH+N5ZQufAwbYVdPrgWP+Ib3zCAwWK4W1EF+D5a+ON92bNhkMZy6xbxJDXPKkGgbm34oRqG35gO+aTzEmMq1c2VNvb2wYr199f75Lv6M3EGr6go41T9FUI8IwJDr1i5zP9111+/sqo9fgYOtIe77nXf+BonD14+JUVDXZsRH2aaCbfbiT26zM0+ZCJNKEEEGvd8o9K/GCX/31XUazz0VlS7Y1AtrNrl83UGVTz5TdcKFDUIGH3hGwe9DESJNXqWQiFBcQWfiEjoT19CeGZjDL0DkMtOH2tSJU5iYbCjobrWxKwUSMg1+K8Q1Dq9qU1LGYIo11J2idJ9KKAXotbF6lwMwRkKUoxCB6oQjt8vrNq+3Et6jCWQjyYLMHWsAKVatJ/xzP7fLomJONEye0/NznNvlmSNz+YZ4HimEI3J6eZcl1Uhd/ZYZBb89LhOvfd0wVc2LFlnr3x50fhWCcO4jwGPo2edbxGlnWMsD91nij3+G34UHLfrCi6xzP8Qe7ELLM09b4q3f4dQGII9gU8333WNdW9a7WBF4l/FMMrEDC5Y6gpOyq7j6FqbOAzO+fRgFf+Q0Z7TZCbmvWAhl4BBexO3y33C7LFOsdMTpEo03wdDK7bLUZQo/rrrKr4A3Bfzc/M47+K55LyZ1y/attnT1MiIx0ncwFkoqWyewRjb3MjbTK8adZVefdpmlEnjrNUCNf1r4kBU1VtiZ4Bduu/wrls51n0moqK+2bz/4U6tuqEKyFW8ldfstHWZ5bEa+vbhzmcUDskyLS4ERAdhLHXrZXsegNwHcnT5pCvEdptG2t6p+IBYE+arPxAg14o9DlkKbwCLIJFbYhAqY9OzIZDs/Y6qdMf5UG5aVbd2Mt5grHtbCdv3gveg7JqNICoJKf81OthMGMstFj3Qd5b2ox3i2ybNyiJvJd/ViYD5ebnrt6QAIW/MMPx9UQx78NeATY9BVuRaGdj9jE0pICMJQY6IZHIHLYAJydDVyKKlqQrLRahGz7oKJ0GYLY3uEcgNyHvCjgN5yklVVXmHPP/KYy07MlsZLVg9nZMdbZmK4+zxgRv1+VG+oV5SP6Jzm8e6SA/b3V1fY7Q8tMEvEHfSwBIdfcLFV+j0vd9CimQpnnZU7xX7zqx/avHkX2n33/dVuvvnzNmXqbKSyb5YotHFy9w93GTiq2giTcDNhsH/8xeudKsOnp/2Ke1u+0nTaf/Ag9zq4hXsxp9xQWOLKc+oIblIf/avTSUah3wgE4hcikmIAOw63xFEZ0AcPv9DGSUdC01Ej8hHrjsdxU4pDjfv+F3SXdKxjMcM6JW3sIWKumtYGUNa7bHdDqVu+Mehu5dClsroSn/JbbdeeXY6hkPdIEbjGkhoXl6HP7XIv0QpUM2SDQ7gBfwjzCOAUrlOFJhZt8rnSfs17V3x1RIJKnjCj4LdGC6m3bzpKS635uees/VkAZ4qSiT18D0C1IOz047/3/6x9J8DH00+ngwARwVw0PvKwxX3q01Z/zz0W98lPWutq/PAzHh3Lllr39i0WlD2CIxwEV/iHU+byDuAMUXQQ+b6djEIgIdVGLbfLDTCqS6v32cO4XS5B952NFEqEvB41Qwp+JiZPmAgAN4cTvwCwntvlQAbW767+7yJE2kjXblpnb6xf66whPEZBtRBBR1pFHTSnSmEKEqISnK+B7dVFNjYxCxVdCyezNPvJDd+1lFikCRA/1bm2ucF+/9x99uSWBdaFNObTc64kyNgViP5jbM2ujfbA4sft5b1v2FgY6TAkInpOJYqQN5PnBCQis6af6vwueEyEq84xvfh1iIAZEDOv0Orrt2yw2oYGyo+y2s5m2hRil2ZMB7k/1hKxemjBciOYTSuFYEWJuAgPcYx6f4YBhkagwopHLKiWDR6sQWgGJpIhzDVJFdw8pBVy/xw7A7XDpN76Mkf1u56VyQKppxvT7PoVMAv7eO5w+AT/Ucpk3nU3FFpXNVY7Un9ISMHm2tWCx8ZaPDZiOikmBj/jFkH4aWcmicTDu7E3n+N405zQWISjxmymzxb+83nnytl5ZoSBksOlaADh5+JwKYL3t3r6VRl6VvNU0gJF+l1fsNfhF/7yIu6gc7IsC7D54fALmo+xcdFWWVljJcXb7Etf+pqL+XHvPY/Z6DHZCAQPSiSUfytSMNHvGMqJQeWwZfd2u3jadPvdLZ+zjJREsGkekFz0851MHiPgSdLaaP8zq9fbg4tXWCmOq5QcwwDj/k7XK7APTjIKgb3hf2ZSaQL7nFwMYaxdOOthuAXmNxHRZiacxHGTiB0xdvQY555WUgeJlERYZZI1PmmEZWIiphPTNnTIW+sK0Sm3WSwYBRHGBlwAb9u5nfDPW50FQ6Db5Yre8M+BbpcDGYQ4mImPzTnFPn7aTEuNw1yJ+qpkMSrv9uT1LTSM/us+UGmdC1dayIzT+E7wJumuZfXQH8x4tEZBbFxifJTaMKdseuIfmE4u9NQJQu9johU+7xKLnHuatS5eDOjxcmtAJRE+ZQpEuJGQ0VnWASMRlp8PoU2zpiefsPYFL7l6Ga5rQyZyOmTDlvnkkRmF6v/P3rnHVl2ecfw5vdGe3ilQ5FbpUGzFwiywhogTFGEqi9FJzLzMLctmdGSJS/hjSza3xc2Y3Vxclphly5bIEJ1sOuYFQUQE7LiUeynXllJoS6Ht6ek5pee0+3zfX3+1VFsoApOEl7Scnt/t/b235/s+l+8DM+N9Fxwe6fee9vP6LD+ETgTozpZGW950iPTPIUe7nMIusjnSRugZXudFxXZ94XUuvFd+CNoVnQ9AUDupaJxLo7C7co9t2LwJM1tGr6bKO8P1GB8DbnfeyXiW/4ISJ0mo7wEwPL3gSbu3bH6vNqEGCm75RUjDUHF4j/3p3aXWRIbKx+c+bLOKZzD+ZSYJ24e7y23pptctxLs4IjGBBUBcG+RapVOmWelUNApDiH7w52wKZgY14HFIybbt3GG19XWQkon9IYGoo5iV5V5vt42bZnnp2ajrPbZHb26jhQAIptIGeWOusSy4OfSOTsPgZhnjjMRNAVJFB+p/zTOGM1ZIHx3E5NXr0MiDBRTScXSEN0GlK3KIcaMQyS8CUNEMdFTT7gAHzhsUJOhijW2ZH6DcjjVs4m99hTmypcM6ccTTGpGAsMbWwXOqLLnoh5ZSiDntgoCCdrCKHoaYjn6orz1mH615306hUUjFR0A+XZpiERwZp+UHrXh0OlorLrgIRX3nzBEI8VB71NZX7IUOerVt2HPArrsO/gs2Vf3TWauyqmta2rCe7JQjbfLkcYBDmY00bj8uZwAK6TTjvgb4DEj8teT+hfbkA/fYSKI4RMCn9fXivMnHzxzKJ9+PTLWuJ4X1y+vLbQUcDO3UTeX/SQd9FSi4Lvj0X27hcLOSOcggdemsRQeNXUuahziDUTsfkTTJf8Ejr2FhBzAozFFpa8cH813imYboaUcJm4YwFLnN4Wov/XMLpEACCGIyi5Ho5fTe484XoTfckcHrD3cfed9eUuT4ECaPyXcVl5lBg+hKKaqpFqOLChT8l3c39tqiCzVjtLzcIq++bF37K4lkwI5JOwcgZIote8Gy39rKTgyyJIBJxt04gFFCcDVEfvecDf/HG5Dp5FvbO29b5IXfwnpXYIk3Th8QKMTYwSuUNXbylGVeII+CaxfqoFdIUT35dyTcbCtPHbHXwo2WC0jJZUcaQi0PHHB+CEW9JGG+sNNbDG0saIGWRqG+scH+s+ZtBwB0FyeRvA/89mqnhVQLqv7Wrl3OjjWtJ+yh0q/aE3c9St293eGu6n225LXf2JOzHrB5pV92IPb1DW/ZpoMV9pMHn0IrgR8IRfNkyV+fsf2Nhwi7zOwFOeGOsM2/dZ6NH3u+PgqegBObpHKfiE1yJ3wjMjWIwtr1jdToAMYgWrgZRB5NH1Zg6YbGAYHdxT+1t9dyMj0IcJElEaAwAsCQlomPCu/WBRATn0Eg1mCBY88ivIlSyp5EIsgpCFGOudJjekgrhokRbQNFqaVlXkjMKuPzB5gQdjOWcjjitas7adBfOo8VhTDJ7liIqAesYjVoypj3WpsEFrq7uT8OjSmFj2I6W8R3QzM9+IJakQltrThTb6mwSn6kuRgmLScAVNUVMBhO+OgctAlJAJQzviaIGn4WQeu3hOqRhHZUAOBEE1E4G7bZE394i5vHAMUj6Rucunnf/iUVM3EcLUJ/kKB1XNqPE6QebzxebQum3myLF33FZpXcgBY2yc5EAQmYm3js56L0BQy7jtbZ397baO/v3ufqJiCl9tHP5SxXgcJ5tLYDDD0dI86F4fguiINBvgxaNJUMJ4JaePw1Y53/guhwNaMEGKJoEKTiTEfdKU2D2+GIdrmulh1OKuFCUrl2WzNRDCdhVYw2tbka+Wi4rxbhJngQHpszy24pmuQmpD9Y/HPP41U+F6e4BYFxfkmAgv+G6i8n0FheFU65dg3hlMvQKoQtQJ4BGH0skYiAYTg4ppEnov2DdZZcUOBME+2LH7acVf+1GLupjg/X47Owk8gIeP9vmjkgUJA5opNJHCDddDZAQRwQAipu7Ph1GuD/3gWSXpUfggRbA7vt95qO2rLQMQvjnCjSJIXthtBkTSRsV2YGRQaouHBHbuKLuQEeM8jXUjPzD4GwbqMX9SA/BcdO+omr/Nr2HKCNpcWqbz9tP75nsc0twTzTUw6Tr+ONzavYnibZN2bfZ9ncUxEE8hlQu4Qwmby0doW9vG0lzo3DcWyMO2fDCEBoNHPoDpwZVc4V9aDjMnXI5yCKE2oV4ECkZHEcKxMRcLJxZwEeMkgalU5on3JDtBE+mAwFc1nSBCsmfDGIar8Dc44PxtUemq/aDEjDkTtqpOXhMKfwZPkNaZlOqP8zyBIAMEzmhzK+QIvBO3ABlZYzI75JOXP5G5NgaKsTdAlZMwGnGwEKlZxPtI270/kt+gHaLUbkQ3e4hquSnUNjNyGFknABnAJd3ocM6M4hduoa8U3OUT0kUNVngxQ3V+gmrUUAoUOVVbYNvoRWxnKQJHHahEiTgBLDknicgMHRSV02Ey1baSzDMqT14mkyyepJ/UbIIA/+5CG/pmoRrW9aHzUuDyAw/75qo/1y+WqD79um5mdBwQ8jJfUarKQCELQJ2wUNN7W3v/zgMbsTTWxeViYAgcRcjA33foPfZrBHXJJj/truaznW7toH/8J6q6qrd8+TOeJyRkdcBQpD6Ga36GtSUVLzMjBHTLDsQnIOSCDxdQTBII/zokmTbQr+C9kwzel0dbajXcbTuvLQfktkxqWiRdDB8IkWR7scqmnyasK5mix9AcI15IFXXoa7S29it4eXNsc1kNxzvauuqN9uIeElLilQUIuoofRL/UM5U1Nj7W+QLOrN12F3VAQK36NOHTb/LusgzDLr579wpoe27z5oeR/ssMiGDy3yo+9bwq3z3T0SS9gd9jM9xCorcEhvscMtrbak5rT9LNhlM77zqNmkL8AKOThQcO1ALVRNlnRi+5MtDID5qJlFEQrbfYDMAtgBE1kMm9vbyIyo9M8lLpGZeDa8yBtVzXs/bnHBReNJqv8WNCwrV7+JwIizSCMUEXze3f3a9n2EJ0wlpMWueByw8O2yr9ldM+ZafvaI3hOjCGyZGuQE17csXfcve+iVR+zegkUcx/eDR4gN9Qw7/4XzFjgeBbHkDfR+/hyQNkQ+QrXHjuIMDO1y00nLANgdZy6OigdsLDwbp/PRDAAkEkmmFONd3fxCixAGHIyGPnlmSoFNTMYvgXeRhsG/t54tIRmjX5IBHdIu5CCoEiGSip9ab4EGnBoDeZgfMDMESWDmzA8S0EhUFvPEnAUoEmD8jFZDrXzCaRhE4dwdraIpABbUgYnA/26w9m2esz9rvitMsvUgPjQ7ASE44tZiigjHHKVzcrYcG0W8hN9D1zizAkU+pHr16OnBs2+ov7QzRXyqb9BKNNQdt+0by6266gA5HcgdQwijzKySxRpiSShMOhK77eC1MTuNMiTc2W2TSIx1RzzdbggEHSuoQIQ/ns/xRp+sTr9vNOJ84KbwTAHiiqoj9uK/19lL75XbcNJZjyfnhdgdXa6JPten8D7ynaioD5k1HbOnv363LZo32yaOGe3GWCf+CE4bwzWftZ59HnvRP+r9NVZV2gA2ywillP9ChHlxObULV4HCULuWTlO3aSFRySzIc/4LwVFZbuA5OmgERBpoe1pxiVOdVh+FVXHvDkfoEsTBTotPRyhiJ7fXWPO+erco6176Xj++520qKsD7y0rtwdkzbBQIWEWo/UrwQ3CVHeCX135aHy+ij8IAz3Jf9/SVW+1Y+KLbt1v7K8sJp9zCGj+SHRpaHARNcPFTLP5NFv3VM5a74k3r2LLZIn983gJjCwAILPqfAhTiAIVOgMKL+2vtp40xW5Hbabd/71vWfQ6g4NqAymkUiTBJSbmU/vlVzAzvdjRbAY6KQYRWK7trceBPmXyj84XJgBtBC+ZQ/RAGax7/mMa0fBWk9Xrn/TXIOk9V7/xuOOYtV37N/at8sKB5ESD7Yp0V5oy1O4tusakTiy0/lwyRMDnq3gIMR/FdaMUfYVbRdL7H6/xIpb24ZqnVwQWRgMxU7pM7bplj14qZkUgOzYf+RTt9STgBGx1vgAdhx+5dVl1bg6MaTJS0VxMOqPcFR9jCvIloMtKtvLvFViVELIIMz+kWLNNdvLncgSFHAu76hDwrTZlg+ckAfAR4p7QDlN55SXvIVyFIeOAItDqZGdSj7jn8AuoxKRRaYt5UBKvMD6ozz1DkQ8aXUBwU8znqQiBFtCTTA9mdPH+F1k1cgzDrm2paD+1f1P4ASZdRsnEL4zEFgIqwY1wmER6pEo9CjIVGsiueQvjvs8yvrD71OfuGTgvDuBNbYhu5VfZu3W57Nm9lXMHZAkWz2ld9Ji0C2MASsGI0Z3bZkfFxi7LHEWiQAGsHjEU47+Z4ks2JZ9i1yoSJBkB+NWoF/WiMX2jxr1ddPP+FFLKWtpPOeo89/8+1tm7HIcubkE82TzQP7mlMZc6txHfDoON+ZO5Me3zhbVYyudBpssSjoOJMtRpGF1qxy3yd+kWRIarvXpJt/X7latt2uMbVQv0gQHEpy/8AAAD//+LdNVkAAEAASURBVOy9d5BkyX3f+Stf1d6P7fHerZ11s/AeBEAABAE6gCAkBUNHHcSLk0IhKe7+uDjGKSTqRIonXZxI0ckQIEABBOEWwGIXZrFYvzveds+0977LdLn7fPPV66np6ZnpnuneHVM502VevZcv85f58vfNnw3s2bOnaJWybAoEAgErFj3SBcMha9y7zloObbRIddyCwYBl57I2l89aLBazTCrDe9TC4bDl5nI2fqrfRo52W3Y24+6rugKlFhRKdb5t3077wnuetH0b15nuUigUXb3LbuhteIH6qm4GohErDI5Y7tkXLfTwEb7HrVjIW3Fm1qo/+kGL7d5ZOtGnzi12xt3Uq6uQTFrqpz+11Fe+ZMXRYQs0t5qlksZAWXFk2Br/+M8t/corlvz937Pg9l0G8S106FGzUNgsn6etMSsM9VnhzOuWnJqwPzjdZf9uumh/W5ezd/3Ob1lxx3YrptPm5kmp2X4vNJ5F/kWCIQvyryc5Zd8evWRfnR2wGupvDkVtNp2ydC5rO7dstwN791lLc4sV8kXLMaeolPni13aLNFlwueZ0NBq1EWjw0xd/ZoPDw1ZbXWOhUIgxK7hxU9uvvDvPgjsWsAjtT2XTNjA7ZikrWHtNq9VHqy1Imyczs9Y9O2zJXMbet+kh+wfv/lWLx+P2R9/+Mzvafco2tq61Jx553NavWW+ZuTlHuyubVzQ9H2HoFolEbGp6yk6cOWWnzp22SBGK8Ix15efs8XCVfbp5mx2qa7MQz2KhULAQRO8tZuzHgWl7Ppy1MO2p4Rp6xC08aiYty3kBOxhaa4diG60xVG25Yt6y/Kn97iw6ns/l3LysbV1vbZFnLJJ+mioaLbzucQuEa5nDGqMg5+R4q7ZQ0weZP/H5ruTHf8BPUxZu/aQV80krjD/FNcy9AHPLtWf+1Msf6HcgGLHi3KjlBn/O8RD/gxYI0YdswbKTGctOpK2YyVqwOmbxw/8GejR7bSkbLY2v5mSUZy8LjTvPnrOjz79kk6NjVlVbwzQPOnpBBgtAmjBdnQsXrbctb4OtXMv9QjlGuzQB6KWjyxQnB1ij3pGP2ZFijbUGYpbnWM7NC51zzZ5d7uM1PpVu5Sij9odZbyORsA2MjNtTLxy1L//4Vfvh691cPVe6S639xrt22iff9oAdObTb6ulXJjPn+uWvtRr1O63QdcdzNKdzzOk/+f5P7M9/+JyjS4hxy3NstUqgAhRujbQBBq3IA6ISrY0DFtqtfvdaC0VC7uHIw1RCLJ5aSKc6h22ECZ0cmnLn61qNshYhf5B3rmuz33zXE/a++/a5CaCFUQ+KJvjdUtQTTfo3HSj4BHQ39+iZGxy05Pe/Z5mvfVUDYYGWNrPJcYt+6CNWmJq27I+etkBtnbEyXRco/NGZbvv9qQJAIQtQ+MJVQMH12fW7yPoeBCSEbTyTsp+M9dhfTfbYWKBgG8Ixy2WzNpmatfVtMKv9B23j+o3u/DmOq7wZ88CBBfqbAqycPH3Sjp89bdnsnMUBR+FwhDZ4i77Oc5PUeym9ioyAKv7U5znATrYAt6EIRMQiMTffx5KTNpyZsQnAw6ZEoz249z47sGef1dTU2twiIKEASFGdAjGZuYxd6OywN04dtcxsEmyXAARkbQOM9lfq2u1I03rASdwygE7/+XH353o9Z+dhyj8IzdrxcN7qaWUcrgc85ZMHHJLUVRuI2oPhjbYvus4SQe7JsTz9nQcMXJGZi1hDot/a6/7W1MVQwy7+eG7zbADc8wobLcxaMHHAgnWHaYLWCdaLTJ8DCsHqPe5Yfuy7fB/mp1jpHN4WFtEaoGAAjNzgz0p0h2GkcpYdS1o+lYWJezQXhog98m+5b+tloMD1unsEgKBx6e/qtmMvvGy9nZcsmoi740Vo45YyTgjnNchFG2nIW+/agqUSOkYTNeSqYEHRaic2NcE8bioE7H25KnvQqq2GeT7HnQXIdJn+1I6bKf5tdb2bo/RF4zE8Pmk9w2M2OT3rAG1LQ61taG2y+ppqy+bylgPY3ckAYSGt/E2j6PHM8TP2r7/2XRtjc7WaYKECFBaOws18Z8Q0EX3AUL223loe2GS17c3uyRAwEEAQUFDxF/tygNBcW22fOXLYPvHYQ1aXYFfLeVrkdM7dVtQjrXtvGVAQQdUAlRJ9M+fPW/Jvv265H3wHsMACK6kBO1eLs0JqBxmPXRco/PszXfZvpyRRuBoo6Da6m8YyEghZKp+zVycG7Kvjl+zVXNLaAQihfAGAkLS6mho7tO+Qbd+6lVvGYdBZj9m9yfPA7dyQImiHOToxZh0XO62z6xKL8aRb7CMAhjCMX79LguYmeokFONLqmdA/2q1ftbgVtDvP5iwD6AhTt/q6acNG27plmzU18qxQ/EXdfeFF7VDXo+EotRetp6/XXj/xhg0NDVo1AGE0CHui7s9Ur7X3NW+ytYlapAAF96f76k9F9PfHIMrRJGPwhs3aU+GkDSJuaCwCbrhXQW3m3ByfUoCDdYEaOxzZZFujSCdoSJpjqsjrl4CH2Zb67wImOq2I9CC89giIgTkj5ODGjNoAJsHaJy1YhYRsYUHqkJdEITfG+VF+VSsXKSIqTNfys5YbACjQvkImb8kuxkM0Dgfd+lOcY2NSV22xh/8vqkOigIRFNUqaGeJvfHjETrz8mp0/foL7BS1eRVupW3QWABA5JUWYripY97q8TdRLdhGwINKsxQDCwpbq3CxoYpK77s6F7L35atsVqEIKFERe48tvFl61vO8aH/XJmxs8U0gYJPGaP86vOQcQeIZFm1L116Ds8m5+m5ztxou2aE6e7R+y/+2/f80uDo2uGlioAIUVHHhNShU3gVk8G3atsVAsYmOoGgqoHFQkRXATmsVNEzfGzu3DDx20X3nysG1p9RZL7Xq0AN+txfWfzr+lQMEnrhZgf9xgYulXUTf89ZescPqEBdau0xbMLJN2KonrqR6uBxQ0zupzljHvmB23745323fS49YEEKlj8c8y3iEWu63tW2zXzl3WUFePiiGPhkMLnRrqXvThTS3+QixAoHbMJmdteHTEBmDSep9E9J+ZS6MS0V5SDF07Wq+t6rNjQGJofAzR1yi0rEdi0IqaZ92aNdba2mbVVdUebQBj/v28S10NMAEPjIyOjdnx08edJCEeilg6GrLh3Jz9QrzZPta82XbWNLk2SoqgFvgU82pRjd4xfdcfPXJ/I4U5ex51xDPhOcvyyNWzG9YZnnyBoQcySPWwK9RiD0c329pwPbKEAtKKHMAPhlRIWGOs09bXfANsADNu2GGhxv0wfl+q4NUnsBCqf48F4pupv6wsFygALJ1EQa0AKKR7p11lRY0BtIrURywiNdrGf0YrURkFUXEhhUnOztrZoyfsxEuvWDqVskQ16iDWGKllBADoikXAQBnUDP1rCqgZCpYHJ0eQIugRmSdoWdOv9VE91kyYpdIsFz+Sj9jb8zXWjvpF98o66l4ej2vVc6PjJcp67XOjevkKfy32z7n8y931SZtJgYWe0XH7F//ta3amd2BVwEIFKKzCvNEk1aJXXhxAKB3S4Ko8sWeHffadj9mDWze5ae7Ec/zkT/Ly6++mz+7hVT8RHb6pNgrXI6LGxOPKlkflkPrJjy395f9uRXbTgbY1AIW4hfY/BMfTro59J4tvuY3CjYBChEW5Y3rcvtjzmh1nqXxPhIWaxVQKBYn4D+zbb48/+Igb+9lkigVV0qTbAyz6DFxSgCAMX7YKEv+nUmmbSc7YLEwojT2GjmknJzWBmJDAgWxzZIdQXVVlNVU1luBdKgz9LiAkQOTX7w0PTJqh0L2kspuambQz587ayXNnLACQCyLZ6WFX/3AwYZ9u2mr3NayxOOdmkBBwmeNn12MO+k1F5+oP4TVMsmjdxbQ9G5ixF+GWMWqphqP5+19dM4sAXRYl94fW26HoRmsIVcEEUavQ12IRkFf/HUuEL7GrxxZpHfY2kQZ28wBMN4Zw3PwktgMPIFl4CBAxg5oAmwVnk8BPY99ZouqhTKLAfWWbkOqaoB/sqhsSFmmsQuUJGw5vsOKa37VIvM5yqLcunuuwoz9/yUZRs1UhuZT6SGPkpjx9k0oBDGsjTZfVDBFUD7I5WIoUgSoWLWAU90xN8iGGROIduZg9DnhpCcYcWPDUPd6Y6dSbKf546lq/jsWO3Uzdd8o1PljoQwXzT//iK3YeCcNKqyEqQGEVZ0M5w9dnoXeVbWta7Tfe8Zh98IEDDCjH9cRSys93B+7SFz3IbpG6nYCCT2vXMG+pyfb2WvK737G5r3/FAvUNFjry3pL4l13rAmPGGwEFf/EaYeF+FruEr8z0G6ZntobdsUZfUqR1a9bawX0H3I5bcyUrlQcX+rt0v4lv1bsPfoWnBBi0GGnO6k9k84wdPUavc7zfdA6/OQkaon36pb6W1+U6Sad0TGoMqRlScyknPTh68ril0L/GEwkbZBe9Bmb96bqN9rYmjA1RPcyxs8/D9EQjbjPPLG5EI/9c0V6fo9Qryc7p4qw9E0raabhnLb/EHGDwzpFsZAbA0GBxOxzebLuia1A5hGw2H7aaSLdtqv8aDB8bgESbhdsO02fGz91AtgrTAIXDFqw5BGb4KboNVAaJ7dwZlUHqOKAixU0AAtfqgQgs1UNu2lM9QFRJKTMjaQACIKEG+wXUWvnZEdRkRyyy7e/bQE8/AOFF6z7f4ewQYoAsjYNbb+h0mOUoQBOlZuhBzTDeAA7mNiFJEWiJI4zeb7FIKSCTh3HsF9bmg9gvJOw+q7JqbC5Wyn5BTfTH9Babe0derjGVarMT4/Df/dMv2eDElHuWpPJbiVIBCitBxevU4Yv3dEojxjW//MTD9snHHrCG6ip3lW+Ycp0q7rqf3APN/L2tJArlVNairCIOR0kfh1l965tmVQ20GfGpVALLkCioDtWo2uTpoGdXKohv4enwjdSoNXCsnkV+Oo0um130gd17bc+u3XgboG8HLIixek3x2qP63uoi4fxCnnZ1Gz3QsLCtCwGxJ1GQ5JydLn3txQ7hteNv4HmBHUK8yiaxtJf04ZNVbfb+li22ATsEMe2sxoGbuvm08CZL/O5fq/GRhEfeE7OoA44iQ3gawDAA56zHfgF2zj8PjmRRR6T4Ww+UOBzdZFsieKQU47au+ntWGzuGCgL7jZZDSA+2ARxKAKDAwu2Awn1IrJ634uyr3BD7APqB8QLvSB0WEpQj84U5GQBUFjIjlpfXQwBg4MADbcKIsZgr2Nw0EprhSzZX9xE7nTxgZ196AewRdmoG1e3AGh0WGAgCENLRgvWjYhhs4TcwSIRjrgmco56qx6LLShTRWYAhjaRskr+96HnejzpiJ/YLApyyX1Dxx8N9qbwsiwI+WHjxXKf9kz//CobEnhGnD8qXVdmCkytAYQFBVuqr0J0eMg2SHoQPPXgAKcLjtrXNt0Pwdk8rdb87qR63GECc2xYo+MTUQuxxPysgWp/5u+9avm8ANQTmcGJqZe6RS5EouPlA3ep/VNbgMMWjE0P2lbFOewEjNRk1RkAR47MzVo+dwqG9B2zbli3cLg5geGuMGn1SrM47jAiiOJUGzG5kbNSOncAO4dIFq8JFNIt9zwgqhQ/E6u2jTVtsV20zuyY8KbBDUBEdVUTXWynl9aguMbQwgGEU+4UXUEc8G07bHDeu5ZjHOj1wkpb9AlKOPcEmOxTeZZtxWthY9xUahMqBWsJrn2CO1zuDQtdKjBWDtUgaMj2ccqEEEMQgPSZ53T5AqAA0Kcx0WX70NTrPzaSZYn7mZkueD8kszjmAnP4d9kr3GmtpQLrBPBP4Ur/UT6kZZGw41JK3AdwdM2hAytUMqlLUneVkwRcBJ6kIVqpIHaG1cZoPc/TpSDZq7yjU2PoQ7pTcpNydUvdcuTuvVA9u73q08ZSU+s+f+Zn9v9991tHal1jfSssrQOFWqLfItZ649bKa4fCOLfa5dz5hj+zc4ia9Bk0P7MJd1SJV3bWH1H8xiNseKGgE1FAVLW7ffMqy584jMq5yO7VyoPBHeD38Pl4PX6/N2rv/0Reuco/0KvEWa9UohqN9ahQJwiQGgT8b68NNssv60HtviuDtQByOKSQMGzColBfEhnXr3UN/u6kj/H4t991TMwSRIiC6x0hSdgjHz2CJn81bBPr2wKQfwg7glxo22f3YISTYGS/VDmG5bSk/381NDmiM5EiItNyzXwhiv0D8hQTzIAHzFOv14IJnvyCfjL2B3fbe+hHbUvscaiOMMGN1Fmoj9oaTFlARRpEEQoBTSpKwzKLnhbmSHz9hhckLcHwkW5IijKUsO0W8DqqTZKFAnI3nuh+18bl6PGzk0ummroV0e4HQeiQ2GCvO1tAqjgXVJC7W9ZKoTAAiarjoYCFi5/lxgJOakKhw1lLgzJI7JamGnim5Bdfw+b3ZhB3GfqEBdYSAjFxRXZ/cnZdc7T1/oltXIZykbV/847+y1zq7nD2QwOKtlApQuBXqlV3rHjQZaJUGZDOSg8+983EkCQfdAq/nwi2OPBz3ehEF7hig4A8W4yqgkOvoRAccv0qi8Aenu+3fTeXtO40FO/IPP39NoOBX52ggOvAvjNpBQYT6ktP23dGL2C8MACBC1qrAS1ioZwjgs2vLTmfw2NTQ6ObYW+0R4fdjue96BgSS5c2g2BBdPZdwdzxq0+hUZfA4GMg7P/xfrW+3J2WHgDTlZu0Qlts2/3z/CdXSqs+X7ReS9r3wrF1Aid8Ad5XnhHbbAnxYXhjWA6gpauy3W87b1qpp+pe3cM0GCzbfp4Gm6EU1+jXr2FKLrsMTZugFJBJTaB6iNjeetEz/DIAEA1OqDNGuiWyzPXv+ELtKZhaXCAxAUptN5K2PeAhj2CFoCQr55hP6TJukEpimfQ8BcN5bqLV27DCGCFD1EyQqz+ERItsRP0CV68pSm32D83TvHPce495bsF94f6Ha9iPLiPFMzAEi3DpBHer9St73Bs26o38WKJAU+6XzF+2L/xkPLr7fKv0qQGEFpkS5HUItTOSXjzxsv/q2R4iHAOqn/nvRDuF6ZHWTFsKsmkTBrS66ywoWAYVvIVE434lEoQwonH7dMjMT9n8DFPqwcP8/mqLW9JlPWnTnDqeuEFO81gLnt1C/6y8KWND72alR+5vRTnsqM2HrMeyrYdGcYtcdxoDyvr37bdeOnZYgvoOkC24RuAPApxPZ0zkBBK1acrF84/hR6+vvIx5CzKaxQ5hCzfBpDAE/jB3Cxmos9qF5Tu6O9M/NmRUczuVUpTHRblvxF6YxUHwZk8bvhVM2xba4oeDZL9BKgAMBhzh5Qyhjv9N2weqJbZDDTTJUv81zmaQ/jqM7TwjVusSi+cxOuyj7hCHsEyTr4GaZIXwxxlBzwMQVlbJ6TciOdaB2ONvC2oN+ei7g3B0HW5EMtABlIgA0QIMmmQMRtFmQRbEoNmJt+KFcjR0IVFuU9olJR5AkCNh1FFP2AyQqRwmwIANPP0DVMnpw3Y5qbAUYUgCGGRr3AMah78F+YUuA5wyGN+eMVT2woIpW6r7XbdRd8uO/+K//w3547LQDDv4m9ma6VgEKN0O10jXStan4OqAP3L/ffvPdTzivBv2ihU7IrlKupIBb9HnaVw0ozN9OS4o3RvOHbvaDDxQuABTKJAp5gEJ6esLGcGlUWNyqqUmr+tTHLbFrh+UXhHC+1q0dPfjRb20MEXMaEPDq5IB9eeySvUaY3y2ImhWUaYKgTC1NzXb//kO2qb2d+RVygMHfqV/rHit53LFtGq173rgAETgvhK5caoaJyUniIZywsx3ncENEAgeD60PN8O5InX0Kd8c9tS3sXmGCZfEQlnKXG7fj5s8oHx+Ffpb9whAqhJ+yB/9xOAPTDVgdx6SOkEniaCFsR+Lj9pmWi0iKCPWdSxMEaTtgwYu2ejkY0xLbBAECSJjyo6/jPNGD2gH7BJhnimBLCusdbqq2eFME6VPEvv3MbgQPwBpECcMNBetDzZBG06FIi767o0CP+jQJGIhS93vzCXsMOwGJ/edg1r56VHTXEqdxSjMeR/EI+R4BqnoBFo0ck/pgRe0XdD/+uXDQzJknc1F7slhra7DtoEsE0aqoI5Y4Y9zmVLYKPztzwf6XP/2yu8yfx0uto/y8ClAop8YSP7sdDk+Qr/c5sGmD/da7j9iTe3e4Gjwrdaa8nrJKuYoCbsJq8VsF98juix3OyrulldgHlBVjoNcACgWAwszUOLpeZLkSpxP5rh6JQhygIAPI60kUFhLGf5C1QCuIiiQM4wR7+hHulP91stst7Bsx+lKI49lsxra0b3YGj20ELqKjnjsl167WvFP7VHdG0f64X4y2cONr7vB82ivQUhq30HMXyCtw6rjl0hnsEBLYIWRtN9b7v9q4xR5pJFQyVv0CCKrR3cvVzsttUsrHR+oI0byT3fYP2W2/iiy/Btpoty0Z0hBuBJ+oHrAPNRNsrYBbIu6PwRqAXdMBdsn6rrwElButEdpNE3OhkOq3/PCLXEAAMNBIIZPDwzJjYcVOSKAEof4XX9xhp7qaLL8mYz14M0zVciqTaaEdQhIwkKbtjxII6V0AhI3YTBQ4puBI5XQv7692/LLZGGfMfk6AqqcBSBlI4AeokmRipYrybSjulcJBNygcNEDmoWK11VbsF5ZFYo1fitgjf/8//LmLraCNrb+pXVZFnFwBCsugmAjvAsVIhEhZ39RgnyGi4scfecDiJCnRUS2OvqTBnVR5uYoCbgFaJaBw8thr1tdz0TZv3WkbN20lwE+1u7/PtK5qzFIPXAMoSKKQBCjkiBIYBCgUiJBW9+lP3BRQ8Jvi6MMXAYYIYmDlOOhS4qiRTvtqcsjqYKhN7NCnkS5op7V3227bt2evi+joBzHy+I9qWpmiOS01QIo8BusTLYCYiF2c7Xfv8uBQW/3iaM0XJW4SaO7p7XFhl5VoqgZ3x2H05zJg+5Xa9fb2pnZrjVUjXkb/zp/YrN9/v77b6d1vm/qrz9ptC9wcVzho3Cm72ck38ou8BUYQ3f9abZ+9vWGIvgkcpAkYRTyORsCCEjbJsIBrvZEujZV/gxJFA4CxYpb8DlI5MMfwn3XnyzAxQD4ZDlhwdtJOn15vzwxttclNaRsl7LIaJw8HliP3WYzeD628i0nzPkT7u0uhlUmX5Jowf2su8UupVa41qirCPFCY5x7sF54NTtsLoSyqissBqnTOShWvzR5g2JkLunDQe8gfEZU6AhChvql9i7V7pdpwJ9fjr3n/8TvP2F8++/wtqR8qQGGJM0HGPH7wiirEpb/4yP32a29/1FrrgO0USRcEIirlxhRwD7Ye8lWQKJw5edQG+rrdzlex7ds3b7f1GzZZGKal4j88N27lgjNuABTyLOLOZZIsfLcKFHTnhQt0DGaswELHp4btq9gvPDs3bZsQQaPFtUncKRWz/9Ceg7Zz+w5LoBpZqRwRTiIiMTcAoYasjPvRt29vJFEVdhO9M0N2YrzDJmiLwIxE7/ovOwSFcx4ZG7ajJ4+RI+KiVWNrkQRMTyJ5+UXCLn+kZattrq5312Rhlv6Cr75TxW1ffOaktvq77Qk8Dl7QbjuStjRLgewXRvn7tbp+wMIgfUUNwTkBdu/B2h0kitqEtAAnREc2vWiroULt0M/Rfm7c8iOvARbILskc8LgjvysBFJ4xuaEJO9m71r4Z2G2T63AuRIQQygG24KJgFck9XH0TcPcG1A/vw7vgoWAN0o/lJ2vy+6waJVFRTo2zxaQ9HZy1UxhS1gIYvABV15Yy6drlFN1T9FU4aOKV2sNZTwqyCamMdFSKjKlz9KdyJ8wdr6Wr/+rbxv38bIf9LkaNt0KjClC4wXjpYdWfr2Z4x/5d9nnUDEr/rJIXspcx0Q3qqfx8mQKildsNrAJQOIf++2LHGaupa2DM8jaH+L+G7I+SMLStYcwYS285WeaILQkorIxE4TKlvAVQi5+WXpnNyRtihqRKPx/vty+RVOoCuvLNzlUuZ5O4U7aRjvr+A/d5WSc5V9kodb3m8HKKdzbW8AWM8bjvLrIy7mncZrVRGFupKI36y0MnrWOmzyW7ElAWOJsicZQLu0zWyZAANMClG1H7E+Ea+2XiIRysJ3KhdoUYBqptYmZ36gLvzya1X14QEvUrnfWPSrtt7cAziPg/Wd1v72rqx8MlimSG8ShghBipItbSeoxj2wCZ0BUpjRtxuVEifSiQdrww3eE9LCWQUIRuATHHyRkbG8rZ8+nt9jSeFaFqYiiQ/lkye4X/VrtkizDDZ4mbpe9/u9P3k6GUY+XxCpZD+/L+atwUAjvJOL6B/YICVPWTK6IBSYpkHatlv6DkXW8jHPQTeJi0ARhcOmuOqW1++/h4zxdtiiQJ7EbK+Q/+41/Y+EzSA58cX26pAIVrUMw9aDyUvqWo0j9/4T1P2rsP7nGLmgZBZbkL8DVud08ddg8z5FsNiUIW/X0vLne9XZ3kEciRa8ALVpSDuTa3rnWAoY5wzCrLki68RUDBnxj+AijAIHdKRXgcTM/YD0e77UtTfQQEMluHO2WafAtJ+rp90xY7QMCmFiUIgrEop4KHFVTT9YsWFzFxpYduh4kdbAFkkQraLzp+AZuJY2PnLQ0AkK2CshMqQdSFi51OipAm/0MCO4Q+mN462MZvEA/hiaYNhDrGrY+2KLKi4LXfL7/uO/W9vB9insqlcK7kLXAGHUCKuAQfxMDxFxp7rD5CsCEMHhVXIUDcDMfesEPw8j8wkNgBFHOzvGP3op0z4+HmKlKEEOM70zNtJ2bX2NMkmLqEaq0xkHGhmAtugGVQyfgxT2QUeFDujmRw3E70R61VUjOorf4sWD7L8EbI76+u9yUqY8yFF7DX+CEBqjLcSwaedJI7rlzRvVSfwkErnfX7CQftpbNe2XDQK9fit7YmjcAMNkG/9f/8mXWRirtcMr6cllWAwiLUkqeCDxAUalkqhk89/hBuXAqrwvNbQmqLXFo5tAQKuOUDQq4GUPBvPzszbV2XLtjwQB8SHxgrIZczGNRpl7Vu42Zrx34hphTSlCUBhrcYKPj9urxAF9HVwmwoF0mc9M3Ri/a11LA1ETGyEbGygjWp3/t27rbdZKSsralzYZCv507p1V20JC59jdEau6+JaIN1XqAn3Udzv3d60I6OnbOB9JjFgyR8wmVTz4rcHN8gHsLQsJf+eZwtpbJKfpr0z+9vIf1zvMZL/yw1A0zE74fqvduK6KTdtsTzszD7Y9gvKH/EKwC8JzAC/GR9j20nzoLMA7MKZuQ2HTBwwIUrjuFzHPWDE+JTYZidejGTsfNdEXs6u9leq260asT9cerPiyHzX0xUFg8TsNJ12CG8v1Blh3B3jHNfAQS/XXpfiaIxVFF9+nMBqvjQg7TkWQDDzxWgijYpP6hnoqqzV6aor7K5UEosz+ai2vbQVyepKtHxbp5jy6Gi1rff/Pd/amf7Bp163JeOL6eOClAoo5ZvhOjcg3hYf4H0z1IztDd7uyktiBU7hDKC3eRH9wCzoKwmUPCbNjY6jCrinE1NjuO+yNIN80yTrVFJhmS/sG7dRuzDJCjVeo340i3S/tVl77cJUFCL/AVabEWf5R0hV9xj2C/8NfYLz2VnbHMkhusb9gupWauprrGDe/bb9q3bkLCQuQ9L6IV9VT05ibwp++u32m5cFeNIKPwylp60o6PnrJNkVmEYWBUqCD0vo+OEXT51wjou4W0irwXsEIbYWX441mi/2LzFdtTw7HCewi7rHn7bxVju1qI+qn/6k/eKDBvHcAF9kSgBf0fwoiQnfDoxYY/VDllLFCNYzsmTgRItJtdcppC8JxQ4CcdIG0lG7NmBVnvaWnDPDVktah/hCyVb0uwV9FIOhSiVvDsft8cQyzcB5N6sKId+n2mKU0fInuYM9gtPhWbtvAJU0T7RwVM26axbL7qnAINvv/AYOTbeg3plPeGtRZeKO+VlGv/WH/2Znerpv2mDxgpQgJZiDu5hZbFVeWj7Zqdm0LuK24VJN+i+VV5ulQJuUWGRW3mgULSR4SGrJpmS0hn7pYCou7+v2y52nrcs7oZxQgRrTLOIcesammzTlu3W3IKL4fXKbQQUFjYTUno7WCQM09m0PTeucNDd1osIux37BfVfEoZ1bWvtvn0HsV/Y4Oa8IiOqCPxmObeZvARH1t1vtejO/ZJGunBq/KKdnECVwznV/BYGDMxgQHkWd8fjZ04RLzZrIVQ8XQCEh0IJ+0zTZrsfOwSFpxZA8NunOvX5XiluntNZ9Vm2CkjLsV9IIV2YxfiwYFuChPuOT9m+xKS1RlNICLQREXV0BeAB0fpUOmYnZ2rsqdkm64e2zfJ1ZC5KzaD6xSjl7jgLangURvluAMLGIIHe+HGhu6NqXs1S3l9fojKDxOOVAPEXkKiMA3oakaDot9WwX1BciDg0fg/qiEeRYzS8iUBpNel6q3Vr4/v5P0Si0F+RKNwULXnWAAiX1QybW5vts+98zD78ECFQ+VEEVrnmLvOm7lq5yC0okHblgYLZiWOv2PjoiO3cQ7rmtnVXSIDSuBNKHdGHDYMkC1GYW55kS/lc3lpgou1bMNarlW+ZirdYe595vY2BQvkC7QICMacVDvqpsS77a8JBK+lSG4um7BfSMPudm7a5dNbNBG5SdsqsYkBQJEHYhSX+DsInh2HyFyf77Oj4OZvIzFgVEoo44ZQz1HGp+5K9gTfDNMGlEqR6HmCfKH2xwi6/DTuEBoVdZkfpJHPU67fP3eQee1nYd4nnfW+Bb8M8X4J5roVWO0NztjaSsVrE9XK0zsJOJ/FQ6EomrBNVUj2qhxjneSPlGU4K5o3jzbANNcMHiKq4l9DHYewY5AmgsvDe7uCb8OLfV0+Q5qPiIgzhNfOz0Iz9iKiVfoAqSbWYNitWfNXLOPRrl4cH4aAPABjiPOuroXpZsYavYkXiXSlsFD7/R39qFys2CsuntHZRvq5GoZY/RfpnpYBuqqlyLMJ3LVl+zZUrbkQBt5CsElA4e/q49XZ3Evc+bA1IC9qRFjQ2tVzRpMmJMdQRZ21sZAhffwzxcJ2cgwEKPKzHfmFj+xZAhIIJlZXbGCiolf56q8VZf/I11xw+NzNm3yC647fT49aG/UK97BdQRwT5fB/GjruxYahGwjKHAaQAQxoR+bpEMwaKUesSyOD8asCAbtCHvcfrZHccGCTsMnSbROY9yzWfIv3zh5AibKzCDoK7ixGqPW6cea+Uy7TQ2Eg26YWDztpr5FL4PsZ/vSzo1bhSIhyAht75OFNhXyCnSs8g0L9WdNXuvIqojO9zu+caq8NjQgaMskS4HWhfPvZuPtI/xX64iERF7pSvlsJBK8HWStov6L6iL3DEhYPenw9hzFmDMWfCbQrLjTnVrru5CIjJyHhyahqJwn+2nslpJzn3N8DL6fs9p3qQikETRESU0eJ7D+213yB50y68GlTk7ijL0EpZPQq4RYRBWB2JwqvW133R6uqbYP64oDHObdghyHixCl29XwQSh2B8l1BHJGennGGjfP/nUE3IyHHH7v3mojtyvXTst7NEwe9T+bvmuBP/An5SSA1emxy0v5noshdyM7YFC/sIm87J9Kw1Njbag/vvs83txJrAxiCLhCVDTAgtJgIIWmjGxsexQzhu56CVkvVkUT30AyjeQ9jlT+DuuLeuxT1LiofgFzfG/pfb6P2KJ5svopN/rPyzftD31Sqq29ttmw3hgvo8gOGn2C8QV8hFI9Tvoqbe9ac2ascsd0cxQenj3wUD3ICawenjOaZz9Kfzb5fit8fvg/JIZFCFKUCVwkFfQt3SBFiIIFqQ2+ZKFd1XgEH2CznW9CP5qL0T+4U23FMVplrFb5v7che+iMdF2QRd6uu3L2CjMDGXqwCFG42zRDD686UID2zdZJ971+P2xO7t7tL5tKZiCpWyqhRwDyjP6moAhWl8+C+cPYX6Ydh5OkiyIMAQJuCPIjWu37gJKcJlIz2FQ+7v67IejPGy7KoTiWqbRf++Zu0G23/oQVZdNZQW3+YShfIB82ewlkP9OYM6JAMTcyl7jnDQfzXZYwMBXB9xa8xh2DgNfTav32j37T9oa1HBSPstiVsSu4Yz58+6sMvFzByhguMu7PIBmNOncXd8qGEtkgUWXgDC7axm8B5pUaJUYEyOrc4f8ik2f4LHRXSW+8n5Hji6uDO4bv5S/5JlvKvK8usVfbPI/OrCW+AZxPMvsdvGmdGqaKckBAIIGZibLPz3gCTeD0DYhbujglxlZfhAZX4PyutdRpNW/VS/z2qf+qN8GZO4hr5IvgxJVJIkBWvkmAJFXYabt94sgQWVCSQwtZDqs3O1tjdU41QRt1777V2DaB0lv8rLR0/ZF//krzA0RvHFhBaAWG656yUKmiZa9Hx3x414MCiz40cevs+FXRbJRDgRsFLeHAq4RQPCrwZQUA8k4hwa6rOuznM2g5ukYiloKc0gLfCCL+1w9gvlY54EHHR3ddgQbn6KByADx11EOrwTgUL5KDpaiybQO8JzIObSQzjo76KO8NNZy35hFk8Q2RXs2b4LD4l9Njk9ZS+9/opNIk2oxkNkAIakhfwztRsIu7zRmmNVTsVwO6oZ3JPsdo1aFPnmXBDZqrv1cZ4iTAlYEucpUqKKe3UvnIsawJPJuNq8XxW7GNZ9+RrVz6GbKGW1uvvqu9wpBbpO4i2gdNad4QJpqyVFMGvGOEE5Dx6wGqvGaFVhtG4XNcNyuq9+imT6k70G/BujW/KZoI74WWTOhYOuQbqgvt0kaRdtjoJhJblZAHXN72YbiTmScGBBo7yS91n05m/RQa1vMlj+zrPP2X/40Ys2SSTPClBYZDDK7RBq2Q390uMP8veQtRF2WZNDuyCpIirlzaWAWywYgNUCCn5vJCHo60FaAABQSGOpFGS8qLwMTS1rbPOWHVaPHUN5kf3C2VPHnJpi/6GHWEXUUFp8B0kUyvujz/4M15zXn9wpwVJ2enrEvk78BaWz3oDERbvYKQw+w7iRFjHwlJ3DDPkEUoiKP5lotQ82E3/iNg67LIYPK6CTYvQYUKizAJwABnQB0kIHCK1svAf1HiTkNl4HHlgQANDJKt61RQVEIkhSEVfDYpa/HLZLeue7q1tzQrt5vBBE35sFDLqju1518KcdsBjolKJeoo54NpS2+wtRexvJm1r9KIReL+evUx13UlF/VXyKK0CVNnLnAEg/xCPkOAGq/HTWKwkY5J45BNj7BEai7yUjh5PGeE256159tUNHd6/93dM/tu929tnQDLZJzNuKjUJpuH3m7xPkfffts89hh7BzvZdRsAIQ3trnwl9YVxoo6OGQZ4PcH6+SFlzqcDkgZLCo4EtzBK/RSrtuQzvGi5eTR4kyAhWp5Ax2DpejEd7JQMEf7YUMSe6LSYDTS7hTfnnikp0gbLDyR0TYdUm3O1DM2bvCdfZLzVuxQ2h20ojysMuq11/s/Xu82e+O6QggzIMDjuBBEIwS0IhIiMHYJIB0xoEFx9S9C1wznbTBsduyjjjpgtSU6pn35/ooCQOhmItZXGvnyFGRaiQAEhuOvFxJqVSAAQmFV6erflkvapZPS70LLKgJE4xBDXYhil1xtxni+X1Wf32AlMKd8hjhoH8QSVmP8lMwrgorthLulFJ5jAHuPjKXsA8EGlyMCaq+q8v3n3vBznR22Q8u9tnAdAUouMEWcxBI8NUMSv/8+Xc/YW/bu9P97gOHciZyV8+S27RzboFgdVhpoKDunjz+mnP527lr/xWxFPTb+NiI83aYIEiQ1BEyXpQ6QjYLMnaU/UK4zH5B18yXO1iiMN+H0ofLCzT6b2gQgRGNZJL2Y+wXvjrdZxdwoXyA+AufadhsjzSsww4Bi3qkCrebqNtJEKRaYOfPCxkZSU5VNWTBxBCfAQdOVRBCFQWT15ZfYpRSUCkG39vK0/fSB+8ccWe5F+p8/rsXaKQoiSwuXCbVgwABv0jCkCat8+xaK6aauEwpoHMOMCiQgbtcVSyjaGxU/GslMpfOXrSnBa74v5W+3jVv6pdvvzCO/cIL2C88g8toCqJIBSOqSPZzM0VXizeMMrb/GKC3K1SNUajnnXMz9d3O15RLE77+/R9ZNQnj/vbUBRsk18M9L1EoD7usjI6//o5H7ROPPjhvh1CRItw+U9s98qwKqwEUlD3yErYJtXX1MP4tVxkvKvjQQH+PXbp4wTJIH6SO0IMlb4dqJY9CHdFK8qirwORdBBQ0EzQGKlqc9efsF2BFF2bG7cTMiD0KQFibqHU68zx6c9Gj/Bpd+1YV1w4YelEAgbELxkfJxNgNSBhxjNqK7EH1RwhpuLnXWeVSCBNMOILnC0GjAuioDRfQAEaevHh/4v5QoyjvDXa2SgttuSRVzKB6mEHUlOJn2TVwjcJnS+cdUIRErsngGjrdThInQEORep1aoyTpcBReHrXUR7XGLwu/+8fvpne/j24+MtuE2XqLGHiignmB+BJxxqkawLBcd0rFcdAQdyP1+fhc3D5sgDq+Mzp3E/nc86ke6VnN4un0dz/8ifUNjVgNave/OXEe1cM9DBRkhyCLYREozs7nFx4+ZJ99x2O2ttELnFOJh3D7PQtuQWDAVgsoCAhISuAx/1qP+RN8KcBc8UsG471uEkcp+JIWei95VM7ZLzQ3t9mWHXsIvlTHaqKG0uK7DCj4dNBYqGinps9KNuWkcuy8svRZx/xz9Iy91cWTIjCOqAGkVgg1XiAD46DXSBi06whMXiVAmOkAKa0DccIeR0kHj5cH9vb8wPUOFPjMuLxnlwGR3/GiwAHuoMXsLIBgDOnBMO/jXAzVXNIm6hMwUIBiAYbxHU7KYEg0AkGFy/Yp6JpVebkOBUSp8tHw7RdOGwae2C+cIxx0PYA2xkk6z1v5r65Qo+jXJTXaDGd+JBuzD2CbIDWOwIb/+9VX33lH/L44aQKq1RfeOG4/fvE1a6irYekqIFHouDclCv4Ox1cnPLl3B3YIT9ihLRvdKIs4Ei1rja+U24sCblLzlK8WUOjv7XJ2CnpoFHmwgGFYI8x/89arjRenpyas6+J5Gx4ccCmSFa1xhrwQ6wm6tPfAA6xGaigtvkuBgj8z5hea0gH/sfGP++e9de/aFcIWnJEh0f7qL1m48Rybe+385e4Ks4aZi3UEYnUWqG5F0kAK54jsTAQMuFaM3bEXsZjynvG9BBz4YUHhPLeIcH9AlEoR1UxxDmfFZB+poHsBLYAEXEZdlQADAYb89AbLj+2mbcoKSbsAC7prpSyNAv7oiGYCrspbMgPdXyX+wtMYpA4izRHsU1g0qWckfRD99Qasc7EmFC+BMA22G8PWd5BBc28Ag1TqErjw6+fUu6bI2ysaj1lHd49943s/sjif3dSlh/ccUBBAcDseFm6VnevWuHgIMlhUEXNQ0XmVcntSwD2kDNNqAoUYLn2SNAksqijyoubEug2bXDyFBAaPftGMGR0acCqLadwCxVA2ABTuBvdIv49LffcXUP/p8Z6mpV69euc5SQIgQct8uPWEhWp6GCfYhIwYWfiLuTS8utGC9duxUdhogcROJACj2BCcZ6J5NgxObSDQ4Ip6Ri+d6kGpnHXcW1O83xe8OkL415SBhuy0FaY6rDBziQtKKgmxK4UqzlRbbvh+K6RJiUTWyIpkYQFNb/C1fA6K8hp9/Y0QoOokER7PAcD6UScoGZbgmYqgXC3ulWsY5435sO20uG0KxC2BLYoiV+qf6nXDqQvukiKQECG78eDoqH3z+z+2FPFh4kgWXCJDOvz1e0miUO7u2FxbY5958rB98rEHrQbkpFJRM9wZs949qDypqw8ULi8HAgkCkQq+JDXDRmWOJMhQmFDGfpH0YbC/x86dOU6chbUEXHpYyJOG0uK7XKLg0+B2fJ8HCQSJiqx5HVXDiNupu+XebQzIjFC3i7/tjBWJlRL3WbB6P13B+C15HlXBGXQqqCAiqCDILKhSLLLLzwEKs4P8DXGEfWiw2v3m6i19uuZbaV74Ng6F1CAShKPYMWDXoKybmnoYNiqZQXbwAbwkuDeMrQIWrknRa/6g9ULFf5rDgAABggwqoRm8QpIAez+qowI5xfm9BgAYcxJlL2Olr2pwa4+r7c5/8fuidS2C2n14YsqeevanNjIxaXUYMOaw0RHNFGj4ngAKkiCow44gRJr64AMH7Dfe/phtaWt2x6VmEIiolDuDAm6CM6BvJlDwKRPgqckDCJQ5shb3x81bd7pQzeUSqBmkCl50xvX+ZRWgcJkSb+onbzHkFQYgkBCqhrHnJOZnAjlVQsFCLQ/C4zfwVYyZPzGIyHoL1j4Ic8Z4EWbiJAeLtZzfJHkopM6WpA8weUkZ5tnSYheVHXNABQkD9g/F3LTlh19GkjBZBhaQUuBuOtf/COoK7KZCqCnoS6UsnwLeXLh8nVwq9afjPkXFJ1QEDMQm9X2x391Jd/CLTwvxxGg0YkNjE/b9n/wcicKY1ZOvSCBBpYRn727VgxZvEcS3Qzi8YwvZHR+3R3dudUTwwi5zjk6qlDuGAm6SrxZQIFhSf+8lz5tB7nCLFB8UKCCTvCCaSDG9mP3CFZdWJApXkOPN+qJnu5gLW7jpPH8wc5IguUBHbmhzFmo9jIRhPcfZyauIyRemnXQg1PgBvjZ4x/1XogAW5zB+DGHoGGn1j7r3YroL24LndUOvnqWCBV0NaHFgAU+J/ODPAR9qA9IqzXMkC4W5Gsv2PcxXhOeytVh8al7RnsqXqyngL/Xl5Cv/rCv8c8o/Lzzn6prvnCNu/Sw1VyChd2DIvvfTF2yU5E/1VVWoG2Slcblorv2Pk+dtNJlm7nmS1cu/Lu3TbRnCWYSQhMCPhyDJwW/gyfDBBw9auCQ5EJLyF/yldbVy1u1CATfRmbyrIVE4dfx1GxzowZCHwDjugSlfNq6kgD9/5B2hhUT2C5s2byP+gi+CLju/AhTKiPHmfHQgAUO0YHTSIuteEseF8WqkGFPZJDQfwKhxF3wdt0VnY8Bx3CEDwRoLNr6P00vjCBMv5iYADezoqaOQvmjFWdQE5EsI1j3GISUL8+otzg1ZfvIHfL8JCaUDC8RWmBu33MBzXh1usrPvJZ9BbmyX5ca3cz95QvBzpdwSBcqf7NKsKI2iV+3dSmLxPvFHJS88d7HbnnnhFWeTUBsnQRjr1HyBAHqGkuRz+drJCzZzN4VwLrdDaKqpdjYIn3riIWus9ozPKtkd56fBHfvBrZ2axKDhwuCI5Z590UIPH+E7iyzMvUio0eqPftBiu3d6jEGzfYml88IZu3DuFMmdYAJYqeuhulGROkLGQJlMCl1fjDwPO4i/0H6F/ULFRuFGVFz53x1QIE1wuOWUheq6kCdLLcB9UC8EojUWWvOEY/yIhbwVUcy9MAX/vx+1A/YlfsEbIj/+Xb4hqq5jnkUI2828KMy86nb9wepD/ObPE1RTkz9BfdDB6Ugv5g0cBRx0jn8eHxctbGCwUciPnbTC5FkkF9ShOYirZDEXRaqACkJxFpxgfNEKKgcrFLiCAv7q52YfcylCRtc0SdpePXHKnn/9uCUACDEyuvogwa2v1OCmHV8kSfjG6U4XNM3/7YobLOHLbSNRkB2CitQMCp70IaQHn30ndgitFTuEJYzjHXWKm6zM+tUACrJXUfpouTwmk7Po7xRUh1gbempuUDyQioEUNgpbt++2nXsOeE+b5mZFonAD6q3sz96Cxk48MOekCQEi9HkeDtwH9UGwEWlC3Q6MGjFKXAgkUR0EYu3YLdzvSRHUNAzfCtOvYovwBsaOBy1YAzgIiolLzSDTOG/90an5yR8DFC5yyDN81DEO8AJYIE0xX0p/vC0szLMAKodidgKpws/4VdeU6ia/RHYAw8YkGTorho0LKVf5vggFvOeAGce80voUDoWsd2jYnn/1KG6Q/VZfW+2MFX31fHkVmqWCtxfGJu0HF7qZhjendlCdbzlQUOPL3R2V/vnvvfdJkz2CiiQIes58MbE7WHm5oyngJv8qAQWfMHKH7Om66OwV5M0gwMAsugFg0MMYcmGd16xdb3v2368n1FvoK0DBJ+2b8q5nvujUDtOe2sHdVTOHgnoh1PYo7pCt8H9FXiwd9371XgtSRxCuB7AQTAAoYNyF1GnUAr1cL3ARRW3xbrDAOlVYupL5kemz/MRTrLC+2oJzcb4LRLcAUAi4lB3gN0k3BS7KxLx8u1y0PGctP/Qi9U1xPnYTugUuk/nR3ZabQP1ApMElYNfLVVY+3VMUcGskPRZAEO+TV8NsMmXHz3XYy8dOuqyQtdgjaGN0TZfP0tL1Y/I8nBoec3x2MUCxFMK+ZUBBhBBC8sUlG0j/rIiKHzvMgy1RMATSs+VLGpbSmco5dwYF3EOgSbwKqgdRwH+49HlmZor4COdtZLDfgqDxMA+cVuhrLdJSQ2RSKRf6eddedp06UYyoAhREzjet+EAhEB+2KN4OLkaB7u4GjlgKa6VCqANMSCKgGbWwyJ5BHgYYcGGbUMwTghkbAg8AiMETtKkBY8eIjB210nh1FDP9qCReQNBA5EX2Y4FIG9KHw8zVFuYA2QGSp/g7wSUACEkkFi3UhcFifvgVXDNHOE9zjkPhOWwUtlpudE8FKCxKt8pBzULNRhWtY1IzyGj/Uk+fPf/GCesfHLYa1PCR0GXeWX6Nd6Uu5o8fMmSBlX3CFKqKO06iUG6HUB2L2Scee8B+HXfHJtw6VAQedE6l3J0UcBNbC+cKAwU9WJIkKE6CSjlgGB0etM6OszY9OWFR5pxAg+wSFhYHFAjvvG79Jtu9rwIUFtJntb/PL3ow2kAhZqHIiIXWv8xtYbYqDijkAQqPcwhbA6L1LQ4UdLJq48/le5DLo75TCiSMSkh18QhfSiuqbAbySVQCnmFjYfY0AoQ3+D0PUHgE6cVmGL6kUlyBYWRh9pgnnXBHFr5o7SI645BcJcfmgYKyWubHN2PUuJf7AHAoV89Ad7jyco9RYH7ea04wx0OsT8EQabFHx+31E2fs6NkONG8Ba0CKoFnj1jb3aXFCaZsNzLXzo5P2dAdqh+ucu3gNVx59UyUKvnRA4g99fvehPS7s8i7SP6sjOQCC7BMq5e6mgJu0rJArDRREtdMnWdyZX9t27HWAQMd8wCAVRH9ft7NfyJJmWuGaF6LsClAQxd7C4uIjIGolE+Mc9glTNaetpbGHdSGq5ZGGMXtwQQy1KnbCJpj7IjYKVzW/fJlkfUGFEEjsASgANvw6ec+PP+OYeqj2MO8Y1gIcirPHLT/zHGqKD3K/vZyONMJ5WOj8p8Agw5rIpXr0poktF81Zz0bBGVqW1jTZKAyROGpmP1Xg+XBVOysH7kUK+LNT65SzQ0CKMDk9bSdRM7x28ozNIg2oItJsgbkXASx4QQNuTClNxW+dIZ/NLaSX9u/ypgAFEaJczaB8DJ9/1xF7Ys921w4BB51TsUPwh+XufncPhtbTFZYoiGpniKNwqeOM1Te0EKp5i60l+mIoFJ4HCzonRdbI7ksXbADQ4AL5OPsFrfHsYgGqShhVkSiIUqtf/EXSLQDcLkSypwDjMFqNXrX5uAXzQ/ZErtXCNQAFAhc56QHgIFC1xsJth+HbV/qM37jFuqNUD2xK6nGhjLbxmXppQDGvcMzYFeQn0CrswRRhN4eZO9lxJADs5JQAqlQKyTNOReEZPOr6UtFahtdDYfoi9gioTMha6ep3BrUpy3RvQFKC7QsgSPeslAoFPHDp2SGk02nn8vgSdghD4xOkiEbNQJBBSdkVRCnG5xvNGl+acHZkwp7p7HHnl83QmyL4qgMF2RsotLJKa32ti4fw8Ufux53DEyX60oWban3lojuSAo45MCVWAyicPPaaDQ32OWmCGH59fZNt3rbDmlvWOFr50gV9mRgfddKFsdHby/owAABAAElEQVRhwEQEd0gFwwlYGiChmAoV1cPqTS9/sXMrA1KEIGmhQ7hCTkfHrLPppPXUdFoWhrtuKmAPTEYstpbsj9oiucLV2As4g8bEOhg7wZbcLn+p7eV6p47AoFHukrENV1woYCCwEAgTdjnMfcuLvCdQOxRmXwE4yODRzWbvDLVPhou0LT/4PLdIet8FHljgs1OTeD1sQp3yINCkAhTKyXovfS6bMQ5DhnBt1Nzu7h+wl4+esHNdfSS1i5OrAe8ZeKf+yWSxAFCO3gAoaArKZCedzds3znTYRMrLcaN171bKqgIFqRGEhESYjwEOfvNdT9j6JhKk8L1ih3Arw3ZnX+seFE3oVZAoKG30mdPHEFWH8HSImaIv5vM5a12z3rYQH6FaqaMpPmCQFGGIzJFyp5zFLVLqiGw2gySi3XZXjBlXZaK58VfNAIQASZ3CSBEywVnrbjhnFxpPW4aUf/FczPJI7JtTOTuE4Ce2ro5EUIj4FZpWK6EkCeGYhdcoYFI1C+r1bBUW6wZ1yDUS74RAjDwRSA/mM00udrpSTTs3ygLSgtfx0DzlFncu4mwms1uh2e2xMcqPvoFkosu1z/2mW3F5qm8YQQIqj8gDnF4BCouR+W4/5s99rT/ODgEeOToxgR3CWewQzpMaJGDVxEXQvCln7gIKeYDCDSUKJaCwEp4O5WOxKkBBuzIRRNKCjXgzfPEX3mPv2L/L3bcSMKmc/PfmZ/ewXBMo8EjMzNx0wCVRdJqd26XOczYyPOCCJinxk6IvyoBxQ/tW29i+xSIldYM/AgIUfT1d/F206elJlwOiAhR86qzMu8ZdpSg7BFaIcIGAW+zsB2u67HzjCZuITWGbkDAl9tEeKosxV2syD1DgymjQEhtIH421NxeVwAJMPgqAaCW4Upjd/ZLsFVwTSi+lFhXY+aNiCETW8YfkCSlCgIyDHiAhkVOe5FFziHD5zSWbAhwU87OAgeeQGgxRFztCQIQDCeMKtHTusspBTaUfc+Npy+CiFo4QwyFwP/2rAIXykbjbP7s1j066DQrgQJKB6ZmknbzQaa8cP2VTqbTVoGYIwTtli7CwOGUZIPl6EgVf5XB6eNx+dLF3YRW39H3FgUK5qkFBkwQSGvFm8NFRxQ7hlsbrrrjYPTTXBAqKzJi06o8RmXHXDj1Z3oK9zJ5rvo3g6dCFa+TU1ITzhNDckzqiqrqW6IvbrW0tiYN4aN3Dy28qKYI0nTtzwgGMfQcf4Aj3F+xFMjb9racsy4MdAPEHAB+FIXzuT79uyalxEk2hN0d1UcBKue7Tn7A4bS+gb9Q9VcO9XrR10EImKUIIgCCsMJ4YtI7Gk9Zf1YfqIWZR4iboHOVMCjB+OXbnjem8PdDDGAEOQlVkBFwDE5dtoBsWjQtgIULQmWYyRsYIziZJg7bvGjP+L62oQpZiBVVy1/JVBomuqD61O8QpxFMIk4WyhnlB0KdC8hjvjLsSQuVRNwASiko37dsl6HrG3827kSRgYZyAOQSBCh2kTq7DLt3RxLtR5fVupkBpHZO741wuax1dvfYSaoY+wGMVmR5lh6CYCNcqvkQhznmLFVXP42K9U7P21PlLlgVUuLVHP6xAWVGg4KsawqD+//nD77FfIQ20mik1Q8WbYQVG6y6pQuu3e24WUz2ApotY6VZ99AMW373T63HpIbth9zkvm81eIS1wng69Xc54MUuO9lg8gQgvbzkkCA1NLS4ZVENjs6vaBwxSR6QIblJVXQq6o18rQOGG5F/shMsAgYULOwSpGWaj43ax8ZRdqumwgnZXCs3sAIJWC4+7+0ChNluwh7uohZ9k65RYX4vwgB29TnUvnC9wEMTOgUiNwZrNMOIEP3HMN3QsgcDF2nflMQEGFVe599G1x2uTOwBAkOuj0EpAgZd4L6QGrDChYE4KroTBo9qlVZv3fDpn4aqoZUZSAIVRMlA/TH/vR8Scou8CIaKQV3TXSrl7KKBx9aYpqcAACJrEPf1D9urx09gh9LJORa6wQ7hezzWl5li3Es6O6soz9ZumuEI1f/vMRUvh3bWSIEF3WzGg4IOEetDR//6Zj9qTe4iGxg38xffKrlW+3csUcA+QJvdiQIGHQQt8sL7O4o8+bLHtW1l0S1tITagbLPpnT2Mpz/lbtu10UgGfzpIUKPCSPB2kglCshTmAg/a5bWs34CGxFWAgH/przNkKUPBJuaR3f5F0HB5mGM7HkBBkrLfuPHYIJyxJ8KFoAckMY+qpIq6sVtcTu9DasGG4rw+9f1LM2SwOUAglkOZkyBzJu4uFoXmh1Ua7+0gteR624hWBGkF5FjjueUZIYuBO1MleucFcuvp8gQNJGpiP2DcUiJFQmOm0YrKfY+z0JHXgflJBFNnRpQdn3X0SG+stPTRjxfGMDbVHbTa93baNMz+LcWiCCoKYEU6M4s6uvNzJFNC8VdFME+9zQd6QAoxOTNobuDoeO3PecjwPVXF50DA3F85JXbxI0WmLAQVJpAQ1R2bTTpIwS+InhR6Q2n8ly4oABR8kyKvh937tE3Yf7o8VY8WVHKa7qy7HRJjHiwMFMQTOIONZEf/hyK7tFn/kQYus9bwW3OJ9nQX+zMmjdgnDRHk5tG/aYi1t6xxw8Ck4PjbiAi9N8C7DxTCukwrSJDuGDRs3u4iMEYwgryoVoHAVSRY74MZWHF3MjxIiaJJsCkaqe+x801EbS7CrLqCLLcBMhRKuUVTPHIvdJlQAB/B6yAzJjuAyUEh1TVioOmrRJsCA5oNbGHl3qgcMG6WOSKwHMLQ5O4aAYh34OgvOlQ2EW829lwWtoB7+60V5QvziokDmZtA6jAIO+pAgEL2RRR904rCDf14+lcUeARuGVN4ijTGLY4iZGpi2ULpgA+0h+1l4wjakGgELB611lpwU2DjkCO883we/osr7HUkBf3MsicEsUV5Pn7/owi5PzaJSxQ7BY+Te87HUDmp6lwMFffeXwZ7JGecGmWLNXA2QoDbeMlDQ7k26FWV6/De/+ct2YNP6SuCkpY7+PXqe1mA30ReVKAAUHKPRIs26jwoggAQgev9Biz9w0EK1JXe18ieljI4njr1qw4Rrdh4PAICm5jZr37rdGhqI4lcqUj0M9PVY16XzziZBKalVspxfXSP7hR0AjLVXAIyK6qFEvGu8Ob7KuDkGzJcgdgihfNim4gCzxuPWW3uJ36IYK8JUpV7yLrhGbW4GOInCulzAHrI6S/fPWH42a4nNGC8iSUhdmkCsn+ez7BZIKx3FmNDVSRuEP3zAIGYfreavEYPIenh6DXgBQ0XsChxwkApBEoJSEYRQ+6iA/8g0sD2wHDkeyNkgYFDMol5w+SWQLEi6wE2FJYqsgQXUJKEYmf0GZiyL8WIgjCSlNmpxXDvTg9MWjUdx+8zbq8RQCIdwsyS89LrZDQ4w1KfXEHmPsM+SMIgJOFr6raq83xEUcBOPMWddy7HGXOzptZcJu9w1MEQ224RFcYP0QgVogi6vqOosdcalwqBormu6Hx8as593D3gbcw6utCTB3Uz327Nnz/JbXbraRy9VWJD/q8/9kj26kzjmPDAVewSfvJX3xSigCe74/PWAQulCBUDyU08HG+stdvghi+/FlY1rXXEVOQ7hvnZd6rBzp46i/4u5PzF/Fbk7tm/aaomqy3YHGTwhlDiqr+eis1uQOkKgN5Wcse279rkMkl5DqZ/jFWNGR8qrXtx46igSAs8OAWYZmrauhrN2sf6MZcJABFQPsjvwPR6uqmTBAQkbsjDgFrweHgs3OlF+qmvS4ng+hLBRkEShMAfg4Dx5QwRjIctNErGxikRQcW8xFa93RYxfOSF0QFydmBmSAijLoyFR4oXvpTnkbBuQZgkMyOVSLpQ6plVSqgXAgTwvBAx0cwWBkh1Cdjzl2iDpQUZAYQJbBm4loCAgk09nYRQRO5saster8lYbqLY8nZwDGESQuGye2mabJ/ZaVbYRsJDFfkH3vTyvXT8qL7cVBebnPXNDANPFYUHt1D804tQMJ893OgPnBCHj3Vxxk+jmuqB5ngEoVJVsFFLESfg52SPPjU64ClfaJmFhK28aKMwTiRr/5S9/2D728P0VdcNC6la+L0oBN3eY+J7qYdhyz75koYef5Lusx0sShfkrdaJ2bSzO2BQUEd+FNrdb4pGHLLp1s7fA6ylSKS32E2OjdhH3yPHRIQcWFJkxk0m5z5s2byfqYruXHMq7yqWV7iJSo9JTSwWhuAvyiNhbyR5ZotDib5fXAOlJFQ8harlAxvrqLjhvhulo0rk7BqVm0CKpC5ZaYJ453ArXIDV4KFVt4eYqmxtNkl8p5MBAqnsSoAADpyQ24jYZCVqy01s0QwCFSCNuljJ6pB4ZFmr+qAmyHfDAn77oj+9XFRqq812DvUbL7kCMX8BA9hECCwHaku6btty0B0bDDTFLLAQKqEdiayXFILre9LDlWz5pp6qnrHPwy/jEr3X3hzy4gqYtMRex7RP7bOP0Dovkq5w6wklolkW4qzpTObAKFNCsYPYwhbx4CCHsEMYnp+zY6fP2xqkzliYZUzVSBE2bldjle1mUA3gJB+zixLS92DNg4wqmpL7x4i+B+roa5aaBgq9y+KXHH7R/+vEPes+ea/VqNLNS591EAU0Tp8eTRAH3oNzTz1voQSLkJXCjvQoo+D3nsdTiLTCAOkKgIbJvtwMM4bZW7yQ9LSWwIMmAGH/3xQs2MztdShRVdCmka2vrida4y1payTFSOl+P/djoCIGXOmywv9t5Q1TSTPu0v/Ldf8yddIBdb4i8DGK4skO40HTchrFDkKFeWBGToOuyNsaMoXh7FMZvSAniAyl7eCxiiU313thqjPmf6gEoIOpXcfEVUD0IPDhGDoCItVQ7Bp0ZwVZgds5JIQLhoFNbONBJPW7s1RnNAer0FjG96yMvgAKBA4GCHGqP/CzZI6lbtgfxDXhf1MYsKcCSRPJAFU7NUAIKc0gYdEw2FFFAjjhGrm/cRht2E5p6zpIzpwAPnrGlpCdSNeRQPcwF09acbrAdYwetDfuFAFIMZ/BIowIlQnJ6pbzFFPDtEKKsYbN4G5ztuGgKuzwyNW21ZHcMAwwXi4ew3GbLLVLKMZVpbLaO9o/YGaQIur8v0V9unTdz/k0BBT9WwrY1rfb//cPPWi3hJn3C3UwjKtfcWxTQtNc6rB1ZkYcs+60fWnAngWjWbEAXfKNwvCyYPITaoRanSR3M59jhByzxIH70PKAqEgu7HSSf5RLZ23PJers7LYf/cjSKpTnvOQBJCwaPm7fusLp69NelIoDRBbjQOTtQP8wXjldUD473QXkK3M3ZIRSCNhUdsY6mE9ZT28VxDAxzEucLIOhMb5HTJTcq2v1rbYkn2Knj5fDCT4ct8/yk/fNf3GbxVmLey3DRYYOipXqn8YQghgJSB0+iAFBAHaHfCwpMA3OOtdVgLzBtc8QwCAISijkiPiJ9iNTFnCQgj2QgCCCRUCHSELcIagJ5J8j2Qa0u8B5bU+2kE8nuKctPye4A5EC34u31uD2iAunlOEBEPY3UYY8AUEj3c8+xFLYJXFvvBW7KZVAndM1aR8O4nWiLWY1V01R1xqePDwQCSBfwqEAys2Fmo20fO2D16TbUEZyNSkKoyz0/NyJm5fcVpcD8KDHQbqyjsjfIWyfi/xexQ7jY1088hCpLaPPDPNa/WylaH1WEYQWczymLJJE9Z/Bq8I7LFufW7uEqWuLLTQEFXx/yf/76J+y9h/Y6va4kDJVSocDyKMCih8gu+/wrVhycsvDhIyzaTH5JFcqsza+uUw8I10pXjN6uiMgv2Nxk8ScetdienRxHl8xD5M4qSQxmkSp0dV6wwYFeFzo1EsG3HVCiubyY/YLiL4RdcJPSEnGPA4V55gTzDxRDRFWUHcIMdgjnrKPutGVLdghB6C5R+nKKG3MuEECAzHbhxIT94Et99s2/Gbff/mCD/d5v78GJAjsHRPgRJYfSQsxuf24siS1AxhLtslEIz0sUBAiiLR5QyMD4s5ynOVFEHBxbV+uAgiQBMo50roycLzuCaHPCkjKSJGy0AIHqEVCIosZwgEDABCCjmPuJTc0WTgSQbHhAQdw7BNBIYLiodun6SJ0yUDILWRpTSDYCw2nrXRu0Ey0Y59KWYmluXkkrwBIuoZr/qRDqMuixbWIX9gu7CWtdhzoCA8uAF3/hyusq31aDAv5U1loixiwVg2zwBkfH7NVjp+wYGR5D2A1UlzbLt8q8Pd7PM1aaG30EUHqjf9hlgFT/3kwpQjk9lw0UfFfIwxgu/uEXPuOIJiJWSoUCy6GAYzw8FQEMvAoTU5b79jMW2LDFQjv3ul2hp4JQjf6juljtXC+AyoNaTGeQMExbeMc2Szx+2CIb1rsL/AfXf/DGRoac/cLUxLhzj9QONo0LUwSDo/ZN21wyqAhtuqrco0DBjZOI4aQDskMIY4SXsQG8GC4QVXEyOuviIcjdUWLS6w7XAqJqbLSbj8aol519PzvuH/1tv/3lHw1bOwvyTHvQProrbr//27txICSWAueL0UfZybs1h8blp4mdgIpCDDx5adLdQXYI8xIFgEIO2wbH+DnugAIqA8fgcWN0YFPAAomFAwSoNBxQEAhFtRFdw/EGgIIAQUmCIeYvo0pltNRxZ6NAgyLYKAhwOHEZ7XGN1MrP59TojAWH56xzTdHOABRii9kqcm4QY0ntSAsYUUYJ3pQL5CwdTFrdXJVtH99n66a3QgukYso+6UCb93w4eiygb+XrrVHAn/uap9oIy1jRpX8+32EvEzRJ6Z/rkGJKNXCragZNE0ngfDXDRFpqhmG7MIZqix/dKAMe/PXs1nq2/KuXDRR8acLvlaQJlXgJyyd65YorKaDQx/neQYwaf26B+mYHFgLYEcjFTbvA0lNy5UWOKQESiLBYnMWFUmGVFSp8Flc2MQrcKRMP3U8q4VISKBi9r46Qe2R/X5dTMWQIsxwnWqMeQBk8XrZfwP++XKpxjwEFj/2I17GCsUB5YZdJ/5zoc4aKg1VDFiLscqQs7PKCAbr2V2gtyYHAQSwesqmxjL307JB9+fewKZkq2IH9XojnydmitdcE7L/8s73W3Bi3FBIAGTXWtDHOXO/Ni9JtYK6yR5CUQF4IsTZsFAj3LFWCAwpSc/kSBR8oOMbvSQ6i1OmAgiQNvkTBAQUkCqgl5oEFTN9JGgAKkRoAh2wUqDdC+8IYLjqjRzUNoJFPzlmOe0i64SQKI2k7uTFgPXVEo8xB2XmJghgBYAcIkM6RyZRpHQs1IGbuJhLfJuL/hywDOFPAqrZUC/YLB6w5iZqO6z13yoo64tqTbfm/lAME8TttHNKZDGGXe+xFwi4PoAaoBiBEkVKJ/91q0drjb2QyzKVT5Go4Pjhi+qzi89xbvc+tXL8soOCLPTa1Ntuf/s7nsU3ASv1W7l65tkKBEgVcnoRxFuk3TlkBv+Dgpq38bQMAwBQIyyzQIIY1zx30GfuD0NpWi+zZTQ6Gi5Y7ew6wIJ/5GIl5pixQnSBYE+6UB/ay6/SCKJXbLyiddHdXhw309gAUABe4R0rlkMkkbfuOfbZlO4nMeIjdfe8RoOABBN9LgR0OKoYQYGA6Oko8BNI/13UhOUB0TihmByO8C5Y8jyW2D8quQHYIGAWefGXMvvlnvfb8T5K2ewf5HlDpZ9PaXqGKiAbs9VMZ+8G/3mWPH2i2qUlCcEvvD0POTqQsAQOW6sp5MqgFzAkZG+ZmsAbneLSpivgFMzYHWHC2CADI+HrPRsFj/JdVDNFWqRgECJiD2EfI9kHGkjEBCGwjkrhm5meYh6gUNPWcmybeFc4DAhASlATCZxqcoDZkBmaxmwljQ1FvGdqRxn3z5a1IF6gjLPUJ9chbJEhQqbl8CsbQYW0177JD679gdfG1dmrg7+zsyJ9wTh2AoYUO5pEuZLgiZxumN9uO0YNWjTtlNozXhaYp/xywW/JoVE4sp4CmMmR0L3oPE/dA60J336C9duK0ne8i7HIMOxTsEJz6y60NuuDmii5X0XySNK5jdMqpGSaQjqr4/NZ9eYtflgUUfLXDp48ctv/1Y+/zRCLqZaVUKHCTFCh/OAOlvOz5/kHLv3bCijCD0E700+s2snDz0AowlB5OGTQWSM9a/cmPWWznNrdbnDt/wVI/e5FkTSMWaEAioWVzkoh469div3DYYtu2ek8ldegZ9VH81OQE0oXzLtukbBfygIXWNets7wGS/7j76Um+u40Z/afYrV1OpC01A3YcYdI/15+1jvrTlg7DOF08BMjiVBFLH/R5OwQSO+lzx6lJe+qveu1bXyFTZ2vE6tDd5wAIPq9VzXECFr3RmbN/8tE6+5ef2wWAIGwzkoIoIv9kx7hFCLwkA0e5QbpSWovcDkwVIREq4G+eg/EXs9TN9drda+ef7BqD8bMglyQEcdkiyEbhohfISe6WCqEg48RIUzWRFgnBDNAIxWHs/CbjSPiyN590c32GeGqCPB4yhG+WdCFUjzoCdUm+D3sO8jscW0+AqJI0QQAhT3yHVLbT6mK7bd+az9mWlrchUfCMclXt8PQJO9r3l9Y//R3AAm6TBIuiR6TizmCzELIDww+hjthhedkuwG48sKArK2U5FCgNH497yQ4B4DeMd8HrJ0/b8bMdqNsWT/+8nHv452pJUfFZ58B00t4YGLEe1irvuNca/zx38C1+WRZQ8EUg//pzn3Jpoyspo9/i0bvbbs+T4dQDQvJY9xYu9lgOwBBAVxvEdiHY0uYW4yIeCTqvwIMVf/vjVvXY4XlKFLA3SCMezLz0OnYLBMGpq3WhoIukcY3s2+UkDJGSO6Wv7/PntdJSd1/qsBEiO24iV8SefffdE0DBXyQdcWE1YdwdiRFI+ueLhF0+ZhPxGSQIcRd2+abtEGCwEXbeA9ghPPuNPvuLPxy2FiQT6w4ivkXdnod5LlYSTqowZ9/7Vzvsif3NlgYkxGQbgD0CrNot7HGMGcNxdnkwcsfA3fHSC6uxUwcgvpe6IqBgS4BOeTy4RJHc1gGARBQQQEQ9wIMndeJ6wlCrvgCgSOGbEfS7+eAW8NIqrrr1UWGb84TQjTZUzQdckuQkUBux6rV1NjU6bT+vQcqAPUUYY1ApG1LZHouEqm136+dsR+v7sJj33Hx9qYCYvkq+kLLOkR/ZicE/ttm5LktEtmHwqOyaJEELzQIWHrStY4e8MNDuisrLUijgUdeb9VoLfDuEadSXJzFSfAU7hGmlf0YyGRLodPqupdS8+DmaJ+V2CFPYIRxDxXB+dNIFKnTtYb7669Litbw1R5cMFPzFVEmf/vh3ftM2tTS5Dul4pVQosBIU0Exy7IInynkuCDAQMyF/6rwVTpwza15joa27WHyxO5DoFsBAukir/vhHLEoQpvKSH5+w1Ktv2BygQfVKJVHAx9mFgyY4WPz+QxbimEq5OkL2Cxc7zrmgS7v2HHC/u5e7UKLgP7mO5nxxdggw04nEAADhuPVX97t4CJG8GBv/nBTBv+oyaRb9xBgyRBiABbBDIJQzdggv/nDQ/ts/7zdyLdr+fTBsfs/NubsvWoUOauOOY4O11wftP/1PJFM62GYFmG0aVUCItUeLt9QJYXk94KqoyIzOViAqBk9bXXN50Sqt4r8jkXI2KDoHZu/mE6c4sxSdw59bsF1URv3AOfzIq6vT8QzoofgKuUnsB2bmyFyJ9Xt7g1M5KIQzOMiLrYCb5qvFKesK4S1BBs1Ufoz6J2xL46/YnrUft/rEFtXq7qfbuBvojaI2+GtsOjtq54a+jTriyzQZIzqaVeCCdGjSHhw8YhsnUcGF0xyXCqJSrkcBkdnRSC98ibDWZNicXLjUjR3CSesbGSUeAmouVFg3G3a5/P6aUt7YmrM9ODMybicJv6wkTiq3k5qhvN3+5yUDBb8j7QCEP//ib1kNOt/KZPTJWHlfSQpcfohZJDF05Gm1IgZEuaOnrXCpz4IbsV9o30LCnxqkBizIgIXYkUcsfvAA4Xs9WwS/Pdm+AUu9+Irlznc4sKDj8+6USCJiu3GnpH53nNXfN2DMUWe43PvhLgIKjheJDuo0zC4I8woBBmYjSv982i7VIWpFYiM1g7bhywMIXMKqKG8SGSpmiEVw4uUx+8af9NqLzydtD3YIkTixAkiQpMXzRkWMu6Y6aC+/nrPH2NF/+duP27qNtTbZOW6BkhQiRvCjEH7tUhs4ewXATqQ14YIuKRaC+qCIjg4Q6Iblq7a/ignV6Li8aByByqjkEcrVXXSqDDL0oe4IkmdC7pQB+iIuEER6kAC0zKF2mJPajMaHAQ8d60N2BnAUyqcJw3vJ1ta+z/at/YytrbufxqDiKLXBlyCU00S/+cfzhaRdGP6+HR/4TxwD5DJ2wm6KaxUi3PSRng9ZVa6e0Nd4glTiLZSTcf7z/NpSOhKSKzU07iEfw6vHT9mZi13YKhFhU/xNmxE3V+YvX/YHf44LJGiKdYxNIEUYtTHix6g4EMhJbootu/Y374KlAwWJelksd61fY//lH/+9275jbx4JK3daDQrML9OlJygQ8/TQBVyGcq8dt+IYBmpEVwxu2MTDBuonbHOQAGCJI49adMd2p5rwGYIe+Mzps5b64Y8cI5BLpnOnVDjorZssQTrr6JZNXjfKn+zyjt0lQGF+oRSTgUmFCI6UDSWtp/6CXWg4bclIFt13vLRbhQF6XLOcEtf87Ha//Bplx69d2MXTU/b9v+6zv/vyhLNDqF8bsjkBBFV7o0JDBSjm8Hw42zln731vtb3tsxvs4YONdpjddLQrheGpFCFyVfSAgjwQtBrLCDHaUjPv9ZAdxk4F2wipCWTToKRSOYIkaRFzRoi0xakYEF/IOFFgQ9NAoEDqiCBSiszQrJMc6CJXfztxF2riRGYEKGQ8hhKs8YCCzi3g4aDEmWfXhq2zGuA0dwkDxV22p+1ztrn5yLwdgtrvA4Fyknisw/ulWJyz7rEX7NjAX9hE6phVRTY7kOA6oKsBBdlwytaM7baDQxjvRvOWoQMa6/nxLq/8Hv18mRYCshigwr1HkTy+fuqsHT173gXirEFirvOcFEEfbrK4+SMQ7mozG5hJuqiK3bexHcL1urpkoOAbMu5rX2d/+o9+yyEtXyR2vRtUfqtQ4FYoMP9w68njwQ5gdawU1PmuPs/gke1UiAiKwda1JjuEArEUIru3W+KxRyyCEaNXuJYHNs2OIfndH6C6wNddR6ivkCR98VzOIgf3WuLwgxZuaXa/+SDD+8LrXQAU5mnJB6kZisWsDdd027nmkzYWm8AOAcPA+XgIHs3m+3+9D4yNhieCuF96ecVDeO7bA/YXfzBijSyVGw5gE4Ax4bXsEBZWHY7RQOo7cWrO9myP2C99cYPdf6TF6huiNonrYggwsHe0YGvHZRgJ84dpS6KQ6iL9MyDEuS+2EW8BTwYx7bkhVE6AADH+6DoYPO6Os0gCinhdyDCxAOCI4N0Qx0tCiafk0ui8Hkg6FV9PgKYmAIE7HzsFgQmARHQ9wZ9kFAk4CWCE6Rg+QKF6fb3lSQo1ylw8szFiveFBqy9GsUH4nG1vfT/2BZftEBYDCOq4N9U1WmYj06fseP9fW+/U13HH22jRcA1YSOJq73d3kmhP5Mb+TLXN9D5gHy3U2oZQ3OYkbuC/zuTtni1+/301TgQppewQTp3vJB7CKZtkd1+Ha3WYzfBKuDsKvvoAwYVdxg7h3AheM6whKlp3nKTiDhqRJQMFP7fD7g1r7S+++IXSZL6Delpp6h1NAf9h18RzBo9kLDXUDvkziMmPnzGrb8VDAjfImjqMHLWzZDG/74AXS6GxwfW9gNvR1Je+av8/e28CHVdynWleAJlYEyuxgwu472QVq1TarJLkUsmybMmSJVtby5LVm2d83GP39OnpGc94ps8ct2faZ/rYnj49vWq02rLHstyyu7WrJbm11M7ivgMgQez7lsgNmO+PlwEkSZAFIMGqBPmiipmJzPci4t0XL+LGvf/97+IU1M9SODhG0ROaRqVgFJEQqpRwygo4GIrZWbgSzNqbWlFYkp12OLgZijNFpH8eBodwzm7Geh0fQum6cAhIDvmUoBxEsSJMjCTs+e8P2Zf/+YBdn8jY4YOBFeiVcAiBoFFewDOUcFt6T6cNNgz7O7/dam/+2Vbb0lrhXBgpFm5xDCxg0s9wr1q4zzsGhoGuNHNezOb6cDNwTx1RUlM1oY1EMfTDczCOKV6KAgt8VARKMCbOEQa5iFtCVoYFXBiOgVF8CSz8SzwKWSImJZiS5WD5eMZWR1ZRoB7DSgLuEV4F8BFYN7oYl6ciQ0QiTNm+6l+2vS3vs7rKndnhxPjVDcld6LMCUCied33NJvrtwsB/grr3c/yKpSKKIkwYBurWHedqiEZQFGbmy+37w8fhtii2X0nH7GhxbElZyDbx0L25se/0pUU8mCisYJCuXu+1n0C73Ds84vIylCkRnBZx96yvX0Q6XUX3N81YuwAO4TTRDHNsbILvN5+C4Dqua1ptmmmf36ETDoXP4Xook9/Y1xK+hxJ4tSXAUxkAHtkZT7ALBL+wCH6haNtuK96xyy36C5gVi+D6KMO1UH7kEMrAjM385V+7iAqxObqJIdvvJTpolIhixnjFm56wsn17nKvCHcJEsmlzPcjN4GiXAQGKdrn+IrTLl0HN4yYgBFKK0ppwCDqDXb3WOuEQklkcwl9/us+e+VEcPgTCFrEKpJ1JPivge7wJh1CKm2FqcMG6h1L2gU822Dt/qcO27SGsEN6FRCLIvaBFvZj00AtEIMynr1hl1Qk70fSr1k7IYLL/r2z+4rPwPsRAkGMp2FJm5bAkxvunCKMFU4ASIstBqcIgyb8QLPwszCg5i1IURA9dSzSFcjqIcAmNRMeLR2FJUcAC4SwNUjjaqaeq3IEqi/k+hU401lhm3dVJ6124bDtiP2NHmj9mLbXHuHLayM6WK1kR/E5XIkqDQ+ga+Z6dHfg0C0wvboZOtwMNrAg6wmkZ+rBUtEBFS0jKNRm1U0RAYHawCZSKv5+qseMoC8RxrHDW0ukP5AenIHBlgSIr2uUg/fPz8CGcg3Mlykajis2CXAxud3+nWFctF8k/N5rhOtkdX8JFOgIRnIpcHGpjM6+Xq1cUuFhRSW6tq7HP/+bfccxUMsE9dCNw1cMnPPBVkQBjMgAjsssU/8LJs6RZA4GucEpSRS/lggCE6yZsTI6BknB777TwMY1jYVhMMrUSbRHZiwsDJcO7MKa/+jWInbpQPvBjomgsDOH+uHDS5qbGMatr18p3gC5rfvn9Vo6SscDO0pkZb2/qPv/tJ0mHdOMBFR9CBsrfgepuaJfPOtrlMsId5dsOFITVd8gpCBxeioKgdrovgUP405v2H/94wna2Ri3WVOwIk1aDQ9DOywEbUSguXE7ZG99SYe/92x128EQDE7kImbI7MSkIhBBouYunezHBV9sBFIS9hBSWRgNrka5g4uY3bOzMP7fqqXqrqCeMEv6CWRSFzATjgYVBloNoC9kcURRc9sk5iJm8RQFFoTSrKKQdM6MUCBQL3BdiXZSLgXAFF0JnImLaGiPKIWqjAxO4baCfrimyPoMPIbLbHmn5VdvR+CSLE+xRFC0RKyoIbunwv2Ssb+IlOzfwRRue+x7XuAsrAcRhzs2gJeYuK5lWKQQpi8Lli2nrKn6TlYPnSXMDkvz2D9L1to0slUnAlOhjrkX16UEvWpiDcEcsXSj/Zy9dtRfOXSTiIG0xPb9IYkNwCNQjRUBFAMWTKAhd41Pub++ad4qI+2bzvqxZUWiqLMf18LetmYk3hdC9MDavCMKeb2YJ6BENdgRMuAIpEm6UuXbDFvA9Ygu24j0H2F02OvAi6LdASbjnBWvixcPIw+/wCxxbduKYlT963OZ+8CNLXb6KosAii7my0BQFJwtdm3zTlCD9M+mzK/sAKp61oYpBltsKZ5qWH/Vua487+bYXtyNiX+DzMgzdnLP/Cg7h3//+oG1hCWo/GiHUEcs/i/FqSgR+BFkSzp2FZbC62H75t9vsdW9rtpoGSJ6wUMiSEAQgSCFBaSCkcGFh0nY2fNgOupDCHUvNKBqgZ+wndnHsP9tM4qrVJEqsCexCC2nLo6Mk9xqB5js9BAiRdONb22FgrHIL/2Ic0Kay/UkhyFI4z8v1AEGTAzlKIVD2SDAK4m2QpSGNASYeXbTpxqhNEvY5wgI8vjBossscavyk7W9+N2BCsShqXC67EtwXSy/B7tKrCGOzl+3C4JftxuSXWXSayfFQx92BQEnaVnYRWjo154Puie653D4jN2fsEpiOROfTtki+iAgWsAnk+0iqxD62uAVZL0dX5FTxwH10MkFmol2O42q83HPdnifccRirY4zsjiWyFMnNkGfJxSHEwb6Icvk84Y6pbN1ugyAl7gEpq1YU/IVXYNb7N7/2cTu0bzd+GPnLwhJKoEAkoIlTqws7+0VQxpmLV23hYpcVNbVbMXTMRZVVKBJi92Hcugk42AncrffabboQKawQxQ3aufK3wjE5twgGx7sqCh/CorD31bMo+Ktw05JwCEu0y2PQLiv9czcLD+4AiJRYyrEi3O2KV/gemWruiwL6k5IwOZa0F34wZP/f/9Fv3WNp+BBUJyZzrAKrKQEOocgGwCEM42//lX/QZE++p83atlU65SAJDkG3ptgpa0RkZAAjZm5YS9XTdrjtw9bqTPnClahACjV5CiKiP7HB6b8G0NdpkRJcD8hAS6jwGJYatFgybodrPmGNpZ1cO5gMkiylhyDmGj0DyBJsSpqFhXDK0nrAjDdxY8HguIirQoiAooYyS1Zjyp+esxmIC2ZwqcwhC7I7gIEVFmbIdtS83w61fdAaYvtcr4LFSh/vFLRfyPTrXHIQXoSvAXT7LIh7wklLBL4lvwn/VjpX57jCPZG0tegJHzI8ELful/stFeu0eMebwEsE87IUkTjKxn8HzfO2ksCqcGePsnVu0jd/PVqTJRUpCLJ8XyftsxSE7t5+K0OxL8VV7iwITnLrv1i1o6IxqnYuj0w4VkWBFlU8jYD74wF6WbOiEGNg/pN3v93eRoa+iItBfYCkEV7KppaAJg33HPMirn9tSYVTyAi/0DtoRZ37rWTbDhQJWR54sPXUO4XhHpdNpQKYOXInt4KhiODXLJIpu5BcDyyOAQ6BUL5ipX++aF21Fy0JyU+UOD0ZGdbqZtDEKmxSBaGF8+yyTz8zal/9t732/POJAIcArkC0y37yvIcUnfUgCjvjDNEKXX1J+7lfqrV3frjDdh4gRTRzSgKzvorHIWTgBYinr1l9+SN2sOVjtr3hDSzwy9TGk/Fuu9D/Feue+BPuzxZM9XItKRqAPrO/T2XIrZDptrbaX7BD7R+y5ipcUc74rlbS1j/xnJ3v/VfgK2awV8iHTdu8pFAi1RNxE2S4dn12DhD9zvkRFIRMeh4l4Zo1Vf4U1o2PWkf94/SBMZVdhLylQC35ot/892n6JqbF80OftdnUdaiqO91v0Df5w1d+R9DcRndPIoAz54nO6OuasaGb8xBjTdh8xzstEdtuRRkYqhirssWMgrL8RDJmTxRXP1BYhSUFAXlI+RIfglJAD42Q/lk4BJgV+dIqxYfg5CbJrb9ojOfiEFZK/xy0s/42CvnMVSsKXlNqgs7yfQd22XufetJamxux5gLw8XetkK807NtDI4ElhYErDvJHsLaT2CUt/MIsZuW9CqdscZPpItkng/IKg9j/7OYbJv27WBQWSWxV80vvI//E7vuKUVi6xkADyNIup7M4BGiXlf55EdM6Jvi1Kggeh1AOoZAu99q5SfvaH/fa1/4c0387OIQtJQFh0iotuMIhZFjDz19K2IkT5fa+X9tqR55osHIUECkIUkjkhtAyvMjOOp6+AVi6zvY3itr4KT5nQ1bpSyI1ZleGv22Xhj+LIgCFd6SD5VALKPdVizggvnjqKmyHx+xIyyedglGcxQroPk/MXbXzg1+165P/iTZRUsi3IC3KLQS8yHIq2bp/XLy/7RAvox8u2Fy626qi21FePmE7G98KiLBa1boeeEXAfZF9CZZ2/4twCC8CVASHMPs3VhbZYZGicmw8gYKz3FpuDcFnb4mQZSeNS2S4b9b6u2ctMUcIZ8mkJWoO2VzL6+mIboobpEuKwkeTVfamohqImPg++OnOBjbRN37sSybCIYhVcRpOlLNYEJ8/cw62w6RzMyhEMV/aZclrgfHhwx2nsByc6od2GeIkpTBw44Mxo748yGXVioJ3PTSRXvPpTvyJRw/ZT5HGN5M1cz3IQgqvbfNJwE8mbgWQGRsk+KL4F65ddxkqi8tZJJRwqhqXArb1xYzfzfml4V7X7BWFfsCMLy2DGdnBiMip7qMfBDTXAnkPYDlNIveqah2/LV0bHzzt8hjpn682nLXBKnAIpH+OEO7olq/VXI7vA5Od5jvxIWhBGuids+9/td8+8wdDRgCitZCXQS6G1T7yJVH24JjwL5xJmZbTT/zvbfb6d7RYHdEBwiGkwTOwaUdGmoZJ5ZseQVaTtqvhY3ag5b1WU7HD94x5Ju5Ih84NfsEm5l9CQdgF8yGLN4us0jNryp5P3XBAx31wFuxtfqeV5ygY8eSQXRr6Oqbiz+FHTpBgqZ26WVSXJnh1hK+W/g7WVJF5IWX6NkBf07a38RO2DxxCVVmb65tfwN0ft7wEstT9VxmfvUI2yK8QNvpnLG5NLo20lBukya/BMe7A21+y/SnBgqAyPhy3/mszNj0B90cJhFBFM5aoPmxzTY87C1qQZTWoRBaFcer/b5O1dpCcEgk+36Ol4KQCfnW3R/2TTJCr3AxJGFSvXod2+eVz1g/tchU4hIB2eZVa7D2uNxeHkAS4f2F4DDfX6AMR7niPy17xpzUrClsAM77/0G7u1aL94jvebi1NIahxRcmGXxaEBHInl6X8EcIvnLtsC5e6rah5mxV37gKgSDprKQsukucVplPGvoifFvpuWObSKZubAeimc1ESItvare7973GT2UbvMpauRTscR7uMKb80S7tcfc2B2Fz6Z/oXWBFe4Tr8HeJ4NkfZvAwl5GVI2vPfG7I/+Z0+600s2JHDmNWZd1fLhyBqCpEmjZzPWD8A0o/8vUb76V9st45dMUe6lCTcUSuWrJRSEFKAEROZLmuNvcuOtH3UWmqO0rNgYdRiPjh52s4N/qkNkEExUrINsB+kQ05B0PVhlciMIG84Feo/iivgF5ZyJ+jyBHTsHv0baI8/YzPJqygInSyuMEfe08wvtQPlBXeCcAiphV7bWvtBO9z6QdsSO6BqWeB1jMqdMs5VHuakoAyCQ4APQWGbFREpGFqC5NS481zV6IruIR+EQZA7ZpYU231d0zY2mKD/uJOKyYESrbF43XFL1nUG+FXCRp1phjNLsMzMYkFox4fya+ktWB1IvuVqzNa/yd4kKclDshUfgj7fhHb5BUDLl7pvuPTPFTyTDlOU53XShCtZHc+ukrTpFHwIY5BoqfhNs/vjIXlZu6IAMOSXj+2zSQBeh3bvtHcQbx6WUAKFLgE/0Wg34vJHCL8wRljjafALfaNWtH0POSTw7wq/wC7F71pWvi7qYDeTuXjGFgau2+wssfqEVBo8DbUf/5CVbu3YUGuCX060+BctYqAn3DFJ1sAbdUr/fJH0z2QtdOGOdJtj1lI0sWpClJtBfAXnXxi3r/47CGl+NAcOgbwM0BCnBFRcRbWqR26GuYkFu9qbsnf8fLW962Mdtu9onSNTmr8FhwD5DQuncAi1ZYfJfQC1ccMb78AhnAeH0DPxJWbnOnbhckFoFy5LBAqGgI5pFIya97CIfwgFQ0m8vIKxaAOTL9vp/i/Y0Mw3sUDsJoSwgjOVjlkX46WaK63ge9WdxuowT9+2VLyRuv+WbW14gjNwU1ACJeHO83O/Ty/MgkP4AW4OKShdtL+TBZ4x5xSUu7Uf9EWLobAhDodApMVADzgErDuKKCklvfQimlii5qAl6vbZQrQK8KLGK5oc9at3UhLEkTFBQqvfSGFNcFwKmzM8UlKWtCQTh0MARzIC7ugUieJOXbxCGOiiVbEm6Sgdk0/R6Xp+ZN9SGWRDcRI3QyGnf87netdy7roUhQ8eIZEOspycmbV3v/VNdnDvLksRlubNbGvpQHhsKIFXSwJ+0vHtOYWBhTIDu9/C6fO2KP6FPfutuBn0uSaNLKPaLWsKboqi8grYHwnXO/ciO+SUzfT2sIAvWvUv/GzAn5Bg4g7mGt/Uut59FW7xpz8RQIlaaAZjPS6740TZFEBFchcIh6AO+xNW0Vqw80JBgA9BRTiEdedl4HyHQ2BDe/5i0h55tMze86l2O/bGLVZVA7gSN4MPdxQmQDiE+fRNdsVVJjfBHtwEFTlugnlwCJdxE1wa/gwRD3F+20oLukJwCCziCygYc6kuqy0/YkdaP2HbHNAx4CzQtUzFe1igv2JdY19kTmpkN02mW6cg3M3Mj+wQXtC3RZQXAIZEIBxs/oTtan47izPZSim5ioD7IvviZM/nAImwAA7heWiXPw/hzg/AIaCgQKf8inwIqp8xpFsYUVQF4aGj/XN2E7BiYpbwzYjm17QlYXicrz9omQpCHqUcOCtCcOOlJmiRm5KySF0fT8XsUUCMUo02a3EyQQFSinLhEC5c7bbnT59z6Z+rYE91ypfDZeRxhYjHuRmyJoQZnt+XB4ddRINwCCoPoxUhV6LrUhQ+cITdF0IVeUUpZqD3Pf02a2qoJ4kfDGh8v3mHZa5ows8PqgQ0rboxqi0E41WARykFC929zsJgZTVWonDKmnpmEKYQOeV1qBzqJVgc4jNgE142m5m2ucF+W2zbYrGfeiP8/21YFgJw5FIb6xTi0vna4ZCXoWQB4piKIbtS97INxMigaeXrwiFo4pWSoMRNZfwTDuF7X+2z//dfDFkjtbbBh5DhEladlwEcQhE4hC5wCBgf7MP/c4u98Z0t1tBc7jAIAt5p9QvCHcEhkCo5szgODmEFN8HiPDiEH9m5/s/aZOIsi6xwCIGbICBcKgao2MfCWwbh0ifvwCFIwVB2xUsjn2FummUXLwVDSwAajCuS6u1FO8gAhxBPD9LPBduz5aPgEH7OYuXCMWQX8OwicuvZgYoQKAgCSl4Dh/BlZwEpKWpFwcjyIdAHJ4RbT17+S/eEv2RBUDOTpOTuuzZtk6NkMIVxkSwWliptsfmGw5aOyXVBf52CEFShqxIeIc5YmaGuo4TH/mym2joBSiazAEYd48Z8cErBvi71U88mRQyKKdx6V3t6wSGcdTiESgiTNir9s1MQnHqGrYrn4uIwtMtwIvj0zw+7guAHyroUhQ+iKOg+Ko53Gr9NR/MWe9fb3mxV7LQyTLgKd8reZ99O+B5KoOAkkDspLfEvwMiYwaS5cLEH/MJWslNuE0+xUyhYPW1xHEvC9ctsW2H8q4BD4DDsjfuUqhrMgtwPKy4oa7v0pX5xWmQBmmBol3vgQ+iuuYRJmeA/pX/WAqgDV1t4IBVdoMWoogqUOGyFz4FD+OL/ctN6Qc6vB4cQhVdh7EbGegHW/dKn6sEhdNjW3STcoq0k2IZAQdBOXZN93FkBWmPvsKPtH4EP4Tg9D6wZupah6bOwEv6p9Wf5EKIllW4XHmAFCM9ECcgsjlpn3YfgLHg/uRN2LV15AHT8sV0Y+qKNz5/CRSEzv8chaMFZQVD00YEol3AIA7at9n1gHD5gjbGDru5gN6uPd56vpd0rCFJ+rgx/wy4OfQY8QxIFRQqG50NY+Xx9Kznxv8MhCKwYn0lZf880EQ0wevJDtChuC5Eqi9cetmRtpy1imSiSguDcDEGfvJtBoMVt5PB4OlNpR4tiVs71i41RRUcGy677s+BfJPcIG1A9S31Dw/YSOIQLXdcdeLH8PuEQeqBdVjTDEFYLFbfh1f0peGm9Oh1cv6Kg/rlBXgwZyQxZ3jrt7W9+ApNdkHgjtCy8OjcwbCV/CSxNpEwMzh2BArwwSviT8As3+tnWkCBKvAyJeawJs0RQwEuwt9NKDu+xktpah2kQVbTbfeTZnaW+UE8EhWCoqtvONT5r06UJK8XN4DaIMi2voSyI5RDlXXwI2uGfe37MvvJvbthPfigcQuma8zIoj0N8etGu9CTtyadi9u5PtNuBR+odQ6DcDA73gB1ci3yGhVMhhdWlBwlX/IR1Nr0FrEDVUu+n56/bRcIVr439CYsmqaEjAQ5Bk4vAhMIhzKd7IFx6B0DHD1tb3SOcG2AFtBgPTQno+CUUjG/iytjm3Bn3jiaQ7OAYcHUncDN02ZbK1+PCAIdQDw6B71VyFQH3RfYl93sBJa9jATk/+HkiMc6jIDAmXklBcZUHCoLuiRQ3gTuHemdt8MacCzsVDgGNwOarD1iifr8tlNbwp6xa/MsqotBjoCgWwb64aBUogO8gNfgTi9VWX4zMGB8ZjWXayh1PuddRiJ+lIAiHUMyzNj4xZWcuXHYpoBMAjGOA6FV0TD5Fp+fiEIZn4/YyCkIP7al493m+7eTTx0I8d82KQgPAEbkeNAB9USyr+LSPkN73ydeTD11Aryy982YaqP56wveHUwK5Y9UpDMwqC8OjRDcMgV8gRwQTc1FtNTkkmqy4EbcEfzvgo75HZPlNYTkypzIBFvuqL9tLLT9iuSXkC/S6zKRsNTlQrb1y0YKtIr4CndFDXoZvkJfhL78wbp3NUatpUUInag02nu7Yu75QQRTaZbE0nruQtP27S+39v95qJ36qyWKkf1ZiKPnVEYWTS1APZvOiWtte9xQ4hKcIKRTzYFDEh3B1RHwIX2SxHmODAR8C5yoaQFiBDDvnudQ1qys/ZodaPgofwhvR1bBWZItwCBcG/yO8+n/KN2SKdIRLfhevTtxeArmpbllW5lI9LiPjIZSX3U1vJ9Sw1p2QqwjcWoN+keRVdwag5EkUhD+zgZnvoPiQ/hkyqHsDJYPatACpjgguG/VjdJBwR3AIc9NwPRaTQrsIMqfy7Ta/5YilK5uC253jZvA4hGnGAcTU9oZ01N6WiVkHXBGyMAmPoB7qX3D3g3YL+dXJJMuHMItF7/K1Hpf+eXRq2oU7Kv3zRvMhCIdwhlDHS+RmSaGIqIRuhruPkjUrCnXlZfaLhEdG2XX5gaiBL//tBJPp/s5t9uQbHrPaWNUSwHEzDdq7iyr85WGQwNJY1YTOBOUsCVrBsjgFtjzBDIwivKhVc8OVBMyuUC1Plg7Zjzq+SfXw09PMovIYu+n/le+C2w3xcCpxk3as/aDmlZfh0+AQ6lE7th5hIQZvuVocguNDYPd75WzKKSuf+p9a7E3varWmtgqecQIV+aeu+d2YeihewHnyK+xueK+9rvO/4Ru5SxDjwjy78B9DOqRd+El24eAQ2AU7oCLnaE5R1sSySC04hI+ziL+DjUeQO0HnB4RL4BCGv4CCMU644VbdAnf+3eWjxVNuDtgMoXQuKkqBQ/hbtr/l58EhdKhat1NVPXfWkasgBDiEC/AhdMOHUGREYjgLyL0UFNVJ0VaWIheDghMmRxN2ExzC1GgS5YBslIQ7pqMNWBCOWrJmG/c7ihWBm5R1M6hrAiom+EDibDuA4vg0qaT3Mz60kHo3g9rQsX5u1t+FVpb652RCgCwcJ2LE7LoO6+ep83Z9YBDltsJtOAPQbX5Xo2bUpl6EQ7is9M/gEKYFOtbX3PjQguBEcdeXNSsKVVgL3oeiEBOBje6fuwPBm7MsEFLSTpren4biuZV3ARydxhg8hXftSPhDKIFCksDyZEav+MMvgn4Rdt/xU35T2ApXTFslmYidwZLQUwP6Pk2kw2qVBB5IPZNCzQusOMFi9Nx3B+1P/9d+u4nL4fBBzOrUv9q8DAEfQrGNXk5bH/kPPvR3Guzt4BC27a52eRW4ywAAQABJREFU7gW5GVQcyHOFS1FjGRSD2rK9dqzj4ygEpXa674+tb+qrgKA7AfvF6K8HGhKemR5FnlO2s/5DdsDxIexcqtXhEMafYRf/RbL0vYiCsRMdTrz+Oj9nIlo6Qx+kIGgPHiF6Aq4LkjdtrX1vFodw2B0ZWBD0EcHcVnLnrfkUbHxD34R057MsanMuEkOw7WU+hjvPd9XpnvBBfAjCdM0Jh9CdxSGwaEVLhEOosPkacAh1O8kxURngEKSYZudMARVJR2GTjINmcAhPpSrs0aIqi6FgyaogS5Na178NH4/uIjb+RbIVDqEIH0rfwKi9CA7hPJaEEr6rKsc6ov80mPMo/nS/9NyYnHF8CAOyDlLcM529P3k081CcunpFAXHotsmS8AsHduPXUwrUpbG8JKwStFsBHMtBkr8VN8S+nTvceM84qufAcJff7V9qKvwQSuC+S2ClyXel7/LtiK9TC9siO95n275lk2Vw+C/o71euXTsv+bzLsCLMQ1N96lnyMvybm/bii+RlwE0QxcUrBcFPnveqURNrBD6E5OyiXepK2tvfFbP3fHKr7Tte7/gQ4nMsYkRhBBkJPdufFmQtWYHyENQfLNTz7PyLisBwcG1KpFMRgT6b4xbwuRfhCkijTCQz160t9jRAxQ/Dh3CM3z3QkcRPwiEM/Jn1Tf9nlIvtSwqGlshgeQxaW37VDKPWROaUsORCtzVWvAmuho9YR53yMgSJrLQYBTPS8pn6lPu9LCA9Yz+EsIlIjPmzVhmVBUR0zvdSULL1ca1ajJQIKyUcAhk3Rbucwt1TVkpoCfiCZGw/VoQDlimrDXAIsiK4lY3+62bxeYrjSrm/b0VpfMNCzBpJP53B9SBGCQ0NP3ayrRbkm++jFv+l9M9g206dv4ib4SL3acGqYVUUti1fN4PElotDGI8nnIJwbQxbjO6JJEQ7+SoiBSno+9SpVSsKgWwD4T61axumu9qsJuvEfstglbIwjyVBaT4fPbjXHofuub62xpJwLejm+N3ZfbqmsNpQAptKAkuTKB/KYVycJxzuxx3fsbnSedwO91YUHA6B86QgCLR49eykfeNLffb1vyAvQxt5GRpJdKTETVpTV1GU/lnlLCmL9+6I2i//9x322JPNVhkjSI/EUAuihmZnm8wQFko/S0RixKK5AGixuLgREzrAO1fF8nbA4wLkcFdiJr8LlzsgQUhiZWmbHW75Vdux5c3Utwx0nJzrQkEIzPzFVoMVgXThKBiBMhL0885LUhuidiYdNAmXqqJt5GX4FfIyCIdwbz6EQEXQwqu6YYScIjNlvyIxvoaLQRaQIBJDikSwPN/ZuvtGKxVFbgbdk3EyVcrNIBxCaQQMRjHKS8U2wh2PEjnTTGscr5hUtRv8zzVAXIW85qnriXTE3oaCsE2yRrhyAKmH+qeyLOng70J6VR9d/yQT+h6kf563y1099hPCHYeJNqitBoMj5ki58vIsUlUlOxWlfz4P7fK5oVHGWdb6FSoI65LwmhSFQNtbxHdYb0924tvTCPCjNeejvvZRD+NojU31dfaGR47anh1bXfxrihsYTCbr6nN4UiiBB0YCfiLVe5Qprp8d8LdtxiJtL1pT1RRmbnbuOc+Yv3C3G+JBU14GWRL6r8/a35CX4XP/cmQpL8Na+BCEQ9C/PtI/EwBqf/eftNiTP98GDqHS5nE7pAh31E4wkYEoiZTFnXUfsKbqIyyg0DIDtptNDLLjf8ZGZ1+mv2VcifAG+s9bGPxFBJOG9vuphTHb1/gh0kd/CDeCskEEZT45Ql6GbxLTrrwMc+ziBXTEfrDkpvB1+TN4dxsQGelRtDLDvM+ymfkV29fyHouVrYIPgW75DYwUFAElr419iXmsFuvoFqpHQcmJOshpefljVkEoxuqqeXFafAjQLk8Og0PAxB4pmYd2uR7a5aOWAodguA5cpsfsIqqKvJtB4Y57wCG8M1NlB6wKBexWHMJyo4X5SXdId1oveo8QybCAInC9b8ARJl292WcVhNNXlIpAS/dWG0idsL6SFb2rQ5buS8IhQLusJE4qurehBWF9snXyO3DggLufq6nCC7uGWNZfJDSsLAfQmHu+HyTSzGVdmCU5TgJrwpE9nfbYkYPWtKXeDY5MNqTMH59bR/g5lMCDLgE/7t1zwlP4/MK0fblsziaxxp2wZ233Hsz/cPFqkVzSyJkRtfESDkFKwsTIPHkZhu3Pfqff+kFvH1prXgbWNKV/nuzPWM9Iyn7hI3Wkf95qnaR/lrUigTVCiZFk5hcIcHvtO8jo+G6rrdyx3KecG9Uz+k17vvcPcCcsANKDAhoLwcrRAAqdnLH26ifBI3zAGqr2sFgkrGf0R+ziRbh0BhyAzPwsMFIQchbTnOb4KFOy9pD466kvtdBjHdU/79wMTSRLUpG6EqxBwav7MvuSa+EUH8Jlp6CAQ0BBqchmpvQWkKV7kFuBPtM33SHRLguLEMf10989Y8M34+630gjpmFAKEuJDqOM6sUwUYYHxQEVV4cMdx7nXtdzfpwl3fJxw0WpwGJsNh+DHtWQb0C4Xkf553E6eu2inSf+8yJoQ20AcQq6bQemfT/YPYwUKcQgaVxtV1mRRUKN+ELxj9zYQzXI/rPz4+ON0jljZ9CBNz/HwwbT12JEDdmjPTqsmMkJpqqVpSgnJPUfnhSWUwMMggQgghL8hqdEXorPWxIISTcOZcP3bduBohdU2VTr/tnZbUhC0EJVVgEPADXDmGXAIn+6z55+ZtwN7oya3wVpwCFIQkigCF68k7I1PVtrP/2qHHXqswQEhlf5Zi296ETQ+IMBycAVzqdP2+NY/ZJf+Lm4LyoMWby3CPN8LsCreHFcK5b+w8fi3IC/6IDkO+mw0/iMW3L3ZOSB3ttDircgIohDIa7i38VOYikcId/w8be3DaoGCsaglUm1oZri9BN+L0llcDfNpUkuXnyCU8uO4MN5Ee6vHIQgoKT6EswOfYwd6jv7uZNHPKih3bT/oj2Qg66msMenUIsrBLKyKKCxYYBztcnHGEpW7wSFAu1zegPcFC4sLd9Q1ScWRHIpsGhyC6ILfki61t8CH0IqStelxCODUprAon0M5eOHsBTaMpH+GVfF+4BAm55NYEKBdJoFTYJ0IxkwwRm8fO+Hfa5XAmhUF737oqKmyd+/vdIP8Xo3qdvlHXabLJFaEGUgu2ohDl3Vh1/atJratVDILDgoVhnuJM/ztAZGAngstmzLSn8/M2L8snXKhi+57dqbl1/+rVWb6bM/j7VYVY8HGXSccgtbmK2fAIfzJTfuacAit4BCa1o5DUIjeGcIdt1cV24f/tw57/G3NVl0HxTIKwgLIeinucYiOqko7IEr6+9YO0VHP2E/sxZv/I37/o/b4tt+yjnpSG7PYD8OqeIpohmvj/4wMkJ+0R9v/HuRFr2PxnoJM6a/tyuiXmARIfQ0IT7PBgrtyPvI5wBPgi0/dZAEhJC7SxLf3MvNrNtHmg5BKhDEHDqEC7MKB5k/arqafxhVC2nDKIqAMKTB3Fq96BDPTIImjzg6IsOnrnLvDKShryssADkE9mhiJW++VaZuZJP1zRPwRcfgQwCHUQ7tcCQ5Bmh7Mnq7wUa3LzSAcwiw1PEKky0/jZtiFDAQSTar/HKN/wRW7Mwv7RYOT6xQOIQGV+RVol587JdrlMYtVbVz6Z913J0+kofTP58EgnB0aQ9EM5OvXqMIW1ubq3ZoVhdzLe3rPdttVX8NjH2jFub/lfvaDPTAB4lNlIozjikiiYe7Z3m4nDh+0re1CQhNOpZutE8ISSuABl4B2krKmfb6YiQ6QWzWWBUH1FrEqlE11WdnN71pJZYPtJvti3ZYyGwQ1/4O/HrDP/sFQFodAxECShZesgqspxaDvZXUYBIcwREuf/K1me9t726ylA6sF4ZMprOHaSafIfLiwMGx7t3wKt8B7rbJMz2ZQZuZvEqL4Nese/4LtqPtFAH7VdnHk0yyMKBSkiN7V+DYW2wA06M+ZjF+xH3f9n0QNkKNCCwnnBPkXfL+1sybc2v3nMQ3+7Nz3wAoRWCKGmSfizD8fdX2sLt/qDgwWEX28fRLJVRAINYx3g0P4q2ziKHAIJQJKKo5A7d9+rqs6eNFiSBEOQdadmakg/fPoAMBTvo8Uz1oGZWW+/hg4hO0cSEhqDh+CzpWCIPbECVrrFB8CtMtHCHcsw8WDk4Jv79kDVVEQxc/r6ozEIhyCRNfLzv5FEjcp/XMpm8D7Qbus9q6Nk/4ZVkWf/jlUEO7fsFiXoiBtTg9kI6QYP4dVoZwB4p6fezxffjC5S+E43VSNqpl4nEnC7Oj+PfbIof3WUIfigZYY4hecpMKXB1QCWgxK2fEO4Wb4vyPAB1l0FA6n7/0yUTXwQysa77ZoTS0Lk9mn//F1AHZJO4pLQg9cMh4c7U65x4s21nIzzI5l7NrNlP3sB2rt3X9rq+06BBsh9STi2DYUprg4i5thxpqrHrHHt/+61VbsdrVqd67id+iLHPfjrj8EUf7bbkmtLnuH/fTe37ctnKeisMdiFj0VMSheGfqeXRj5V1ZfccwpCUOzP7aKEsB8Dnuha9Bc4K9lpUkk2IgEOATCCwmlbAeHIBCkAJUqd1cQVPPyRibgQ/gWfAifZzc6BQ5iG63riOxu3/XFVXnrC93TUQ6HgBVBrh9HuwyIdAGXg3AIiygP8/QnWb93Of1zDh9CYN+AmI6okRoyfj6VrrDHASrWokyIUVFKYjArLkvj1k4Uzl/+jknujnYZK8jYBAv3hUvQLgfpn2OsD5KtXAH5FH+6WzKoSDgEsSremJx21XrrgvoSlvsjgXUpCuqKVxaOtTTaG7YHaXnv9oz5rvv7qBuuW6rBJneEgE/TEDXVxioJpTxoB3Z1OurOFOx3jDJ3oB+Yvq7wPZTAZpaAxr/cDjcz8/aHJWMsoALkZRUFPSjkTClKzVus/7tWHB9jIalil5+xy6dm7Md/Mm1FVUVW0ww2gOfjrqGPPDTKyyCrw4XLSXv00XJ736912LE3kHoZWuf4HMuTUlSzYCfSV6wl9tMsuEWOL+B4+z+yzi1vAKm/TJu8CNjwxvizuBk+Bw7hG0QV/Ia11TxChMJ/tJnUEPkSMP83PunOScCdcHX4u/Zy3+/jgnjGjrf9O4iOfgGzfJWd7/8KIWv/FjB0q5aRe9zGYJaQtSENoDFBXoaA0vnjtt3hEOTKuFURyK1M0gyQT1j9AScKKHkORsjJJEDJLCPkqt0MTFoRLDJisxzpJ/0z4Y4JkmmVRpX6Okn6512WaIB2WemfhUFYwiFk5zl6MoOclYPhzQ6HELM2sjsu8J2UBM1vKoU+z/n+aVEO+BAiNjMzaxeuddsLkCaNk1RJfAgCsefLh4BY+B/ZZDWEAIcA8ZXysGQXE78OBdILX++XBNatKPgOaeA8tXs7wMZXdkFk7y033p/tFQaMibgjErgdpuH63t7SZK87dtA6t7Y79i4BHn3xA9X/Hb6HEtisEoigKIwRw/j/REZtlg14xE2MuhpGOav/YkkpygLhgYM/sTJ25sUi5WE3O9Ift1M/nLKXvz5vNR3gGaqZlFnA/POlGuRikCXhLDiENtr50O+22RNPtVh9YxmRDBncDBm3E0yz+Cum4SA8BqJLltXgGgv8czd+E3zCE/a67f/Q2mqP2djsNTt18wt2FRxCW+wTdqz9U7a17vUsFtSHUnB58Ftu8W+sfINtq3sDlo9v2uDMX+Ge+FWyRX6IqIb96tZSebHnP+Cy+AwcCltZUESlmzMpuKO0eModAW1z+ib4gVrbL0rnxqetDKpjlcCKcPt57hd3XqAkLJCX4WU70/8l8jJ8A+snOIS7RmK4apdfsgJ14Y58OzUGYPMqtMtjKRQedtLFc5YubYUP4YilYoRwyjZKeGvQeKD46TWBMjBLXYfTJfbUQpXtpn1ZVMWHoOKvQNe6WYrSPCuS7er1m/bc6bPWBw6hCqBiGQBGgTIDIaz/aiR6v04Ih3ABPgRZEUIcwvplms+ZeSkKXpsrY9C8e18nJsuKe+IV/ETmB0BuxzW09PCozlmImlIoDYd2bbcThw5YK2msNfYyDBidqwdLx4cllMBml0Axa8WfF43aj9iZ1mUxCkvXpAcGZYGRb6VjF6109CTuCfICVMWce6736qy9+F+mrPv5tDXswmeOO1wPRgQrwuBpmACFQ/jNJnvre9qtdTsRRuAQpCRIgVAkUsa5CIrtp3b+Dib8o0vN6oNCBc/1/yXx6P+B5/ptRC+ccYRDh0mipARNpVnQYK6boWv4a/bDnn+MSf8M9QOQ3Pq7dqT9V6gNq4V7+LU/VJRACbv779sPun7dasqOYxUBHOFXS353Cy5KQjIzwrFz1tnwEdvX/B6rIVmSSqAg6NPSSfrDlVzlYSp+3V3DtfE/JlSzDiWhgdpl4H9lHILmFx/uODsN7TJ8CCP9CVQBaJcjpCKHPyJRi5uhdicKHdlERVoh0052cnN8CNShvAwdWG1c+meLWQU+JOVl4EjX+80wl/k+SrYRiJEUrtvbP2TPnblgl3puwDJZahXkAHJ5GXSf77wt7t6s5kWn54Y7XhubglVx2Ebn5t3pIQ5hNVLc+GPyUhTUHX/jxK3wrr07rK6CAaOxssJg0fcqK/0W/OLmOR5qPY6LWBfmnYZ6/MAeO7J3t2N3TBM1EYZTemmF75tVAno8tFjI/dBN7oA/ik5YpVZwN/L9VXGUFh8Wl0Vog0vmx61s9KxFpq+QiheOAjK5ylfedW7Gnvs6zH8T7HKxxncPJu3nfqnO3vXRrbbzIEyJVKdoBpUgL0MQbRBPDzsegyf3/g6tqi0RoQXYgkV2+V0jP4AT4XdxDeLqgENhW+377Q2dv8VicStYcTbRx4L814Sm/TELf6vtgURpZPac9U9934U9Hmh92pEWuQ7wMpO4aT++9vtwJVwF/Kesi1xjdtJQWGOKKJDMApTO1e/BXSEcwmr4EJajHBLpSbs69B0sHJ9G2ZgkSgOgI4vbQo47wPfl9nevaAioKKvLMOmfB3rARaAHlEaV/hkLR/XBbPrnatwMWENWwCFIQajist6eIf0zCkI9eS42Mw7BuRlwj42RjvmkcAikgGbfhpsBvAwlXzeDUxAYCVpPVIZnSP8MYdKt6Z9vtZq5A8OXV0UCeSsK6qVXFmrLA2WhVtrlCsrCahQF1Sd9QsPF4xdmcEfUV8fsdYRT7tu1wyrKyszhF7KN6NisDsKnsIQS2FwSiGJJ+MHihH2xlLDhRXb6jObl8Zwd3RrrWBcELCyd7UNhYNceH7CS8hjA+ohjATzzkymbGM/Yz3683Q493uDCKRNx6JU5Vbvj5RLs2jMscBGwEG/d/XtWh489KDLVn7SXbv4H6536V7an4bdxM3wMk++UvXjjXxAyedVOYClQamYRIV0Z+jY4hN+DsfEndqj5X7Owv5d00m38lsRq8EMUjX/Kwxm1J7b/jrWyA++Fa+F0/792yoCiIzzbocIdtZDPZ65ZffmjECZ9wrbVvx4FRWYSPd/qc+41BL3N/V7KzY2xZ8jL8Hkbn38WHMIe3ANKHMVivtKEFFSRrSiQeDGuHdEuTwzHYVUk/fMU6Z9Fu1wE7XL5DktsIdyxohG9g+OX8jIE85WsCAp1FPvDm0gT/iS0y+234RD8FQSt5XagcD6rj+qfV5qijK84+RLOX+2yZ4lmmACTUE24o8MhiNwjzyKwo1cQZgmTV2bHi8PjDrumqr3lOs9mwtPzkMCGKApq3w+uaig5n8ay0FipDGB87174wLsAKBoQ97IoqC5fglMxRDLJJQE2zpFsamdHm8sdsa291bWZ5nsNpM3wAPrrCt9DCUgC/pnR+C1mNf8mhuovR+PWgrIgpj4R7txSsoudwieL0vNWqhDK8XN8nrVIRYxdL2ZxohsOPdFoZWSPTJKIyJ1yi5Lga9TCSyhkZhqK463wIvwm7oQqwH5/zk78H1ld2Xvssa3/MAsaDMiLEukJAIo/4Pc/IsnSm3mk0+AQvmYdNR8B4/Bz1lh9yFXuFxj9ITKjs/1/bmcH/xlZJJ+w6eQVQimbWGSYH1A0lAdCPYmne620OAYfwqdsb/M76QsRGZR78iEgHslOZWTmfJA4auorWCm2ByGYKAgBWNLPDu7QW18QkKSszI6qamo8YWJVnByBdhkSJJZI0j/XE+4IDqGaSA2Fnzg+BNe4qwvYqVMOxKp4EMrtn4EPYS/hjprr5GZQ674Ht93RW/vyGv+lPrr+8SKpiA9BymR3b7+jXb7eP2gVWLFKyfC4MTgEtRasB1JmpRyIVXEOZlIVvwF1f4Qvr6kENkxR0FX4gSbMwlt2tNsumBtV3KMo/2tWUVhx3nJHrvyi4RQoGEwo0EHLF3Z47y579PABa6iHHRKwYxhOubLswm8LWwL+mRHoTbvUnyxO2V9EAcmxyNTyzOjZuWPP5lZ/3BEcU5yctrKJKxadvMDCxiaXBViREG07qqxle8zRPKcd0DG7I/crlhNLoCyk4U0oLpqnB6JBHrWjrf+DAzYKQKiSi0OYnu+2n3T/X+R1+HPOKbPqssft7Xt+j1DKvUGNYh7EneIX8NlEP6RLX4V34etcSQluRVkIAjeIrAjzpJbOLExaJ6mlD7W9n3p2ZOuRK0GdvaXD2d/ot/sNNwbcDBeH/grw5BdQKsqJpGimndXxIUiMypOh5E3zs0r/PGMjfdAuI3DlZVigf4naQ+AQdhHuKNpl+p2LQ+D+AD+wccIdt/D5nelKO7FYZZW4iZJ8526T63Fhv0jCmmNVpOSVMH/LmjsAgPDkuQt24WoPmlQxllwsWowtN58Hh6/rVXLJxSH0kv75JRSEISLfVPwd931aVyPhSRsqgQ1VFNSzXC3weGujPd7RwhgTmEm7iyCxzFoVhdwrdnSxDNU53BExwnBOHN5vB6CD1uc0mmiIX8iVVvh5M0jAT9R6V2KoG5m4fbNk2l6MpE2R6FVSsleanjWTCr/Af5H4iJWNnbfoXDczbTmWgohV1pRYW2fMGpqhzWVBFJhRp/hFlo+UQFnQq55RhfodhAZ5d+M7WSyXMznGk0OOoOj04G9YWfHrCHf8h1ZftcNO9/0ZE/xfEhr527a/9d1EJ9S7WmV96Br5jl0Y+veOobEsslUtuN9kRUhmZolm6Lbm2M/Y0baP4JY4zm9gk+hEoAP45cKd4l50nd52mIID4drId6n/M7hFhhyrYqBWiQ/hznOXawkWQ81TJeTLSAuHAJFVf49ol9lFFydpH9rlKtEu74d2uT7rZkBJyConQpKoH1Oy+NBfpX/+KWiXmx8EHAJWhMmZGTsDBuFFcjMoEq0KK4KK7k0+RafnKggTuDOEQ7hKuKNq9uMy33by6WN47soS2HBFQc3ohvub3UYK0Tdsa3MREbj+XMlHUXADioc0cEdk8J3FraO50U6AX+jc1gHgSHS3yz5JPwkHLYevoQQKUwK547SUBTPJ7vW8zdm3S2btcskC9M5FVorCoL3yioXFV2DE6EwvCsMZi5A3IbNYyb9iq90SRWGo5j3ADmXSWRtFduHjRKoMlmAtxfMp5U04Bjbh71kzwD35/V+8+fs2nfgOOIQ/Aofw8ySF2um6IX6CrpH/CqbhDyEvarJHOv6u1k5okT8DTuAldvg7UT6kzMjNIBxCBtPyNUCPh+1wa5CXoQRAo0quIuC+yL7kfi8cws2J5+z8wBdtJE7YKPWXAICEV9LVoOu4W3FKCD9KQdAlC4fQS7jj7CRyKxEOIW6pMqV/PpilXZaJRgpCUKPeHA4BBWGOFk+ko/Z2cAg7Ucy0gcl1M9zlLt2ta6/Z904mjIMoLuP5RMqudPfYsydJ/zwJCJTNV2Qj+BC4OqmospqpzGMBPg/lslJA+3DH3DXDHRS+FJQE7oui4K/Q3/xSQmqONDfYsbYmQqy0awimpnwVBjfwGOTz8Iqn+be3c4edOHrA2uFh0AOQRhtWHzQ8N8uD62UXvj98EvDjVGO1RJM3isE0AL8XbNq+CXZhggemHlu3GBxJx3Br0UmKFuJZK07HrXTiGi6Js2Af5qFkrnBuisa2cmvfWW0V5I4I2E+lFug8X1nwlKCSuGiBoqJZi5XuglzpOaIjPmDHOj4KH4JcDNoIaOoX5iiIkkjhQvjB1d+Fq+Cb7MohHbKaACfAAg7igiPJa0A+hyiukf3kZdgHDqE82qjW3bOq5/TOohbUWvDb2OwFcAhftt7Jv0A+bdSv6AupTlJ8Vjo/W6MmHIpcDGpmZgLa5e5pGx9K0jfCTcWHIBxCNv2zw4AoQkLnZat1OAQ+K/3z7izt8sEs7bIUhM1SvJR0aZKKgIp6v9EPDuHlc3blBpwVZHYsz6Z/znfmzIreyV2fr47B3ogVYRy8mYpfI9wf4UvBSuC+Kgq66tyB0AjPwuPtzba9Lsg97x5vBs+Kc8QaROba4PgZwilLMbEeO7DPjh/cZ3W11SgLCqdU2FeoMKxBpOGhr5EEliZy2tcErgVKS/EgRD5/UzRjP4gCsmMsV4tRkf/uWKI0G+MjX0RpKElOYl2Af2HmIpWROAokfgmpqVvBL7RurYK1scS5I3Kz7QWXrWU9WNwzDtmfIKfCz4Ah+AiLu8iOZHz3hTDm+V67MvwdFvDvgFTHdO9+V89UD37+zBjfjwQ4hNb3E2Gx250c7Gb10V+1+zrnt+B74RAuD/1nFpk/xn1J9kwyWQrn8Mp8COqBiJG4GuEQCCUduD4D9fKcLYLbiIJDkFIwXwMOoZ70z9Eq+BCkIOS4GXQTkPcYwMY6LumpFOmfCXd0tMtYFoS7urP3y9dRSJ/UT12O5C4cgqIWRsiXcPL8JTutcEd+E2mSk5rGUR5Fp+e6GQam55yCcAvtMgfl10oeHQxPXZME7ruioN64B4mHzU0M/L17S509gnWhAc4FFe1NtIyv94HTYNPZ8js6OmjSWTfECKc8fsj27yIXBeGaKVjEgokpVBic0MOXgpaAfxb8RCoWx0UwPtcW5+w7kTl7uSRtRPFbxb3wCzAwacxH4vjwiY4onbvOs1aK3zliVTUR69gFfqEF/AIL6Z34Bf9UqSewC2ZGnTWgrfptVl+5H4W8ikUyRXKlaygI37DZ1A3CETtZU6VE6FzCPFFuEhlwCFVPkZfhY9Zeq1wQUkBUY/DKx1uKf0b1ZVJ8COAQLg5+jqiIARSE7e4ZDxSElc/3lameAIfAtSUXbLgPHAJgxSR5LVz6Zywdiep92fTPOHbkYsjhWdBVaKaYRhnQ/OTSP+NmaHHpnwM7RiCZ4Gp9u4X4rn5KWk4mKAeyIkwR4nj+Spe9cPo8+TjAeynckXuXLx+CGhIttXczTOPOkAXhsmiXs6GUuZvHQpRX2Kc7JfCqKAq+2dwBosiIwzAuHmnZ4pJK6ZgNUxiY+OZxO8xjYejc1mqvO3rYFE7pFAm+5/nX/67oAQpLKIFClcDSJE8H9Vn4hXkWtTNE7H+rZM6uC7+AtUD0z3cLp3QZDAlFjE7DvzB+CvzCqKUzFW53XtdchsJQTYppIdpZAMV+KmGgdC+XwMIg3oQkCsPC4jg/BbaMoqJacAIAlh1OQEBCHSvWR2iOi6vtYPOHbWfjW5eAkdpDrrQlyP0+4EP4CTiHz9vY/HNkdtyFr7yMFl8Zh8Bq6LodwYKgTxPD8w6H4NI/o1yVEN2RLm8Pwh1jCrHmOmU10Xv2VYvcPIvdNDUcE+1yJgbtMgoVC2kuDkHHF/L8oSty/ZNMuJ8+/fO167327Mukfx4dd0BFKQ6KlMn3ajR/ewUhJdrloXE7MzSCy0njQl0INovuj/BlU0ngVVUUvGS0YPuMYnXs9o+3NcLgVucGmca0hixr/bpLcD5TAO3M4AsrUjjlvl0uO2VjfZ2LjMgNp1RDOicsoQQKVQJ+0tc49fiFccz8z+GO+C9kLlTCoVoUBh0no/wtxS0U7OSVaAr8QpnwC5MQNnF+EuZAGQGat1ZA8xxzyaIyoI5FOsTjc4vCoEXVuRU4wVXpWtPyoBalOARHpMFF1EFO9OZdv20V5EJQuScfQvZMHSc+hLP9fwrZ01fgVdiO5QJSJhQEX7+OWbHQIScbhTuCg5qZzKZ/HszSLpeIdrkWHMLhIP2zqLGdm4F+uwuVrUPRJUG449YsDuEoybjKHe2y6peSo6ss7PlC/VORPJxFCd4DlZuDQ/b8KdI/98BZURZ1xHUbFe6o+rNiJBQW9kbCHT3tcqggSDqbu7wmioJE5gYzI0sDWaW9psoeA7/QVh2EZDnrAmZVP/jcQWt4Ua1qI+C0B6Us8xphPo+AXTiwe6fV1MQwSYq1LojXLvSHfw2XHh76gEogd4xqfEd5OHCdWz8m/u8Xz9iPSpKQGYFfuKs7goMdfgH/dGLcysfPg1+4wjOocMWolZYXwb8Qs6aOSnafYBpIn+wWx1seQv9keSHf/nfwvVSGjpq3236ImGoqtrsv9axr0QgKNXOq/3s2MWCXBv/KLo99FssGYLqI+BA8DkFn+POyp/s36lAfAzcDfZ6HBMrRLs9ZRumfS+BdkYVROIS6vbZQGgOHoKioWxUEXcUEylYVm4qn0gHtcp3CHfnO4xBy5e+bL7R338fAzVBCUr0Sl/755PmLpIBW+mfhEBTuKPnrqtdfdHouDmFkNu4UhJ6J3PTPwX1efyvhmYUggddMUfAXH0wUwWBSKI4sC0pdLTpolY10R6TIEzFH7G4rGInHjxyynTu2kkuCXPBhOKW/HeH7JpCAXwx8V6Ps8OX/vUKo4rcjs3YWymGRNZXdVWHgTKwLWqkjM/1WTnREFMBgZrGCCIkSi9UF+IW6RrE44I4gnFJLil/Ufbsrv7sjXd3zsC2WR5sJqfzbEDg9hfshSFmda10QM2T3yPcJl/uczSbBOUR30CYWR6IZtJjdVUHQr/Rf/Yug1Mh0PjoADkG0yzPgEHAziEQqUbGLcMdDllH6Z61st+EQZIMRDiHNb29CWXrLQjW0y4SRYmVJZeu/Xd40WbAlUMbAIZSS/hmumUvXesAhnLNxMAkKd5Q1aqNxCDPgEM4OjZINdBzArCxLwVjJVxEpWCE/hB17zRUFL/Ncd0QVoTlHwS4caGrggResiOebZ1ybET206ynBlMMOjN1FHGBjisG9p7MD/oUD1tEKippJwYVTqoVsOzonLKEEClUCehY0RvVPCx5JqW2OhfBlwhq/CX5hAB5o4RccHbQ7KudKtGjKhYCFQS6I6GS3C6csSU+xaIJf4LwtrWUunDJWUwrzKTtrFAZnEFiyCuTUd8tH9UhOCiiAwSrE05ddBsqjbR+HWOmE+22JD2HwSySQ+iHP+Q4UCVglOT64ons86fRdLQiHILfJ5GjC+q4F6Z9LYESMkHEyBadDYstRSyr9s0I4HQ6BkyiqWW4G4RCmqEnpn5+GdnkPfA5iJEzJ2rBJih8Dmr90c4Q3SIIJ6L7ZZy/gZrhO5kVHu7xBOIRsM046Sv98CeXgDGDF2SwOIXce3yQiDLu5CgkUjKKgvmrQa9fi8QvNsUoTu2NnHRnw+FGDVOUV56ngsLu++p3RDNaFqMIp9+2xowf3Wn1dSAd9V6GFPxSsBPxiocdDCyCZIGyExf/HRdP2PfALCZTjOnEN8wDp7ZbiZn7wC1IYUgEddNnUeRcmmMQFUMxuvXV7JXTQVeSPiDjrgnbvrppXfBB1nFQYQhAzMBAs9qP8/7ptrXuCcMevW/fEFwEpbkNJqKVLa8EhoPzw3M4p/XPPNBENwiHJigDtckmFxZ2bYZctRkS7fKebQbaKcfJ7t4FDeCduhuOEOzraZZSGwIIZzEXZ6eYWcRXcH3RSalNEOASUpr6BIWiXL9sFLAlKFlZBCmjd90C1Wn/vb597hUNQNMMw7gYVKQiyIGwKma1fDA/tmQWlKPi74Bdyb7rqrK+xYygMrSgOKs66wPsrzlPu6DtfNJg10Qm/oHBKl50yVuWsC/t373AmOlkXFI627kbubDb8JpTAfZOAX/81tvVPVNAytfcCLPwe+IVno0QhMOpjuCO0GN4xoesL0UHzTJTMj1n5GOGUs8IvlEG1zIITK8G6ELMtbZiv2cm7cErq98/qvS9MaHiQ9bSRyAxwKAt7UYxoiSY+qzeCEKr4qwj+WnrNLkCyBsqKoPTPgzdmXbhjGtrlUrglBNZIxhTueMAypbVc+53hjqp/EitCGfW9DQXhjYtcDzgEUTbpn1rXvztks9SR1/6Dl5D6qPmxRARbWF3HJiYdF4LSP2unH4MPAXEtbbrW23OauAWHIMVACoIUBRV///1cvd52wvMKWwIFqSh4kWkQ+gEY5WHY31iPS6KRRDRKLKMpJniw/cPjvlzDix42+UM1Ac0DbJyDf2F7ewv4hYO2Y2u7o4MO8AtBQ4U+iazh0sNDH2AJ5I5ThVOmMaVfIvHTd3FHnAO/AJzPyldSGLQqSPvOprOOTt9EYThl0cQgdVSCXwjooMXuWLtFtMXgF8gf4corau1aiNWzgEdBDsUFpyAET2FQyZ2vev41D0QiKDhoGmODcbt5DRzCdBoLAuGO5GZIVkC7THbHdGWza+F2N4NsGooKkc3i9amoS/+8DTeHekR2GHdOrszu7EVhfOP76GSCi6QUi8EsUV0XlP75JDiE2RnSP1fdF9plpX8+OxjgEJJgvVRy5+fCkFDYi/slgYJWFPxF5w5IpbE+inVhP/iFKAu8phnNb9Ke11tUh0xnmvnm5hMOq7B/53Z7DPxCG3kkVL/CKVX8w+r+CF9CCRSoBPw4dWObUSv8wixo/1P4779FqOAA/At1wi/Q/5XDKcEvoDAUZRKODrp88rSVpOdcOKUW2AbooJU/QvgFJWIThsE9gq+oMHiBqWfuDP/Fre966CgKddRh06R/7uuCdnmYyA6sBxHRLpdusUTDcSwJWzkGpwvuFvewZvsgN0xSOATqUvrnp1z6ZyI6WGTFh+B74HsRtHhrNwrxL7kZNB919960Z8EhdPcNOCuop11ewV60psuQ6IN7iSKIcnZZOARyM0wxN6rkzsdrqjg8eNNKYFMoCpJuMHCXLQwtuCEehd1xo+ig/aQhd4SmkClMbFHMeo+CXTh2YI/V19S4h1OTohQK9WezTCybdnSGHc9bAn6caqxq4YxgSRh1+IUZ+36UPBCM5Rq+0+KStQ1wZPYsrRgKp+RfEemsK8YvWOn0BWfKS6ahg2aXL+xCyzbwCxUlTlkI4vKXn9c1XwBtqq+y8injZRwcgmiXR8AhqG6HQ4jgDqk5Yom63bYYJTIjLRwCinxWQZC1Qim4J7iiZpJivCNdYY9gR6ki0iPprjNQarxs1tzHV/EE30dZESLMR0XIZXB41F44e8HOXL5GgquIVeNmEK5L8gkmyvV1ULdbJStGU5jjadwMgz79s37I3p/gyPD1YZHAplEU/A2RNqviTZJ7GmodHXT9BtNBix8+hVIwSVjRFpSEJ44etH27dliF6KCF8NVTRV/8g+z7F76HEig0CQRPDEOWjumfxy9cB7/wXfALL0RSVsFYFh30rfgFLQxZ9UHuCEZ7SXwYd8RZK53vwZJA8qhUCSRNpLPeWUWURMC/oDZE2KRnVEWvvg/ui9tecn/3CkIqAQ6BnAwDPbOOgrk0yjNXBDNk1T6X3XGhrA4LAt/dFu6oJ1LhjiJZU/rnN5P+uUk4BL7LxSGoC0HvbutMgfzp5xXJUJEYsiJMTk3Z6YtX7AXSP4t5tgbaZV1vvuGOuk25fAgiSnoZwqSuJRyChLK8SSsQEYXdeBUlsOkUBS+bXPNXGZr2YcIpb6WDDiane01Qvq6V3oPJi4mRhzROZso4ZredHW3QQR+0bW0taPb4fkmXmtVbeIwKe+JZ6RrD7x4uCfhnwS+QQTprqHahg1Y45TVSLYsf1dFB376MZhVjl1mR3Xtkpg/CJtJZJ4cwT1fwLBRZZXUEsGO51TZCmFQRcfwGXsJa8FTF7UXPj1O3edcxyfmMTRHuKAVhVjiE6AJuwYSlKjpgVQSHUJXFIYg0SU+dU9YB9fE5jjJAuid7FPDlU5lq20GmSpEtKdzRX7veV+jG7d16zf5e6l9W3gp3TDD3XOy6bs/AhzACaFE4BGG2XO6EYKJad3+lGArDoTJPAj3xIZzDzRDiENYt0gfyxE2rKPi7kRu3KzpoJZvaC6GSJiA/MfnF3J+zlnc9h2pDisks4ZSyux7dt9uOk6GysaHOceMv4C/U70sP+VoaCI8NJfAqS8CPUze2GbXCL7h01tBBf6uYdNYQLwi/IBP+XfELZF0sypCtdfKalUMHXZKJY4Erx/0A7oGIvMqYEk+V8i9qZZWB0iBAosMCZa9X4MQ0loc0UQzzs2mbJv3z1HjSEnMLKOjwIdCXjNI/10K7XL0twEy4cEd6nn2opSCgo7j0z50Kd8xU2mHSP5eCWfA4BF2Hiq63UIu/J+qf5q1oFNAn79f7+u05EjddudFrleUVS+mfnbVGJ62z5M6N+qz0zyf7h2xyHpwHJXdeXWcT4WkPkAQ2vaKge6E5IzDBBVPBNtJLC7/QWp0Np2SKKMKsmp1b1nz7glrx8WJF0OQ2DR10bSV+z0MBHbQ0fLkjAsa5UGFYs4DDE14TCfjFSeNb1M/CLwwBXvybEtJZQ30s5Vd00EINLOMXsl3V6qJwSv6VJKYga7pC0qnLRClCmbwIQRMMj46kj0aKURCkJCi0UbgDPYc6Xe6JQFFgXxtghQEvoiQQPrlQIhyCaJdJ/xwBhyAXg9wg2YdYCoL6PQ7BUi3kEMIhPE7IZU3R5sIh+HsgqWrxV7ijOCKGSf/80tmLztWA78HRLjurzIbgEJgPs3JU+mflZbg5NeNurBQE1477K3wJJRBI4IFQFPzNDAZ/YOIUVemB5gYIm5osBp2piiY7PZj6t56iiUlqgPyoSdwOs4RTtjc3OXfErm0dmFohpHH4BXega0fnhCWUQKFKwD8LGqf6J3eEVvGuLB30S6+YzpqzsC6gT8C/MGnR2V73ryQ1hnIukCHRE+JQcPUGi7t/AvVXkfAE/IpdgK8XUBCqLVm53ZK1u6FdbuArNIgcHIL6K1O5S/9MP9+SKXPhji1kl3Q4BL7TMfpX6M/eUh/VZ5QB4RCmZ+dcuONzp8+yIUlYNbTLwe7+DlWNK1xDQRi56Z+nEkkYFYNwRwEhveLgLBVrqDY89OGQwAOlKPhblms2ixFOKWVhf1M9psxgouK54OHzR6/9XROQJishkOM8cEkooRVOeeLoARQHwil5ptPp9NLDt/YWwjNCCby6EvCLlsa2PpcR/aN01qcXwS9E5qwXV4Cjg+a3O90R2ZPYzSvaQCGVJckpFIcJl3yqOD1pxYRWiiUxyM8YtCLv+AJAw8WSSpI11Vu6ohHloNEWosoJwTHOihDUrT7pmUugWCylf14g/XMRgD4p7lkcgn+s1UKhFi9rZ1ZBXlIQkuSb6bpxk+yOZ62XqIYqLJalfO9wCHleiOY7mnElAQ33Beo/OzgGtTbKGSV3vnRfhC+hBG6TwAOpKOga9VxIS/Z00C6ckuyU22uDxDTegucfoNvksqo/NRkpnFKmWbE7CmD06MH9doyQytrqaqcsKJzSa+urqjQ8KJTAaygBv4hpbMu8H8VUML6YtGfIH/HdSNzmeGDqZD5gzN91j8szIV4DKQ3SmotcOmeSNAmA6HIuqHZ+I+xSioISVCkE06kC0rIX5WYIDuHV9UNL2gQWhw7cDO9MV9ly+mfB8bLPO+/6XKjFy9b1j46WgENQh28ODLpwx0vdN7BKllplGcoTq7v+y6dIQVDxc9w1cAgv94/YGCRNKqGC4MQQvqxCAg+souCv3S/SevD0eRd00MfBLzRWKtUq8xYPo9wJeojXU/Qs6lyFMKVxysp02EhuitcdO2R7dmyz5XDK4MBbJov1NBieE0rgPkvAPwsa2/on6mcBAm+SzvoHAB5/EgnSWVehMOj5ya5Ht/ZqaZXSmdSo1copDvozpwUd546VgqCadFxQlc7UH6JdrkSzfzu0y6+HD6Ee5UIsi7Js6FD9W7EPOr1Aiu+j5qEScB1yX44SwfAylMunLl6G+dKgXYbtkv76zc16u+5Eisx8NMPQTEC73DORS7vMfSt0oa1XAOF5Gy6BB15R8BKTkuD9b2Xs/A8pnLJ5C2ltl/ELwcTkz1jbezDFBfiFecyIcbT23VuVnXK/C6csZnJIKzqCav2ksbYWwqNDCby6EtA4VfHrifALGXb8Vxbj9m34F84STlnNc6V01lIX7mphCKoJKmIBW6pQT4JvxB/Du77SIifa5Qyr2RvTQfrnDnAISmolJUHH+FN9/3KqKJiP6qPrn1ZlZBXFnTALGPr8FWiXCXecwhJZDR9CiYjeZE3Js0hx8wqCaJdFmKT0z8ppo5I7D+bZVHj6QySBh0ZR8Pc019xWW15KdESz7SGcUpgFPUqax5Y2PP6kNbxrUlAb1GJzCcIpeUAP7e60Rw/vt8b6erdbEP2qHtilSWQN9YeHhhJ4tSXgx6nGtj5LYYiDHxB+4TvQQV8nUkEKg/JHqKxKaXBHLr/oTG/ZczgEFtajol12OAQlOCIZVFYVCVrJ0TeWqymYT7f0EcFFItookP75Rp89A+3yjaFhiy3hECRZ/Vt/cYBESZCGZdm8ODKBkjAcpn9ev0jDM3Mk8NApCrp2NynxRHkTX3tNlT1OMqiNCqf08i3K4heUuKWcdK8nCKc8vHeX1cRiDrzk3SH++PA9lEAhS0DPjV/SFFUk/MIEmIPT5I94Fs6DbgCP0hWkMJTxlN1uofNLoepZKvqSL4RBiFO7lIRt8CE8la60Y/AhVGCJS4BNcBvy4NA8l9Sllu/7B+dmINwRr6T1k1DpxXMX7Py16y46qkI4BNwpzsp5i0DW1i3JJZdVUbTLYlUM0z+vTY7h0feWwEOpKHiRaFevoodVVgBFRsjCsBxOubH4hVnMjC1kwHzd0UO2a/tWSFUIp8Q86KZf2ldv/GSqfoUllEChScCvaRqn+kcWCPdPhE298B9cLEpaV3HKbhZlLJ7VFGQK13n+nz9XZnJvxavhyz0LJHxbKLP9VmE1hFwq3FGuh9zzCk0eK/XHzScu3LHEJqbIlwDtsrAIol2uIi+DHDV+k7LS+av57nYFYQza5ZdQEML0z6uRXnjMWiXwUCsKXli57ogqZacklfUhOBhywymlU2jCWk/RxKipUgCmeUIpU/zb27nNhVO2wcPArHFLOKXa0TlhCSVQyBLw41RjVRYGETbJ7TCD0jCJjWCc3AxDRDBM8D7HwQn+STGQm6+UD1UADuqJaWgpilrDIvTPvJdihSOPE+C+zakgaPNRivVwdj5ul6712AuwKo5BZlQJePp+4BDiKB9noVw+B/VyyjFcMdfQB2epKOTBE/ZtU0kgVBRybleuwtCI//DR9ibbSZSEysaFUzILojTMzkN/y67j6IG97l99DeGUYBdCOmgn7vBlE0ogUIgDpcFZEVjs9Z0WLSkI+ks74UDpDqwM7jgtbFIO+D3wtW+Oi9eTrOvTRek9yiYjw0TRc7PPnn/5rPWQ/rkcC0IplkMxumaP1hnrKpKdiuSnz5dHJ5ybQeRJKrnzl/sifAklsEESCBWF2wSZ647QT50oCqKDbqqqcEfKXJoPHbRvTuCsNCjnOdwRDdUxe+TIAbJTdjrTZIokVJpcfV/8OeF7KIFClYAWTZXsWrb0ru+dSuAPcEf5l0Bx0Dn+Z/+uI3xd/uhCelc/1T89p6JdLgasODQ6bifPnLezpH/mS/gQytzvgRqx/t4HCsLyfNA/NWsvE80Q0i6vX6bhmWuTQKgo3EVeuea7UiaBg2ALjrY2WmVOOKUmi9yJ7S5Vrfh1MDkyhbI9SIKGjs8lbDsMkieOHbSdhFVq8knjotB05BWGQp44V7zI8MuHVgJ+IX3QBOCvSwqCS/8cjdrUNKGil67Zi2fP2yyRTjGX/jlQIvK5fikIuUDFCSidz6AgXCH9sxgb3dwja0ygSeTTVHhuKIF7SiBUFO4pHpn5lh/EWrJTHm9rdNkp5ZP1zycf8yqBIhCEUy5Aq3qQcMoTpLNubmwgWc4yfsE3EyoMeYk7PPlVlIBfWP3YXanpzTSevaUvioKQwPJ3tafXnoN2uX9kzKpQEKIo+BvNhzBPXpnzw+AQiJzQZ5XceWklmYbfhRLYSAmEisIqpOkmuRyFoaMGVwEKg95VNtIdobqmcUeUQ8xyAnfEkX17oIMOslN6Omg/+a6i6+EhoQRCCeQpgaXnDY1Gid+UJfZ636C9iJvhyvUbFi0rt6VwxzwdJrmbD32+OjZhp0jeNJ6lXQ4VhDxvZnj6uiQQKgprEJvb+fP0agcki8Kexjo7RoREfUWZq8UpDIFHdg21Lh+qen10hLJTzkAH3QoZ1OuOHXZ00KXEXitiwu9qls8MP4USCCVwvySg5y1I/1xsI2Pj9tK5S9AuX8EtUOTSP0uR2OhwR6V/PoWb4cbktLuswOoYYDru13WG9YYSuJsEQkXhbpK5x/e5Wr0ooA9DBX2YcMoysAxa7PXvdrKZe1R3x0/B+agMxJHFUQwS8wnbA+/C42Sn7GhtccAIpbOWUuHdHjonLKEEQgnkJwFnPaQK9xyjICj9s/hOZlHaz16+as/CqjjL8ygcwoaEO9JQbvrnmUTKKQiXAEYqgkIld75xX4QvoQReZQmEikIeAs8NR9pCnPQjREfsbqh1NW50OOUM4ZRSQ47u3WPHYXhsqK8llHLBQjroPG5geGoogZUkIJs/SrjcDCkwQ0r/LBzCjcERcAgVbAiU/tmpEiudvervci2D4kBQToYz4BBmHYg5VBBWLcjwwPsugVBRyFPEgUlwGeGscMoTsDs2VuVkpyRI3O/819pcMGVhoWBno8lpZm7OaisrHVnTgd07yVtfiTtiOZxyyZ+61obC40MJPKQSWHpm3AYeNwOKgB7YgeFhe/H0RTvf1XMr7bKzN6xfWE4P4XQ/J3SNTTkrwgjYJBVtQKREuO64b8KXUAKvrQRCRWGD5J9rHiwF+XwQOugj4BeqSpezU2pC8qbNtTYbKAwBu6PwC+Jf2NbSZI8fP2w7trbBIkk4Je4IZzRlolma/NbaUHh8KIGHRAK5z4jHIRSTWXYCXIBol0+JdhmLwv2iXR6aJf1z/4jdmv55edPxkNyG8DI3gQRCRWGDb1KuO6IW8OERuBf2w8GQSwctCtv1FikMakPbkTi+UjE5HtzTaY8c2k84ZSOzzIJTGLylI3cyXG+b4XmhBB40CSw9F1kcgtwMs1jrLlztwYpwwcZnoV2GVTGCJS/vcEce2ltwCLgWxIegDI9h+ucHbWQ9mNcTKgr34b5qEtJC7ZHQrYQ3Hkdh2FFX7Vq73fS41i4E1gW1UYx5UuGU81YJfezxg3tddso6Rwe9cAsdtNrQeWEJJfAwSyBXQZCyLT6EJFaD7uvgEM6cs+v9Q+RlAIeA4rBRtMvS61U8DuEsOISZLA4hd2MRHBW+hhIoPAmEisJ9vCfBrj4IadJnAR2PoTA0AnxUEf+9UyrcX2t/CRSGZXeE8AvNdbX2GPwLe3fusIrycmddUNy3JsWlSXLtTYVnhBJ4YCQgRT1ChJKiivoGh5wF4dy1bnAIpVYFqVqAD8hPrb5lM0BVPbgzFO44NDPn5OjmBg7Kr5UH5paEF1LgEggVhVfhBmlS0OSjUi46aMIpj/CvIlrivnMREqzi2Y2H+24tL6rZJddh4lN2yjjkLJ0drfb4kYO2vaMtoINm1+RLqDB4SYTvD4MElsY7D4owCCX8G5+cstMXrtgL5y5Cob5gNUQzSJXO182gxzyXdnl4Jm5nyOzYBe2y5oBg8xDiEB6GcfcgXWOoKLyKdzNXYaivKCed9TeORS4AAB6ISURBVBbbC2nTRtFBO4VBlgP+zaAsKBvlERJNPQb/QtOWBmdKFaYhtC68ijc9bOo1k8CygiANAT4ElHSBgC92XXd8CKNTk1Ybi1kE8LFyJ+RbRLgmhV1lNpkm1FE4hPEw/XO+gg3Pf80lECoKr/ItcNNIjoVBNNDKTtleU+V6ki8dtJQFlRIHwlq0SYhihF947NABO7xvl9WQqTJF1MSikspIqeBYf447MXwJJfCASSAi3gPxIfT2gUM4b903BwgrrrByngvhEFxq62B9X9eVZ42F0r8BJy669M+ncTNMZ9M/524Q1tVAeFIogddYAqGi8BrdAE0e2CLdIi1A016omo+jMNSVl7oebRQddAnuCIVTTqEwtJFk6oljh2w3LI9im0vzvesAXdE8GSoMr9FgCJvdcAkshTtCkTpIQqXnz1yws1e74EiIWgzKdf0uJUGP4XqLFIRcN0Pv5Iyd7B+2wRCHsF6RhucVqARCReE1vjG5qGfhFwR2FCV0FD+qFm5NRvmGU8puIAvDHClwlfFuf+d2O3F4v7XDwyAVIc1uK7QuvMYDIWx+QyQQ4AACN8PUzIydvnTVKQmJVMqqXfrnjcchTEG7fLJvyFkSdBFuE8C7+hKWUAIPggRCRaEA7qI2NZpcfDhlA/iFx7e2WGc2nNJFRzDn5LX7oQ3Hv4BiMCs6aLSPY/v2upDK+tpqZ10Is1MWwGAIu7AmCSxZwrQo84D49M9XSP/8zKkzNjQ64RSECIr3RuMQEljklP5Z4Y4+/XOu4r+mCwkPDiVQwBIIFYUCujl+V+8VBtFBP9bebMojobIR+AVNrJ4Oeppwyjp2WY8dPWQHdndaJeGUKXZewa4sxC84oYcvBSkB7zHQnl3jVTgEfb45MIgFgfTP3b1WSqhjBTgEl5fBKRLrvxRvHJCyrs9K//wyrIoTkJ6phArC+mUbnln4EggVhQK8R1IYvNlSdNCHiY5QdspKcAUqG8m/kID2OR6P2472Nnv8WBBOWQyRU5CdksaYGDUpaxIOSyiBQpCAH496RpT+WYrvyPgklMuXcDVcsTSDtQqlV6PWP0fr7beUglwcwu3pn6UgCGnkFYn1thOeF0qgkCUQKgoFfHdydyl17I6OtzUCeqx3mAU/MWmHs96ixV9tSDFR6twFsAqKjDhx+KA1NdSRmfLW7JRqJ1QY1ivt8Lx8JZCrILj0z1gRZmZn7fzVbqwI52wKhtIY0Qwbkv6ZzuaGO4pJUZEMCneUhcI9dlIS/IOY78WF54cSKGAJhIpCAd8cde32CakdOugTuCM2KpxSbWjxDyZX0UHHLYZS8ihgx4N7dloNceYCO3r8go4PSyiB10QCGqg8EBFol+Ui67rea8+dPme9QyOOdrkUxUHjNN/i134p4Qp3vAgO4XSY/jlfsYbnb2IJhIrCJrl52vXLvumtAAqnfJR01jXlUXcFGxVOWQzIUTwLsygMCqd8DHbH3Tu2Wim+3pSyU2oWpS9SYNSXsIQSuJ8S8ONMO3fhEPQY9EFk9Pzp83axu8eipaVWQfK1RRb04OlYf29yFQTV0jMxDQ5h2IbJ8qiS6xJ0X4QvoQQeEgmEisImu9G5k5UwCwqnPEQ4pctOycq9yERK6Pi6ixZ/qQFSGOKYWxOQxuyFd+GxI/tta2uLUw7CcMp1izc8cZUSyFUQFNpbQujw+AS0yxev2kvnoV1eyMCHUEltwgfkp7LqdCkZcsOpjOLCEFCxC9yDilPSec+3HVdZ+BJKYBNKIFQUNuFNU5dz8QtN8NSL3VFREir5RkeoDk29wcQJHbTCKfn72IE99sjBfVZfWxOGU0pIYdlwCeQqCFqgRQw2x8J9savHXsDNMDo9azHG+4bhENASvIIwKxwCLoaLw+Nh+ucNv7NhhZtZAqGisInv3u07nZ0oCsIvbFQ4pReNoiAyTKgzuCPqYgqnPGj7yU5ZWVFxSzilPz58DyWwbgkwzqSkig8hk4F2+UafvQCrYg9hj8qGWorisFHpn9VHGREUjnwB5eAUboZZudcouYq4+yJ8CSXwEEsgVBQegJuf645QOOXBpgY72rolJ5xSKO0AV7Cey9XE7d0RooNWdsod7S1OYdhGWGUE03AacJkrzLx+V7ietsJzHl4JLOEQcHsNDI/YybMX7dyVbitGOdhIHEJuuOMNaJeFQ/C0y1IQ1A+N+bCEEgglEEggVBQeoJGQuwuqAeB1FPzCgcZ6x8KoiY/5j53S+i9YdbjseFQyD3ZhkfDJA7t32LFD+62VdhYBnHv8gloJFYb1y/phONOPDy3M4kIoQSGYnJqxM5cu20tnLlkCi0IVLKUq+eIDNPZzFYSxuYSdGhi2a2H654dhqIXXmKcEQkUhTwEW2ulOD8juitS3NsIpHwG/sK025roKONwt4DK55lOcFYMK5rAuVIA8F37h8L49Vks2TJE1heGU+Uj3wT43V0FwOATGzzx5SK50k/755FkbJv1zFUBFWaoWpH3mWXL5EOKpjJ0bGnXUy6JgVsm1yOXZVHh6KIEHUgKhovBA3tZg8hMkMbAiFNnuhlqnMNSTOU9lY8Ip1Q5uB2LX56CDbgTk+BjZKffs3I6puMxSgMO0E9RE7BeHB1Tc4WWtQgJLY0CDkhEREd4AReB6/6C9BFDxyvU+K4PDoyyb/lnjN5/imlFLNCySpCvkfTiDkjARD2iXQwUhH+mG5z5MEggVhQf8budOhhXEoR9uaXDhlMpUqbJhdNDMxnFwCvNMwru3iQ76kG3raLUi4jVlYVDRhJ3f1O+qCV82oQS8kiDFUXwIxSVFNjQyZi+fE+3yVVtgcGykm0EjTWNfRemfT8Gq2E/EhIr7nn6EY9GJI3wJJfCKEggVhVcU0YNxQK7CoKiIY61Ntgcrg1u8szNmdl5d1wWrCh9mNgMddFFm0Y4e2G2PHNpnjaKDTod00OsS7CY/KVdBEA5BVoSp6Rk7i3LwwtkLNgvWJUb0jLgS8nYzMAgXisA7OPuVuYRNZ1AQLo9OusgGpzYwyPPFO2zyWxJ2P5TAmiUQKgprFtnmPSFQBJYnym2klxZ+oa1axDVZdwQWgPUqDFIWNBkH4ZQLNjU7Z9UsAo8fOWAHoIOurqq6hQ7aLyJqOywPlgSW7q3s/wwon/75MmyKz4BDGBgbt+pYlZVhXXDZHfPc3+fiEJKAbM/Bh3AO6uX4kjVredw/WJIOryaUwP2XQKgo3H8ZF1wLudYFAcb2NtbZI1gYqss2ng46yUQt/oWO5iZ7/OgB2wXLozj5U+SPcAAKFpGlRaXgJBV2KB8JODcDFgTd3xt9gy4vw6We61ZeXmGVROWIDyFfB0AuDkF97SKKQeGOYldUyR3r7ovwJZRAKIE1SyBUFNYssgfnhNxwyioAZMcVTgkHwxIdNJcq64Im+vUU747QZD2HiTmZStr+HdtcdsoO2loUfgGFQb+r6FXnhGXzScCPEd0/KQjFxSXQLhfbODTIJ89fspMXLpuQKjVYmHSXRXKUT9HpueGO4kE4Be3y9clpV60fU6GbIR8ph+eGEggkECoKD/lI0ASvSdVP3M1VMC92KJyy2kkm33BKvxyIclefp+Nxi8LDICroY/yrq64O3RGbfAx6BU+LsqJgRLs8y32+cKXLJW+awAXlaJeFQ8gzu+PtCsJMIuWAipdGg/TPEqXGc6ggbPJBFXa/oCQQKgoFdTteu87k7sD0WUDH4+AXGnLDKTcCv8BikWGxmCIjXyPKyOuOKpxyG+GU5Y4OOnRHvHZjYK0tewXB3zPhEORq6rrRC+3yebsxOGyiXS5DcXA4BK3y3vSw1sY43p2ePT8FDuHiyLidyUn/nGshW0f14SmhBEIJ3EUCoaJwF8E8rF/nTrZl0EEfbtlCOGVDDh10MNevd76XVUGoBGWnnIdnYZ6EU7u2dkAHfcC2tre6ZD8+nFKLitrxVomH9Z4U2nXn3hPt3BXuKMrPfhSDF0n/fKHrumNZrIQT4b6kfxYOgWgGn/5ZY1b9CMdJoY2UsD8PigRCReFBuZMbfB25CkM9NLrHUBj2bKkL6KCzMzLz87qLqlAb2IkxU89bMV8c3rsLd8Rea6Idsgi7pEDe0rHuhsITN1QCXknQwlyMIhkpAYcALuAUGISTpH9OsNOvrqxwCp53Z623A7IgqPhxNjI772iXBVgMvg8GYOhmcOIIX0IJ3DcJhIrCfRPt5q/YTcPM0n4i7qipIp11s7XzrrIR+AW14cMpp3FHxHB1CL9weO9uq4F+Og3NrqeD9ouUazx8eVUlsCR7Vu8i3EcRCLuk4F3q6na0y2Mzsy78dUNol1EQZB/wSuIMlqfzQ2Muw2MyE9Iuv6o3PmwslAASCBWFcBi8ogTchJ017ZZgYt5HAqhjLY1WW17qzt0wdkfqVnbKGeigWxvqCacEv9C5FR93aRBOme3p0qL1ij0PD8hXArfLWm6G/7+9M+Fv4kiieIMsfOAD29gOhwMEEkLIEpLs9/8Eu8kmLISEmAXiOIDvU/IV9r2aKbktjIIOk9botfFIGs3R/W9+rjfd1VVcqfJsnumffwpPF/4I54eGwgDTQlM5tjkBwFEEH0GgH8Iv8EN4CJGwiVUzLPy/6MLVdmgjAiJw6gQkFE4dcXFuEP+R5nLKL6cnw+fwX+jH8DML7QRsfcuFZoZR9c7gIhUYhmp1L3x6Df4LX94JV2ambf9h/kTZ8k104nsTcJFA480RBIbk+gPOg989+jn89PQZlj+WEHZ5MPMP8OGl97768QN5DxYXCc/r/BBisZodqa0IiMCHIiCh8KFIF+g+sf8Cw0F/jdURN8azcNBuL/wPfivNNsGAZXYsW1hmR4N17/atcP/zT8Mk7nOAJ00G6+E93JjZwdp0hIAzNT8ETjOYH8JG+PHnXyESfgn7EGsjGEWg8W437DIFQhwPYQW5Qv6z8NoCJ7ExJhDwqlGEjnStLiICLRGQUGgJm06q/wN+7cKohYOeGWZAnQ6Gg86XU25iLf4YQv5+exfhoD+5huHuQUxHHJoBYV3cuKln2idAo0ymZUwzVLAq5fHT5xZVcXljM4wiDDeFA5e4tlvisMsMtcwphsfI7kiHSBbWQQKhXco6XwTaJyCh0D7Dnr5C/Mec/gt3ENnxHqIuDmNqgqUz6ay5nPIs/Bf2wzZC887i+t/evRNuXL1sS/MoGGBTTCzwnvkoNt+qNEmAhpl+CG8gBJ4vvDSBMDdPP4SBIz8EDgNQmbVYeDoL+4zvnyD9M8Mub+R+CPGIVXaktiIgAn8nAQmFv5N+ge4d/3GnSGCyKYaDps8CjQFtQ9v+C7AsFCb0X2Bgny8wsvANEk7NXJywqQj6L/B72rDcFhWI8Ok0xVlRIJSw3JGCbHl1NXz38Ofw4MkcOg1+CIyHgO8ZE6FdgRBPMzDt8/cLi7X0z/w/ZPc5nabqqiIgAi0SkFBoEZxOe5sAjQ6LG+lLWN74zeXpwGWVLDa60EZ0R14jExxH/gv9cKi7f+d2+BI+DGMjw4HBmjhvTsGg8m4CsUAgK0ZV3NjeDj89eQqR8DhsIlX4MKZ36Fzarh8COy1O/7yBsMscQeBIAoWB9xXfq4iACKRHQEIhvT7p+hrFf/j5lOjZKY+WU8I42E97TeXTLx0bmZ1yGk6O/7zH5ZQfYzll2cJBx0aovTsV5+xjAgF9UMboz+7eXph7MR/+9eOj8HJ5JQxiJUMZAqzdvAykRtvvmo3pnxkP4b+vlkIV00Us8UiU7dBGBEQgOQISCsl1SXEqRMHgT4mDmPdmOGj+dnI5JQVHLRz07i6WU14NX8N/4eqlmXAGVsqyU+KY/F9ttKM4lN+vJS4QCIDBjPr64EOCnb+/eh3+DYHw5Nl8KCPN+ADSP59G2OX69M8SCO/XbzpKBFIgIKGQQi8UvA6xUeBySiabuomkUzRePu3tT52toOCANe9By7ddrYQSpjcYCvoOQkJPI3ATn4zNf4EXx3E8kqUXBrrZVmtnLhDMDwG+CCtr6+EBwi5/jxTQhxBUjIdgEqLN4X+eHvshLG5VLC/D87U47DKkSi/A538yFREoAAEJhQJ0Yjc0wYxzNMJwfRzLKT+aCtPxckqYcDfizbaJdofnHg8HjRgPCAf92a3rYQKZKg8P3mBZH4a8YaU42uFG1F+bvWeqxztDMvHpF07TlLCscR2hlh/PPQs/QCCsbm4h/fN5JOLqgB8C7hUvd9zeOwgPMMXAyIqMsMgSjzDZDm1EQAS6goCEQld0U3EqGRuLMozX51PjNsIwhFTELJ1aTsn7VPf3wy6mIy6OjYa7cHb89PpsGB8dqa2QcCPK+3a7WIjFAdvjbevD6AFjV62sb4Wnv/0eHv7ya1haWQ39A4OIhwA/BHu0b+/xPnZSPcAQ0ePFlfAQERyZo4El7nPboY0IiEBXEZBQ6KruKk5lY+MxiuV3XyE2wm3kkOjUckoOp3PMgMGB9iAYKoj4N4GgULdvXg+3ZmfDJKY+aCgPD7FK4pCz9kfe96Rcb3hTI3+SsHFx4KMHXEK6vLoOgTCP5E0vwjKG//vhgzAIB0YGTKJRh55quVBjxNMMz9c2bTWDp39mH3P0pj0Z0nL1dKIIiECHCEgodAikLtM8AdooGhNPR/zR8FD45sp0uDo6bBeLn1SbvTqNE5MU9UF50H+B99mF4azYsr+BcOPjK+HGlcvhoykEh8IyQOaX+BOe+AwN7abNDF1+49iefmjD9657UxiwUBDRofNsvlKBWThfvl4KcxAIzxEsaQdtHkQCr3NYDWKGG+ehmTZ6kzevqZd6gWBhl7Hc8X8r63Yd5+b1a+riOlgERCA5AhIKyXVJ71UoNiw0ircmL1jApnGknGZpZTqCs+L03qdQcMPugoG5CqoI2sTPUxfGwuyVS+HyzBRGGS4gzfVgKGFKhEaOTpDxCgAz2DgnLvzE6/tev5d/jo/19/Hx8T5/79f0z/aK+hxdG9KAwoDTCviSowNcIrq8uhbmX76GOFjAVAOcB1HXfowelHEc22O/OJ7ntCoU2BeMrcBS2T9E2OXl8AjTDPuoAwv7UgLBUGgjAoUhIKFQmK7s/obERmYAPgt3kZmSGSoZVImFxo12OjNTjdtrT704BPb0rcIncLsXjN4eUibvYy69D+JgAqJhZvpiuIRfTlOMDg9juWA/js5MO8Mam7HNjSLvwcq40HnrRs3sMBWQNdANbVb1TBTwHpxS4P04rVLFKME6Ihuurq+HV4vLYeH1It5v2uqO8jmMHoAZ25mJA7t4rTa8brNCwdqK88ifIzW/IljSAwiEddSDhaLLR4ZshzYiIAKFISChUJiuLE5DYqMzMcjllBfDzckxe5KNDVajFvM4mscSDNtxM3l0ViYY8JlGDsZvH6KB8/pnMYYxhJGFibGxMDU5HsYhIMaxamIYGROZB4GxBsxJkBYXF/fARJmI8Cf/d9316P7+jiLAf7nvLPwqWDiawSd1+lgc4HcDKxZWkZhpBSMHi8urYRU+BxU4a77B+YysyJEDsmOlsvafXAce8b5CoZ73PJwiGVXx5dYOq5iJJBx08p3sEG1EQAS6nICEQpd3YFGrb/YufyJmGz+Gob5/eSrQj4GFho4GLzvOdh3bvI9QiE+oiQbeEz+M+MhkUwzYVDrzBk/oZSRGGgojCEs9gZUTAxQSF0ZsfwlP8KPn4eeAC9KFkg6UjGxIw30mn8YwRWE35J3wCRXkskGKkwNMhZg4gihYgwF+g+RXjJa4urEVqpWqiYMNjB5s7Wzb8QhQbYKFYoX3yq/YUBwcb+tfCwXjh3b7NMMKknFxBOEp/BA4csA2EL6PfsTX13sREIFiEZBQKFZ/Fq41fNJ2Y0R/g8+wMuIe/AlGBzw7ZS4Y6lrerFCIT88Mr4uQTDjQD+AQhp2Bm2jYreAmNNacnuBKghJGGxgSeQirOBhGmmLBVlaYqsmeuTGBgB/Gc8BIAYRIFYKgUt2zkNOHEAg7yINA/wmL94C284fxD0q4VgkJmpihM6tfNmrAejT7PE8jT2OPxR4nCi3yJncW+iE8wtQGQy/v5mGX4z6xg7QRAREoNAEJhUJ3b3EaFxun8zDG9F1gDIbYfyH2R2hHKNRTywyzG9XMgPIYGmgaXI4+8BOnLzgNUVs5ge9Yj+zIbDoBJhqfcUVchm3ij61YwMgDX/lj0RP5PU/Nt3aN2rXsi5Y3vC79HA5RZx8x4MWyurJe2YjD3Mpa+PGPpbCW+yHEfdDyzXWiCIhA1xGQUOi6LuvdCpvhhBXzEYaLGO6/D/+FG/AhcOPGY/ieRo92NRYPnSRndXFTnn3ILw9Tf+zzX9/VxYQf6QbbxIHv7OArq0eHRBMKxhN3iqYZmP6ZAmEeUx8sFAgEajrF9mgjAiLQSwQkFHqptwvSVjNcaIsLhmvwFfj60vSxcNCwfGbGmzXaBUHUsBkuFGwcJBIIG5gCoR/CEzhKUkiwaBShIUp9KQI9QUBCoSe6uZiNjI3YOczj38F0xD+QnTIOBx0PrZ82BRpgmle+sjR6Ao+Pid9nZ57ulvez/AtQURRS9D14vLgaHiEmwg5WfbDEbG2HNiIgAj1LQEKhZ7u+OA2Pl1OOYukis1N6OGi2kkP5GlnI+ttZ8JXBk5j++fsFxGDA6goWsuRITSORk11JWxEQgV4hIKHQKz1d8HbyKZlPwR705wrCQN9D/ojZsSwcNJvvRrLgKE5snrWd3wAUWS3AD+GHl0vhBfIz2O5cSfl0ju3URgREQARAQEJB/w0KRYBigcUNHv0XvkI660sjQ7WnZD4tZ0fZocXdoKFw1cDKBrzmrVxCHgj6ITCyou/TNENx/wuoZSLQCQISCp2gqGskRyCejihBPFwfHw1fwIeBAZuoJSgU+JRNY5lri+Ta0GqF4tEDvwYzOjIWwhwCJnlehpiRH6dXERABEagnIKFQT0SfC0UgNoZ8z6kIJp2aRaRHOkCyUDTkTv5dKxooDlhc9LBNVTgpcorhCUYPfmMeiLyRMRM7SRsREAERaEBAQqEBHH1VHAL1w+uTSC3NaQn+TiKfBIMdeakZXe442u1fp/Gaj4ZYFaM6UgtweoHC4BlyQSwj9LIXm5ZB43JN4bv1KgIiIAINCUgoNMSjL4tGoF4wlDGqMH1+KFxGDoerGG0YQ/hlH2motZ1GGfEGPDbDBxcPvDUrgzqcodNBLgz4wv0MBb2B0M8LCJD0G5JGLW5Xw56HmeZpGGZwnw18VBEBERCBpghIKDSFSwcXhYA9XaMxsQFlHoVJJHuaGR4MUxAPFBDnz/Xl+RVyYx0DyLRDtscsec2GZ/uiJ/34tNr7/Bx+rr11EeA7omv4W/oY7CAHw2skkKLvwSu8rmB54wH2ezmpff6dXkVABESgGQISCs3Q0rGFI0Dja0/ceI1FAxvKPBLjmJbg1MT4YH+4gNEGjjgMMNkTREVsy/09zztW8IV951YeH+ytfz528Nsf6FfAgEjrSBTFWAdrld2wxIySmFLYjUYNeCbbwcuyHe+sz9u30B4REAERaEhAQqEhHn3ZSwQyA54ZW4/HELefToCD5T4TCiNILT3SXw4TQwOhjIROQ8gWyYiQdCYs4XMf3jAFNM8x4x1diJ+ZuZFZKA9g1CkGaNwZFXEHGST3Dv40UbC1tx/4W8H+CsQCM07WF17fRIHEQT0afRYBEegQAQmFDoHUZYpHgEafz//2gncniQdvNQ32OaScpk8kl2O6SOhjVkh8zq7Fp/3sOpa2mmIBxp/v6YRIv4K/ugfvZ8IAW15LRQREQAROm4CEwmkT1vULRcDn/l08sHG01/XTFq022qcP/PyaFtCIgSPRqwiIwAcmIKHwgYHrdsUlkI0axBIi90c4ock1AVD7TiMENRR6IwIikBQBCYWkukOVEQEREAEREIG0CEgopNUfqo0IiIAIiIAIJEVAQiGp7lBlREAEREAERCAtAhIKafWHaiMCIiACIiACSRGQUEiqO1QZERABERABEUiLgIRCWv2h2oiACIiACIhAUgQkFJLqDlVGBERABERABNIiIKGQVn+oNiIgAiIgAiKQFAEJhaS6Q5URAREQAREQgbQISCik1R+qjQiIgAiIgAgkRUBCIanuUGVEQAREQAREIC0CEgpp9YdqIwIiIAIiIAJJEZBQSKo7VBkREAEREAERSIuAhEJa/aHaiIAIiIAIiEBSBCQUkuoOVUYEREAEREAE0iIgoZBWf6g2IiACIiACIpAUAQmFpLpDlREBERABERCBtAhIKKTVH6qNCIiACIiACCRFQEIhqe5QZURABERABEQgLQISCmn1h2ojAiIgAiIgAkkRkFBIqjtUGREQAREQARFIi4CEQlr9odqIgAiIgAiIQFIEJBSS6g5VRgREQAREQATSIiChkFZ/qDYiIAIiIAIikBQBCYWkukOVEQEREAEREIG0CEgopNUfqo0IiIAIiIAIJEXg/1tBE8OX0p2WAAAAAElFTkSuQmCC;" parent="560cyLqUuOO_lIKh5aCF-19" vertex="1">
          <mxGeometry width="90" height="78.62" as="geometry" />
        </mxCell>
        <mxCell id="560cyLqUuOO_lIKh5aCF-17" value="POS System" style="text;html=1;align=center;verticalAlign=middle;whiteSpace=wrap;rounded=0;" parent="560cyLqUuOO_lIKh5aCF-19" vertex="1">
          <mxGeometry y="77.5" width="95.64" height="26" as="geometry" />
        </mxCell>
        <mxCell id="VY5MfFwBhd-DhnV7DkUw-1" value="SSIS" style="whiteSpace=wrap;html=1;aspect=fixed;" vertex="1" parent="1">
          <mxGeometry x="520" y="360" width="80" height="80" as="geometry" />
        </mxCell>
        <mxCell id="VY5MfFwBhd-DhnV7DkUw-3" style="edgeStyle=orthogonalEdgeStyle;rounded=0;orthogonalLoop=1;jettySize=auto;html=1;exitX=1;exitY=0.5;exitDx=0;exitDy=0;entryX=0.107;entryY=0.6;entryDx=0;entryDy=0;entryPerimeter=0;" edge="1" parent="1" source="VY5MfFwBhd-DhnV7DkUw-1" target="RLjyjs_sm2IHfBNOWAbh-23">
          <mxGeometry relative="1" as="geometry" />
        </mxCell>
        <mxCell id="VY5MfFwBhd-DhnV7DkUw-8" value="" style="group" vertex="1" connectable="0" parent="1">
          <mxGeometry x="370" y="250" width="70" height="93.5" as="geometry" />
        </mxCell>
        <mxCell id="VY5MfFwBhd-DhnV7DkUw-4" value="" style="shape=note;whiteSpace=wrap;html=1;backgroundOutline=1;darkOpacity=0.05;fillColor=#ffe6cc;strokeColor=#d79b00;" vertex="1" parent="VY5MfFwBhd-DhnV7DkUw-8">
          <mxGeometry width="70" height="60" as="geometry" />
        </mxCell>
        <mxCell id="VY5MfFwBhd-DhnV7DkUw-6" value="DailyData.csv" style="text;html=1;align=center;verticalAlign=middle;whiteSpace=wrap;rounded=0;" vertex="1" parent="VY5MfFwBhd-DhnV7DkUw-8">
          <mxGeometry x="5" y="63.5" width="60" height="30" as="geometry" />
        </mxCell>
        <mxCell id="VY5MfFwBhd-DhnV7DkUw-9" value="" style="group" vertex="1" connectable="0" parent="1">
          <mxGeometry x="370" y="450" width="70" height="100" as="geometry" />
        </mxCell>
        <mxCell id="VY5MfFwBhd-DhnV7DkUw-5" value="" style="shape=note;whiteSpace=wrap;html=1;backgroundOutline=1;darkOpacity=0.05;fillColor=#ffe6cc;strokeColor=#d79b00;" vertex="1" parent="VY5MfFwBhd-DhnV7DkUw-9">
          <mxGeometry width="70" height="70" as="geometry" />
        </mxCell>
        <mxCell id="VY5MfFwBhd-DhnV7DkUw-7" value="DailyData.csv" style="text;html=1;align=center;verticalAlign=middle;whiteSpace=wrap;rounded=0;" vertex="1" parent="VY5MfFwBhd-DhnV7DkUw-9">
          <mxGeometry x="5" y="70" width="60" height="30" as="geometry" />
        </mxCell>
        <mxCell id="VY5MfFwBhd-DhnV7DkUw-10" value="" style="endArrow=classic;html=1;rounded=0;exitX=0;exitY=0;exitDx=70;exitDy=50;exitPerimeter=0;entryX=0.5;entryY=1;entryDx=0;entryDy=0;" edge="1" parent="1" source="VY5MfFwBhd-DhnV7DkUw-5" target="VY5MfFwBhd-DhnV7DkUw-1">
          <mxGeometry width="50" height="50" relative="1" as="geometry">
            <mxPoint x="450" y="550" as="sourcePoint" />
            <mxPoint x="560" y="500" as="targetPoint" />
            <Array as="points">
              <mxPoint x="560" y="500" />
            </Array>
          </mxGeometry>
        </mxCell>
        <mxCell id="VY5MfFwBhd-DhnV7DkUw-12" style="edgeStyle=orthogonalEdgeStyle;rounded=0;orthogonalLoop=1;jettySize=auto;html=1;exitX=0;exitY=0;exitDx=70;exitDy=30;exitPerimeter=0;entryX=0.5;entryY=0;entryDx=0;entryDy=0;" edge="1" parent="1" source="VY5MfFwBhd-DhnV7DkUw-4" target="VY5MfFwBhd-DhnV7DkUw-1">
          <mxGeometry relative="1" as="geometry">
            <mxPoint x="560" y="280" as="targetPoint" />
          </mxGeometry>
        </mxCell>
        <mxCell id="VY5MfFwBhd-DhnV7DkUw-14" style="edgeStyle=orthogonalEdgeStyle;rounded=0;orthogonalLoop=1;jettySize=auto;html=1;exitX=1;exitY=0.5;exitDx=0;exitDy=0;entryX=0;entryY=0.5;entryDx=0;entryDy=0;entryPerimeter=0;" edge="1" parent="1" source="560cyLqUuOO_lIKh5aCF-2" target="VY5MfFwBhd-DhnV7DkUw-4">
          <mxGeometry relative="1" as="geometry" />
        </mxCell>
        <mxCell id="VY5MfFwBhd-DhnV7DkUw-18" style="edgeStyle=orthogonalEdgeStyle;rounded=0;orthogonalLoop=1;jettySize=auto;html=1;exitX=1;exitY=0.5;exitDx=0;exitDy=0;entryX=-0.057;entryY=0.614;entryDx=0;entryDy=0;entryPerimeter=0;" edge="1" parent="1" source="560cyLqUuOO_lIKh5aCF-15" target="VY5MfFwBhd-DhnV7DkUw-5">
          <mxGeometry relative="1" as="geometry" />
        </mxCell>
        <mxCell id="VY5MfFwBhd-DhnV7DkUw-19" value="" style="group" vertex="1" connectable="0" parent="1">
          <mxGeometry x="690" y="310" width="207.9999999999999" height="90" as="geometry" />
        </mxCell>
        <mxCell id="RLjyjs_sm2IHfBNOWAbh-24" value="Power BI" style="shadow=0;dashed=0;html=1;strokeColor=none;labelPosition=center;verticalLabelPosition=bottom;verticalAlign=top;align=center;shape=mxgraph.mscae.cloud.power_bi_embedded;fillColor=#000000;pointerEvents=1;labelBackgroundColor=#ffffff;spacingTop=7;" parent="VY5MfFwBhd-DhnV7DkUw-19" vertex="1">
          <mxGeometry x="160.9999999999999" width="47" height="50" as="geometry" />
        </mxCell>
        <mxCell id="560cyLqUuOO_lIKh5aCF-12" value="" style="endArrow=classic;html=1;rounded=0;" parent="VY5MfFwBhd-DhnV7DkUw-19" edge="1">
          <mxGeometry width="50" height="50" relative="1" as="geometry">
            <mxPoint y="90" as="sourcePoint" />
            <mxPoint x="150" y="30" as="targetPoint" />
          </mxGeometry>
        </mxCell>
        <mxCell id="VY5MfFwBhd-DhnV7DkUw-20" value="" style="group" vertex="1" connectable="0" parent="1">
          <mxGeometry x="850" y="430.0000000000001" width="49" height="50" as="geometry" />
        </mxCell>
        <mxCell id="RLjyjs_sm2IHfBNOWAbh-21" value="Machine&lt;br&gt;Learning" style="aspect=fixed;html=1;perimeter=none;align=center;shadow=0;dashed=0;image;fontSize=12;image=img/lib/mscae/Machine_Learning.svg;labelBackgroundColor=#ffffff;fillColor=#4D9900;" parent="VY5MfFwBhd-DhnV7DkUw-20" vertex="1">
          <mxGeometry width="49" height="50" as="geometry" />
        </mxCell>
        <mxCell id="560cyLqUuOO_lIKh5aCF-20" value="" style="endArrow=classic;html=1;rounded=0;exitX=1.067;exitY=0.62;exitDx=0;exitDy=0;exitPerimeter=0;" parent="VY5MfFwBhd-DhnV7DkUw-20" source="RLjyjs_sm2IHfBNOWAbh-23" edge="1">
          <mxGeometry width="50" height="50" relative="1" as="geometry">
            <mxPoint x="-270" y="19.999999999999886" as="sourcePoint" />
            <mxPoint y="29.999999999999886" as="targetPoint" />
          </mxGeometry>
        </mxCell>
        <mxCell id="VY5MfFwBhd-DhnV7DkUw-21" value="Project flow for Milagro Cantina" style="text;html=1;align=center;verticalAlign=middle;whiteSpace=wrap;rounded=0;fontStyle=1;fontSize=17;" vertex="1" parent="1">
          <mxGeometry x="380" y="580" width="350" height="30" as="geometry" />
        </mxCell>
      </root>
    </mxGraphModel>
  </diagram>
</mxfile>
